<?xml version="1.0" standalone="no"?><!DOCTYPE svg PUBLIC "-//W3C//DTD SVG 1.1//EN" "http://www.w3.org/Graphics/SVG/1.1/DTD/svg11.dtd"><svg t="1664071153306" class="icon" viewBox="0 0 1024 1024" version="1.1" xmlns="http://www.w3.org/2000/svg" p-id="1086" xmlns:xlink="http://www.w3.org/1999/xlink" width="200" height="200"><path d="M704 448a32 32 0 0 1 32-32h160a32 32 0 0 1 32 32v480a32 32 0 0 1-32 32h-160a32 32 0 0 1-32-32V448z m64 32v416h96V480h-96z m-384 96a32 32 0 0 1 32-32h160a32 32 0 0 1 32 32v352a32 32 0 0 1-32 32h-160a32 32 0 0 1-32-32V576z m64 32v288h96v-288h-96zM64 704a32 32 0 0 1 32-32h160a32 32 0 0 1 32 32v224a32 32 0 0 1-32 32H96a32 32 0 0 1-32-32v-224z m64 32v160h96v-160H128z" fill="#222831" p-id="1087"></path><path d="M768 96a32 32 0 0 1 32-32h128a32 32 0 0 1 32 32v128a32 32 0 1 1-64 0V167.264l-234.72 208.64a32 32 0 0 1-38.24 3.232l-240-149.984-271.488 150.816a32 32 0 0 1-31.072-55.936l288-160a32 32 0 0 1 32.48 0.832l235.68 147.296L843.84 128H800a32 32 0 0 1-32-32z" fill="#42b983" p-id="1088"></path></svg>