<?xml version="1.0" standalone="no"?><!DOCTYPE svg PUBLIC "-//W3C//DTD SVG 1.1//EN" "http://www.w3.org/Graphics/SVG/1.1/DTD/svg11.dtd"><svg t="1664071230899" class="icon" viewBox="0 0 1024 1024" version="1.1" xmlns="http://www.w3.org/2000/svg" p-id="1377" xmlns:xlink="http://www.w3.org/1999/xlink" width="200" height="200"><path d="M352 384a224 224 0 1 0 223.36 206.944 17.088 17.088 0 0 0-24.16-6.336c-73.024 46.08-157.92-38.784-111.808-111.808a17.056 17.056 0 0 0-10.624-25.76c-35.584-8-55.776-34.24-61.472-62.528A228.192 228.192 0 0 0 352 384z m-288 224a288 288 0 0 1 340.736-283.2 32 32 0 0 1 25.344 38.72 19.232 19.232 0 0 0 1.728 13.472c1.792 3.2 4.928 6.24 11.04 7.648a81.056 81.056 0 0 1 50.688 122.304c-9.728 15.36 8.128 33.248 23.488 23.52a81.056 81.056 0 0 1 120.192 42.912c0.768 2.272 1.28 4.64 1.472 7.04A288 288 0 1 1 64 608z" fill="#222831" p-id="1378"></path><path d="M352 448a32 32 0 0 1 32 32v114.752l86.624 86.624a32 32 0 0 1-45.248 45.248l-96-96A32 32 0 0 1 320 608v-128a32 32 0 0 1 32-32z" fill="#222831" p-id="1379"></path><path d="M576.96 140.768c19.008-84.256 139.072-84.256 158.08 0 2.624 11.456 15.808 16.96 25.76 10.656 73.024-46.144 157.92 38.752 111.808 111.776a17.056 17.056 0 0 0 10.656 25.76c84.256 19.008 84.256 139.072 0 158.08a17.056 17.056 0 0 0-10.688 25.76c46.144 73.024-38.752 157.92-111.776 111.776a17.056 17.056 0 0 0-25.728 10.688c-19.04 84.256-139.104 84.256-158.112 0a17.056 17.056 0 0 0-25.76-10.688c-73.024 46.144-157.92-38.752-111.776-111.776a17.056 17.056 0 0 0-10.656-25.728c-84.256-19.04-84.256-139.104 0-158.112a17.056 17.056 0 0 0 10.656-25.76c-46.144-73.024 38.752-157.92 111.776-111.776a17.056 17.056 0 0 0 25.76-10.656z m95.68 14.08c-4-17.728-29.28-17.728-33.28 0a81.056 81.056 0 0 1-122.304 50.688c-15.36-9.696-33.248 8.16-23.52 23.52a81.056 81.056 0 0 1-50.688 122.304c-17.728 4-17.728 29.28 0 33.28a81.056 81.056 0 0 1 50.688 122.304c-9.696 15.36 8.16 33.248 23.52 23.552a81.056 81.056 0 0 1 122.304 50.656c4 17.728 29.28 17.728 33.28 0a81.056 81.056 0 0 1 122.336-50.688c15.36 9.728 33.216-8.128 23.52-23.52a81.056 81.056 0 0 1 50.656-122.304c17.728-4 17.728-29.28 0-33.28a81.056 81.056 0 0 1-50.688-122.304c9.728-15.36-8.128-33.216-23.52-23.52a81.056 81.056 0 0 1-122.304-50.688z" fill="#42b983" p-id="1380"></path><path d="M768.48 260.576a32 32 0 0 1 10.976 43.904l-96 160a32 32 0 0 1-45.216 10.144l-96-64a32 32 0 1 1 35.52-53.248l68.064 45.376 78.72-131.2a32 32 0 0 1 43.936-10.976z" fill="#222831" p-id="1381"></path></svg>