<svg viewBox="0 0 1200 1200" xmlns:xlink="http://www.w3.org/1999/xlink" xmlns="http://www.w3.org/2000/svg"><defs><style>.cls-1{opacity:0.17;fill:url(#未命名的渐变_33);}.cls-11,.cls-2,.cls-3,.cls-4,.cls-5,.cls-6{opacity:0.3;}.cls-2{fill:url(#未命名的渐变_33-2);}.cls-3{fill:url(#未命名的渐变_33-3);}.cls-4{fill:url(#未命名的渐变_33-4);}.cls-5{fill:url(#未命名的渐变_162);}.cls-6{fill:url(#未命名的渐变_162-2);}.cls-7{fill:url(#未命名的渐变_69);}.cls-8{fill:#fff;}.cls-9{opacity:0.5;fill:url(#未命名的渐变_156);}.cls-10{fill:#c4f2e2;}.cls-12{fill:url(#未命名的渐变_165);}.cls-13{fill:url(#未命名的渐变_165-2);}.cls-14{fill:url(#未命名的渐变_165-3);}</style><linearGradient gradientUnits="userSpaceOnUse" y2="780.83" x2="601.5" y1="1079.33" x1="601.5" id="未命名的渐变_33"><stop stop-opacity="0" stop-color="#fff" offset="0"></stop><stop stop-color="#4be2ac" offset="0.77"></stop></linearGradient><linearGradient xlink:href="#未命名的渐变_33" y2="193.79" x2="937.96" y1="356.3" x1="937.96" id="未命名的渐变_33-2"></linearGradient><linearGradient xlink:href="#未命名的渐变_33" y2="395.23" x2="253.16" y1="557.74" x1="253.16" id="未命名的渐变_33-3"></linearGradient><linearGradient xlink:href="#未命名的渐变_33" y2="565.25" x2="1020.21" y1="661.44" x1="1020.21" id="未命名的渐变_33-4"></linearGradient><linearGradient gradientUnits="userSpaceOnUse" y2="329.77" x2="1112.26" y1="369.57" x1="1112.26" id="未命名的渐变_162"><stop stop-opacity="0.4" stop-color="#6de7bb" offset="0"></stop><stop stop-color="#55e2ac" offset="0.77"></stop></linearGradient><linearGradient xlink:href="#未命名的渐变_162" y2="197.1" x2="293.05" y1="263.44" x1="293.05" id="未命名的渐变_162-2"></linearGradient><linearGradient gradientUnits="userSpaceOnUse" y2="796.97" x2="595.41" y1="866" x1="595.41" id="未命名的渐变_69"><stop stop-opacity="0.02" stop-color="#009eaa" offset="0"></stop><stop stop-opacity="0.2" stop-color="#004c55" offset="0.77"></stop></linearGradient><linearGradient gradientUnits="userSpaceOnUse" y2="826.83" x2="779.87" y1="371.35" x1="779.87" id="未命名的渐变_156"><stop stop-opacity="0.62" stop-color="#6de7bb" offset="0"></stop><stop stop-color="#55e2ac" offset="0.77"></stop></linearGradient><linearGradient xlink:href="#未命名的渐变_33" y2="371.35" x2="599.11" y1="826.83" x1="599.11" id="未命名的渐变_165"></linearGradient><linearGradient xlink:href="#未命名的渐变_33" y2="549.16" x2="530.78" y1="677.29" x1="530.78" id="未命名的渐变_165-2"></linearGradient><linearGradient xlink:href="#未命名的渐变_33" y2="500.04" x2="655.49" y1="677.44" x1="655.49" id="未命名的渐变_165-3"></linearGradient></defs><g id="图层_1"><path d="M1200,1079.33c-21.31-166.75-281.1-298.5-598.5-298.5S24.31,912.58,3,1079.33Z" class="cls-1"></path><path d="M1003,356.3a58.51,58.51,0,1,0,0-117c-1.1,0-2.12.27-3.21.32a64.58,64.58,0,0,0-123.59,0c-1.09-.05-2.11-.32-3.21-.32a58.51,58.51,0,1,0,0,117Z" class="cls-2"></path><path d="M318.17,557.74a58.51,58.51,0,0,0,0-117c-1.1,0-2.13.27-3.21.33a64.58,64.58,0,0,0-123.6,0c-1.08-.06-2.11-.33-3.21-.33a58.51,58.51,0,0,0,0,117Z" class="cls-3"></path><path d="M1058.68,661.44a34.63,34.63,0,0,0,0-69.26c-.65,0-1.26.16-1.9.19a38.22,38.22,0,0,0-73.15,0c-.64,0-1.24-.19-1.89-.19a34.63,34.63,0,1,0,0,69.26Z" class="cls-4"></path><circle r="19.9" cy="349.67" cx="1112.26" class="cls-5"></circle><circle r="33.17" cy="230.27" cx="293.05" class="cls-6"></circle><ellipse ry="34.51" rx="246.14" cy="831.49" cx="595.41" class="cls-7"></ellipse><path d="M749.82,371.35H726.14c46.28,0,83.78,31.88,83.78,71.21V755.62c0,39.33-37.5,71.21-83.78,71.21h23.68c46.28,0,83.78-31.88,83.78-71.21V442.56C833.6,403.23,796.1,371.35,749.82,371.35Z" class="cls-8"></path><path d="M749.82,371.35H726.14c46.28,0,83.78,31.88,83.78,71.21V755.62c0,39.33-37.5,71.21-83.78,71.21h23.68c46.28,0,83.78-31.88,83.78-71.21V442.56C833.6,403.23,796.1,371.35,749.82,371.35Z" class="cls-9"></path><path d="M726.14,371.35H438.23c-46.28,0-83.78,31.88-83.78,71.21V755.62c0,39.33,37.5,71.21,83.78,71.21H726.14c46.28,0,83.78-31.88,83.78-71.21V442.56C809.92,403.23,772.42,371.35,726.14,371.35ZM582.19,778.26A179.17,179.17,0,1,1,761.36,599.09,179.18,179.18,0,0,1,582.19,778.26Z" class="cls-10"></path><path d="M576.57,553.29a10.17,10.17,0,0,0-.39-2.16,52.12,52.12,0,0,0,.41-6.52V499.12a10.1,10.1,0,1,0-20.2,0v32.56a29.93,29.93,0,0,0-7.65-6.17l-.65-.37-.7-.27a42.37,42.37,0,0,0-32.35.68l-1.89,1-.67.39c-23.2,14.61-41.48,36.67-52.87,63.79-8.93,21.29-11.88,41.52-11.72,52.62a34.16,34.16,0,0,0,10.66,26.4l.48.46.54.4a35.27,35.27,0,0,0,20.9,6.86l1.62,0c1.34,0,2.68,0,4-.16,14.24-1,42-6,47.55-7.07,17.38-2,30.23-16.1,29.48-32.28l.1-33.4C578.19,581.54,576.65,554.56,576.57,553.29Zm-45.42,96.84-.68.07-.47.12c-3,.59-32.05,5.86-45.4,6.78l-.21,0a20.16,20.16,0,0,1-2.33.08h-.38l-.37,0a15.07,15.07,0,0,1-9.22-2.52,13.65,13.65,0,0,1-4-10.47l0-.46v-.47c-.17-7.26,1.77-24.84,10.14-44.78,9.86-23.48,24.89-41.76,44.68-54.32l.5-.26a22.25,22.25,0,0,1,15.94-.5,7.88,7.88,0,0,1,3.81,6l-.06,21.74A33,33,0,0,1,532,576.7l-31.26,8.71a10.1,10.1,0,0,0,2.71,19.83,10.24,10.24,0,0,0,2.72-.37l31.25-8.71a53.88,53.88,0,0,0,5.62-1.92v3.66c-.34.4-.67.81-1,1.2-9,10.08-22.11,15.63-39.07,16.5a10.1,10.1,0,0,0,.51,20.19l.52,0c15.16-.77,28.2-4.58,39-11.31l0,14v.31C543.27,644.39,538.09,649.4,531.15,650.13Z" class="cls-10"></path><path d="M719.84,643.32c.17-11.1-2.78-31.33-11.71-52.62-11.39-27.12-29.67-49.18-52.87-63.79l-1.88-1-.69-.33a42.37,42.37,0,0,0-32.35-.68l-.69.27-.65.37a29.93,29.93,0,0,0-7.65,6.17V499.12a10.1,10.1,0,1,0-20.2,0v45.49a54.09,54.09,0,0,0,.4,6.52,10.17,10.17,0,0,0-.38,2.16c-.08,1.27-1.62,28.25,13.34,51.21l.1,33.4c-.75,16.18,12.1,30.26,29.48,32.28,5.56,1.06,33.3,6.07,47.55,7.07,1.33.11,2.67.16,4,.16l1.62,0a35.29,35.29,0,0,0,20.9-6.86l.54-.4.48-.46A34.11,34.11,0,0,0,719.84,643.32ZM695.65,654.7a15.07,15.07,0,0,1-9.22,2.52l-.38,0h-.37a20.08,20.08,0,0,1-2.33-.08l-.21,0c-13.35-.92-42.4-6.19-45.4-6.78l-.47-.12-.68-.07c-6.94-.73-12.13-5.74-11.79-11.39v-.31l0-14c10.78,6.73,23.82,10.54,39,11.31l.52,0a10.1,10.1,0,0,0,.51-20.19c-16.9-.87-30-6.38-39-16.39-.39-.43-.75-.87-1.12-1.31v-3.66a53.1,53.1,0,0,0,5.62,1.92l31.25,8.71a10.24,10.24,0,0,0,2.72.37,10.1,10.1,0,0,0,2.7-19.83l-31.25-8.71a33,33,0,0,1-11.1-5.53l0-15.74v-6a7.89,7.89,0,0,1,3.8-6,22.27,22.27,0,0,1,16,.5l.5.26c19.79,12.56,34.82,30.84,44.68,54.32,8.37,19.94,10.31,37.52,10.14,44.77v.48l0,.46A13.69,13.69,0,0,1,695.65,654.7Z" class="cls-10"></path><g class="cls-11"><path d="M726.14,371.35h-23l-46.29,64.88A179.16,179.16,0,1,1,452.53,722.68l-64.23,90a93.35,93.35,0,0,0,49.93,14.12H726.14c46.28,0,83.78-31.88,83.78-71.21V442.56C809.92,403.23,772.42,371.35,726.14,371.35Z" class="cls-12"></path><path d="M543.05,597.9c-.34.4-.67.81-1,1.2a46.07,46.07,0,0,1-4.32,4.18L515.4,634.54A74.81,74.81,0,0,0,543,624.46l0,14v.31c.33,5.65-4.85,10.66-11.79,11.39l-.68.07-.47.12c-2.06.4-16.28,3-29.34,4.89L484.9,677.29c.4,0,.8,0,1.2,0,14.24-1,42-6,47.55-7.07,17.38-2,30.23-16.1,29.48-32.28l.1-33.4c15-23,13.42-49.94,13.34-51.21a10.17,10.17,0,0,0-.39-2.16c.08-.64.07-1.31.13-2l-33.26,46.62Z" class="cls-13"></path><path d="M655.26,526.91l-1.88-1-.69-.33a42.37,42.37,0,0,0-32.35-.68l-.69.27-.65.37a29.93,29.93,0,0,0-7.65,6.17V500l-20.2,28.32v16.25a54.09,54.09,0,0,0,.4,6.52,10.17,10.17,0,0,0-.38,2.16c-.08,1.27-1.62,28.25,13.34,51.21l.1,33.4c-.75,16.18,12.1,30.26,29.48,32.28,5.56,1.06,33.3,6.07,47.55,7.07,1.33.11,2.67.16,4,.16l1.62,0a35.29,35.29,0,0,0,20.9-6.86l.54-.4.48-.46a34.11,34.11,0,0,0,10.65-26.4c.17-11.1-2.78-31.33-11.71-52.62C696.74,563.58,678.46,541.52,655.26,526.91ZM695.65,654.7a15.07,15.07,0,0,1-9.22,2.52l-.38,0h-.37a20.08,20.08,0,0,1-2.33-.08l-.21,0c-13.35-.92-42.4-6.19-45.4-6.78l-.47-.12-.68-.07c-6.94-.73-12.13-5.74-11.79-11.39v-.31l0-14c10.78,6.73,23.82,10.54,39,11.31l.52,0a10.1,10.1,0,0,0,.51-20.19c-16.9-.87-30-6.38-39-16.39-.39-.43-.75-.87-1.12-1.31v-3.66a53.1,53.1,0,0,0,5.62,1.92l31.25,8.71a10.24,10.24,0,0,0,2.72.37,10.1,10.1,0,0,0,2.7-19.83l-31.25-8.71a33,33,0,0,1-11.1-5.53l0-15.74v-6a7.89,7.89,0,0,1,3.8-6,22.27,22.27,0,0,1,16,.5l.5.26c19.79,12.56,34.82,30.84,44.68,54.32,8.37,19.94,10.31,37.52,10.14,44.77v.48l0,.46A13.69,13.69,0,0,1,695.65,654.7Z" class="cls-14"></path></g></g></svg>