<svg xml:space="preserve" style="enable-background:new 0 0 256.5 253.117;" viewBox="0 0 256.5 253.117" height="253.117px" width="256.5px" y="0px" x="0px" xmlns:xlink="http://www.w3.org/1999/xlink" xmlns="http://www.w3.org/2000/svg" id="Layer_1" version="1.1">
<path d="M253.479,119.326c0-40.701-33.074-73.693-73.871-73.693c-0.635,0-1.262,0.029-1.893,0.046
	c-12.881-21.591-36.498-36.067-63.514-36.067c-40.798,0-73.871,32.995-73.871,73.696c0,0.529,0.029,1.049,0.04,1.576
	C18.056,97.563,3,121.491,3,148.941c0,40.699,33.073,73.688,73.872,73.688c2.32,0,4.612-0.118,6.878-0.325
	c13.551,16.375,34.051,26.813,56.998,26.813c37.711,0,68.793-28.192,73.289-64.596C237.488,172.174,253.479,147.618,253.479,119.326
	z" style="fill:#D6F0FF;"></path>
<g style="display:none;" id="Layer_3">
	<g style="display:inline;">
		<path d="M85.16,142.542c0-11.563-10.059-20.936-22.467-20.936
			c-0.194,0-0.385,0.009-0.576,0.014c-3.917-6.134-11.102-10.245-19.318-10.245c-12.409,0-22.469,9.372-22.469,20.936
			c0,0.149,0.009,0.297,0.012,0.446c-6.785,3.603-11.365,10.399-11.365,18.198c0,11.562,10.059,20.934,22.468,20.934
			c0.705,0,1.403-0.033,2.092-0.094c4.122,4.65,10.358,7.617,17.335,7.617c11.471,0,20.925-8.01,22.293-18.35
			C80.297,157.555,85.16,150.579,85.16,142.542z" style="fill:#D7F7E4;stroke:#CCCCDE;stroke-width:3;"></path>
		<path d="M62.314,120.853c-0.193,0-0.384,0.009-0.575,0.014
			c-3.141-4.918-8.383-8.534-14.573-9.775c4.898,1.229,9.023,4.208,11.558,8.175c0.165-0.004,2.416,3.886,2.583,3.886
			c10.648,0,15.601,5.738,15.601,15.66c0,6.896-2.583,11.291-8.704,14.302c-1.173,8.875-9.287,15.748-19.129,15.748
			c-5.99,0-11.34-2.544-14.877-6.532c-0.591,0.05-1.189,0.077-1.794,0.077c-10.649,0-19.013-5.048-19.013-14.968
			c0-6.683,2.99-9.973,8.432-13.938c-0.145-0.855-0.75-8.421,1.267-10.437c4.792-4.793,6.963-8.909,11.25-11.038
			c-8.414,3.025-14.385,10.627-14.385,19.536c0,0.147,0.009,0.3,0.012,0.447c-6.787,3.604-11.366,10.396-11.366,18.195
			c0,11.562,10.059,20.938,22.468,20.938c0.707,0,1.403-0.035,2.093-0.098c4.121,4.648,10.356,7.617,17.336,7.617
			c11.469,0,20.924-8.012,22.291-18.354c7.133-3.507,11.997-10.479,11.997-18.521C84.783,130.227,74.724,120.853,62.314,120.853z" style="opacity:0.1;fill:#6E6E96;enable-background:new    ;"></path>
		<path d="M30.336,153.865c0,0,11.635,2.277,11.635,13.662
			c0,0,3.132,19.342-8.976,33.026h27.96c-0.277-0.388-24.422-32.645,2.449-51.815C47.016,158.107,30.336,153.865,30.336,153.865z" style="fill:#EDE3DA;stroke:#CCCCDE;stroke-width:3;"></path>
		<g>
			<path d="M37.703,131.025" style="fill:#D57E58;"></path>
		</g>
		<path d="M56.43,153.833c0,0-17.654,22.793-4.085,46.722h8.611
			C60.955,200.555,43.04,175.518,56.43,153.833z" style="opacity:0.11;fill:#6E6E96;enable-background:new    ;"></path>
	</g>
	<g style="display:inline;">
		<path d="M255,141.26c0-10.828-9.42-19.604-21.04-19.604
			c-0.183,0-0.36,0.008-0.539,0.013c-3.669-5.744-10.396-9.595-18.091-9.595c-11.62,0-21.041,8.777-21.041,19.604
			c0,0.141,0.009,0.279,0.012,0.418c-6.354,3.375-10.644,9.739-10.644,17.043c0,10.825,9.421,19.604,21.04,19.604
			c0.66,0,1.312-0.032,1.96-0.089c3.858,4.354,9.698,7.134,16.233,7.134c10.737,0,19.596-7.499,20.875-17.185
			C250.445,155.316,255,148.786,255,141.26z" style="fill:#D7F7E4;stroke:#CCCCDE;stroke-width:3;"></path>
		<path d="M233.605,120.949c-0.185,0-0.358,0.008-0.539,0.012
			c-2.94-4.606-7.854-7.992-13.646-9.154c4.586,1.15,8.449,3.94,10.822,7.655c0.154-0.004,2.263,3.639,2.419,3.639
			c9.971,0,14.608,5.374,14.608,14.665c0,6.459-2.42,10.573-8.148,13.396c-1.1,8.311-8.698,14.742-17.914,14.742
			c-5.607,0-10.619-2.381-13.934-6.117c-0.558,0.047-1.112,0.072-1.683,0.072c-9.975,0-17.806-4.729-17.806-14.017
			c0-6.258,2.8-9.34,7.896-13.056c-0.139-0.807-0.701-7.885,1.188-9.772c4.484-4.488,6.521-8.343,10.533-10.337
			c-7.879,2.833-13.471,9.952-13.471,18.292c0,0.14,0.006,0.275,0.012,0.418c-6.354,3.373-10.646,9.736-10.646,17.041
			c0,10.824,9.421,19.604,21.041,19.604c0.661,0,1.313-0.032,1.959-0.09c3.859,4.355,9.699,7.135,16.234,7.135
			c10.739,0,19.594-7.5,20.875-17.188c6.68-3.285,11.231-9.812,11.231-17.342C254.646,129.727,245.227,120.949,233.605,120.949z" style="opacity:0.1;fill:#6E6E96;enable-background:new    ;"></path>
		<path d="M203.66,151.861c0,0,10.896,2.133,10.896,12.797
			c0,0,2.934,18.109-8.406,30.927h26.184c-0.26-0.358-22.87-30.565,2.294-48.521C219.279,155.836,203.66,151.861,203.66,151.861z" style="fill:#EDE3DA;stroke:#CCCCDE;stroke-width:3;"></path>
		<g>
			<path d="M210.561,130.477" style="fill:#D57E58;"></path>
		</g>
		<path d="M228.096,151.833c0,0-16.531,21.345-3.824,43.752h8.063
			C232.333,195.585,215.557,172.139,228.096,151.833z" style="opacity:0.11;fill:#6E6E96;enable-background:new    ;"></path>
	</g>
	<g style="display:inline;">
		<path d="M218.298,143.02c0-16.622-14.461-30.095-32.299-30.095
			c-0.278,0-0.554,0.012-0.828,0.019c-5.632-8.817-15.959-14.729-27.771-14.729c-17.838,0-32.301,13.475-32.301,30.096
			c0,0.215,0.014,0.429,0.018,0.646c-9.755,5.182-16.339,14.945-16.339,26.156c0,16.621,14.462,30.098,32.3,30.098
			c1.014,0,2.018-0.05,3.008-0.139c5.926,6.688,14.889,10.951,24.921,10.951c16.489,0,30.081-11.515,32.048-26.379
			C211.307,164.602,218.298,154.572,218.298,143.02z" style="fill:#D7F7E4;stroke:#CCCCDE;stroke-width:3;"></path>
		<path d="M185.456,111.841c-0.276,0-0.552,0.012-0.827,0.019
			c-4.516-7.071-12.051-12.269-20.949-14.052c7.041,1.766,12.971,6.049,16.614,11.751c0.237-0.006,3.474,5.586,3.713,5.586
			c15.308,0,22.429,8.248,22.429,22.511c0,9.914-3.715,16.231-12.513,20.562c-1.687,12.754-13.353,22.635-27.5,22.635
			c-8.61,0-16.302-3.655-21.387-9.396c-0.851,0.071-1.71,0.114-2.58,0.114c-15.31,0-27.332-7.254-27.332-21.516
			c0-9.604,4.298-14.337,12.12-20.039c-0.209-1.234-1.077-12.104,1.82-15.002c6.89-6.89,10.011-12.808,16.174-15.868
			c-12.096,4.349-20.679,15.277-20.679,28.08c0,0.215,0.011,0.429,0.017,0.646c-9.756,5.178-16.34,14.947-16.34,26.156
			c0,16.621,14.461,30.097,32.3,30.097c1.017,0,2.017-0.049,3.008-0.136c5.925,6.688,14.89,10.949,24.922,10.949
			c16.487,0,30.078-11.516,32.046-26.379c10.254-5.043,17.244-15.07,17.244-26.623C217.756,125.314,203.295,111.841,185.456,111.841
			z" style="opacity:0.1;fill:#6E6E96;enable-background:new    ;"></path>
		<path d="M139.484,159.296c0,0,16.727,3.272,16.727,19.644
			c0,0,4.504,27.807-12.904,47.479h40.195c-0.398-0.556-35.107-46.922,3.521-74.483
			C163.464,165.396,139.484,159.296,139.484,159.296z" style="fill:#EDE3DA;stroke:#CCCCDE;stroke-width:3;"></path>
		<g>
			<path d="M150.077,126.465" style="fill:#D57E58;"></path>
		</g>
		<path d="M176.997,159.251c0,0-25.378,32.767-5.873,67.164h12.378
			C183.502,226.415,157.748,190.423,176.997,159.251z" style="opacity:0.11;fill:#6E6E96;enable-background:new    ;"></path>
	</g>
	<g style="display:inline;">
		<path d="M146.461,144.131c0-13.645-11.873-24.707-26.517-24.707
			c-0.229,0-0.454,0.01-0.68,0.016c-4.624-7.239-13.102-12.092-22.8-12.092c-14.644,0-26.518,11.063-26.518,24.707
			c0,0.178,0.012,0.354,0.015,0.529c-8.01,4.251-13.414,12.271-13.414,21.477c0,13.646,11.872,24.707,26.518,24.707
			c0.832,0,1.655-0.041,2.469-0.105c4.864,5.484,12.224,8.984,20.46,8.984c13.537,0,24.695-9.45,26.309-21.652
			C140.721,161.85,146.461,153.617,146.461,144.131z" style="fill:#D7F7E4;stroke:#CCCCDE;stroke-width:3;"></path>
		<path d="M119.498,118.535c-0.228,0-0.452,0.009-0.679,0.015
			c-3.707-5.805-9.894-10.072-17.199-11.537c5.78,1.45,10.648,4.966,13.641,9.647c0.194-0.005,2.851,4.586,3.048,4.586
			c12.567,0,18.414,6.771,18.414,18.48c0,8.139-3.05,13.325-10.271,16.881c-1.384,10.472-10.961,18.584-22.576,18.584
			c-7.069,0-13.384-3.004-17.559-7.715c-0.698,0.061-1.404,0.096-2.118,0.096c-12.568,0-22.438-5.957-22.438-17.664
			c0-7.885,3.528-11.771,9.949-16.452c-0.171-1.015-0.884-9.938,1.496-12.316c5.655-5.657,8.218-10.515,13.277-13.028
			c-9.93,3.571-16.978,12.542-16.978,23.053c0,0.177,0.01,0.353,0.015,0.528c-8.011,4.25-13.415,12.271-13.415,21.477
			c0,13.645,11.873,24.706,26.518,24.706c0.834,0,1.655-0.04,2.469-0.108c4.864,5.488,12.224,8.988,20.461,8.988
			c13.536,0,24.693-9.451,26.311-21.656c8.418-4.141,14.158-12.371,14.158-21.854C146.016,129.598,134.143,118.535,119.498,118.535z" style="opacity:0.1;fill:#6E6E96;enable-background:new    ;"></path>
		<path d="M81.757,157.494c0,0,13.731,2.688,13.731,16.128
			c0,0,3.697,22.823-10.595,38.978h33c-0.328-0.455-28.824-38.521,2.89-61.151C101.443,162.502,81.757,157.494,81.757,157.494z" style="fill:#EDE3DA;stroke:#CCCCDE;stroke-width:3;"></path>
		<g>
			<path d="M90.453,130.541" style="fill:#D57E58;"></path>
		</g>
		<path d="M112.553,157.458c0,0-20.835,26.899-4.821,55.142h10.162
			C117.894,212.6,96.75,183.049,112.553,157.458z" style="opacity:0.11;fill:#6E6E96;enable-background:new    ;"></path>
	</g>
	<g style="display:inline;">
		<path d="M253.684,168.268c0-12.345-10.74-22.35-23.988-22.35
			c-0.201,0-0.405,0.008-0.609,0.014c-4.188-6.549-11.854-10.938-20.625-10.938c-13.248,0-23.984,10.007-23.984,22.35
			c0,0.161,0.012,0.318,0.014,0.479c-7.244,3.85-12.135,11.104-12.135,19.432c0,12.349,10.735,22.354,23.984,22.354
			c0.753,0,1.497-0.039,2.229-0.104c4.4,4.97,11.062,8.136,18.513,8.136c12.245,0,22.339-8.554,23.799-19.594
			C248.49,184.295,253.684,176.85,253.684,168.268z" style="fill:#D7F7E4;stroke:#CCCCDE;stroke-width:3;"></path>
		<path d="M229.292,145.111c-0.206,0-0.409,0.011-0.614,0.016
			c-3.354-5.251-8.949-9.111-15.558-10.438c5.229,1.312,9.633,4.492,12.339,8.728c0.175-0.004,2.579,4.149,2.757,4.149
			c11.368,0,16.655,6.123,16.655,16.718c0,7.362-2.757,12.055-9.291,15.271c-1.252,9.473-9.915,16.813-20.423,16.813
			c-6.396,0-12.106-2.72-15.884-6.979c-0.631,0.055-1.271,0.086-1.916,0.086c-11.368,0-20.299-5.389-20.299-15.979
			c0-7.135,3.188-10.646,9.002-14.885c-0.156-0.918-0.805-8.987,1.353-11.142c5.116-5.116,7.435-9.514,12.011-11.784
			c-8.98,3.229-15.357,11.346-15.357,20.854c0,0.158,0.014,0.316,0.018,0.479c-7.246,3.847-12.139,11.104-12.139,19.429
			c0,12.344,10.738,22.351,23.988,22.351c0.754,0,1.496-0.034,2.231-0.101c4.401,4.967,11.06,8.133,18.509,8.133
			c12.245,0,22.338-8.554,23.799-19.593c7.615-3.742,12.812-11.19,12.812-19.771C253.279,155.118,242.541,145.111,229.292,145.111z" style="opacity:0.1;fill:#6E6E96;enable-background:new    ;"></path>
		<path d="M195.15,180.355c0,0,12.422,2.431,12.422,14.588
			c0,0,3.345,20.646-9.584,35.259h29.853c-0.296-0.41-26.073-34.847,2.615-55.317C212.96,184.887,195.15,180.355,195.15,180.355z" style="fill:#EDE3DA;stroke:#CCCCDE;stroke-width:3;"></path>
		<g>
			<path d="M203.018,155.975" style="fill:#D57E58;"></path>
		</g>
		<path d="M223.01,180.322c0,0-18.847,24.334-4.361,49.88h9.192
			C227.841,230.202,208.714,203.473,223.01,180.322z" style="opacity:0.11;fill:#6E6E96;enable-background:new    ;"></path>
	</g>
	<g style="display:inline;">
		<path d="M89.418,166.416c0-13.111-11.408-23.738-25.479-23.738
			c-0.22,0-0.436,0.008-0.653,0.014c-4.443-6.954-12.589-11.613-21.907-11.613c-14.071,0-25.48,10.629-25.48,23.736
			c0,0.17,0.011,0.336,0.015,0.507c-7.695,4.086-12.889,11.795-12.889,20.641c0,13.106,11.407,23.736,25.479,23.736
			c0.8,0,1.59-0.041,2.372-0.104c4.674,5.271,11.745,8.639,19.659,8.639c13.007,0,23.729-9.082,25.279-20.81
			C83.903,183.439,89.418,175.531,89.418,166.416z" style="fill:#D7F7E4;stroke:#CCCCDE;stroke-width:3;"></path>
		<path d="M63.511,141.822c-0.219,0-0.435,0.01-0.652,0.015
			c-3.562-5.577-9.506-9.678-16.525-11.085c5.553,1.393,10.231,4.771,13.106,9.27c0.186-0.004,2.739,4.406,2.928,4.406
			c12.076,0,17.692,6.506,17.692,17.758c0,7.82-2.929,12.806-9.87,16.222c-1.33,10.063-10.531,17.854-21.693,17.854
			c-6.792,0-12.859-2.886-16.871-7.412c-0.67,0.058-1.348,0.092-2.035,0.092c-12.076,0-21.561-5.723-21.561-16.975
			c0-7.574,3.391-11.308,9.561-15.807c-0.165-0.975-0.85-9.549,1.437-11.836c5.435-5.434,7.896-10.103,12.758-12.516
			c-9.541,3.43-16.313,12.051-16.313,22.146c0,0.17,0.01,0.338,0.014,0.508c-7.696,4.084-12.889,11.792-12.889,20.64
			c0,13.105,11.407,23.734,25.479,23.734c0.801,0,1.591-0.039,2.373-0.104c4.674,5.271,11.745,8.639,19.659,8.639
			c13.006,0,23.728-9.081,25.278-20.809c8.089-3.979,13.604-11.893,13.604-21.002C88.991,152.449,77.583,141.822,63.511,141.822z" style="opacity:0.1;fill:#6E6E96;enable-background:new    ;"></path>
		<path d="M27.248,179.256c0,0,13.193,2.583,13.193,15.496
			c0,0,3.553,21.932-10.179,37.45h31.707c-0.314-0.437-27.694-37.015,2.777-58.759C46.163,184.066,27.248,179.256,27.248,179.256z" style="fill:#EDE3DA;stroke:#CCCCDE;stroke-width:3;"></path>
		<g>
			<path d="M35.603,153.357" style="fill:#D57E58;"></path>
		</g>
		<path d="M56.838,179.221c0,0-20.02,25.848-4.633,52.981h9.764
			C61.969,232.202,41.654,203.811,56.838,179.221z" style="opacity:0.11;fill:#6E6E96;enable-background:new    ;"></path>
	</g>
</g>
<g style="opacity:0.19;enable-background:new    ;">
	<path d="M181.021,131.354c-14.875,30.063-29.301-63.501-55.152-63.501
		c-39.147,0-21.355,109.305-81.848,51.502c-18.077-17.273-33.719-0.206-39.155,13.605c-1.042,4.929-1.595,10.038-1.595,15.275
		c0,40.699,33.073,73.689,73.872,73.689c2.319,0,4.612-0.119,6.878-0.326c13.551,16.375,34.051,26.813,56.999,26.813
		c37.711,0,68.793-28.192,73.289-64.597c15.762-8.299,28.145-22.117,34.574-38.873C223.695,111.208,210.001,72.783,181.021,131.354z" style="fill:#6E6E96;"></path>
</g>
<g>
	<path d="M184.333,224.928c-11.815-33.438-47.545-57.738-89.788-57.738s-77.971,24.304-89.789,57.738" style="fill:#FFF0AD;"></path>
	<path d="M184.333,226.428c-0.618,0-1.196-0.385-1.414-1c-5.676-16.062-17.356-30.5-32.891-40.652
		c-16.1-10.523-35.286-16.086-55.483-16.086c-20.197,0-39.382,5.562-55.483,16.087c-15.533,10.153-27.214,24.59-32.892,40.651
		c-0.275,0.78-1.133,1.189-1.914,0.914c-0.781-0.276-1.19-1.133-0.914-1.914c5.895-16.678,17.998-31.651,34.079-42.163
		c16.59-10.844,36.343-16.575,57.125-16.575c20.782,0,40.535,5.731,57.125,16.574c16.081,10.511,28.184,25.485,34.077,42.164
		c0.276,0.781-0.133,1.639-0.914,1.914C184.668,226.4,184.499,226.428,184.333,226.428z" style="fill:#6E6E96;"></path>
</g>
<g style="opacity:0.14;enable-background:new    ;">
	<path d="M94.545,165.727c-2.713,0-5.397,0.104-8.052,0.299c-16.138,2.367-34.463,7.502-51.109,17.985
		c1.397-0.854,27.481-11.083,60.7-11.083c0,0-40.515,11.723-59.929,50.536h58.194l33.421-52.462
		C117.439,167.598,106.244,165.727,94.545,165.727z M35.384,184.011c-0.034,0.021-0.068,0.042-0.102,0.063
		C35.283,184.073,35.324,184.048,35.384,184.011z" style="fill:#6E6E96;"></path>
	<path d="M94.624,223.964H35.346l0.362-0.724c16.243-32.475,47.557-46.19,57.284-49.783
		c-31.157,0.594-55.642,9.94-57.347,10.979l-0.094,0.06l-0.623-0.775l0.148-0.108l0.479,0.682l-0.438-0.706
		c14.466-9.11,31.727-15.186,51.303-18.058c2.744-0.203,5.465-0.304,8.125-0.304c11.477,0,22.708,1.783,33.381,5.301l0.611,0.201
		L94.624,223.964z M36.968,222.964h57.106l32.927-51.687c-12.845-4.144-26.436-5.791-40.472-4.753
		c-17.113,2.511-32.458,7.495-45.685,14.837c9.728-3.294,30.667-8.934,55.239-8.934l0.139,0.98
		C95.822,173.524,56.198,185.374,36.968,222.964z" style="fill:#6E6E96;"></path>
</g>
<g>
	<g>
		<polygon points="92.313,201.445 133.659,119.129 177.49,196.02" style="fill:#ACC1D4;"></polygon>
		<path d="M92.312,202.945c-0.501,0-0.972-0.251-1.25-0.673c-0.296-0.447-0.331-1.021-0.089-1.5
			l41.346-82.317c0.249-0.494,0.749-0.812,1.302-0.826c0.556-0.016,1.069,0.276,1.342,0.757l43.831,76.89
			c0.257,0.45,0.263,1,0.018,1.455c-0.246,0.455-0.709,0.752-1.225,0.785l-85.178,5.426
			C92.376,202.944,92.345,202.945,92.312,202.945z M133.743,122.304l-38.916,77.478l80.17-5.107L133.743,122.304z" style="fill:#6E6E96;"></path>
	</g>
	<g>
		<polygon points="118.603,199.771 170.561,96.327 225.641,192.952" style="fill:#ACC1D4;"></polygon>
		<path d="M118.603,201.271c-0.501,0-0.972-0.251-1.25-0.672c-0.296-0.448-0.331-1.021-0.089-1.501
			L169.22,95.654c0.249-0.494,0.749-0.812,1.302-0.826c0.557-0.008,1.069,0.277,1.342,0.757l55.08,96.625
			c0.257,0.45,0.263,1,0.018,1.455c-0.246,0.455-0.709,0.752-1.225,0.785l-107.038,6.819
			C118.667,201.271,118.634,201.271,118.603,201.271z M170.645,99.502l-49.527,98.606l102.03-6.5L170.645,99.502z" style="fill:#6E6E96;"></path>
	</g>
	<g style="opacity:0.22;enable-background:new    ;">
		<polygon points="118.964,199.029 225.641,192.952 179.432,111.888 206.941,185.309 161.552,181.834 
			173.75,143.465 145.521,179.514 170.561,96.327" style="fill:#6E6E96;"></polygon>
		<path d="M118.129,199.578l51.984-103.476l0.926,0.369l-24.272,80.642l26.59-33.957l0.87,0.46
			l-12.007,37.768l43.979,3.366l-27.234-72.687l0.902-0.423l46.608,81.765L118.129,199.578z M168.422,101.698l-48.623,96.782
			l105.008-5.981l-42.713-74.932l25.591,68.3l-46.801-3.583l11.549-36.326l-26.518,33.864l-0.872-0.453L168.422,101.698z" style="fill:#6E6E96;"></path>
	</g>
	<g style="opacity:0.22;enable-background:new    ;">
		<polygon points="118.999,199.582 92.313,201.445 133.659,119.129 103.743,193.871 113.632,193.24 
			146.379,144.457" style="fill:#6E6E96;"></polygon>
		<path d="M91.472,202.005l41.74-83.101l0.911,0.411l-29.622,74.006l8.853-0.564l32.61-48.578l0.863,0.501
			l-27.508,55.381l-0.286,0.021L91.472,202.005z M128.812,129.892l-35.659,70.994l25.525-1.782l23.841-48l-28.61,42.62
			l-10.925,0.697L128.812,129.892z" style="fill:#6E6E96;"></path>
	</g>
</g>
<g>
	<path d="M248.98,226.928c-11.816-33.438-47.547-57.738-89.789-57.738s-77.97,24.304-89.79,57.738" style="fill:#FFD9BD;"></path>
	<path d="M69.402,228.428c-0.166,0-0.334-0.027-0.5-0.086c-0.781-0.276-1.19-1.133-0.914-1.914
		c5.896-16.678,17.999-31.651,34.08-42.163c16.59-10.844,36.344-16.575,57.124-16.575c20.781,0,40.535,5.731,57.125,16.574
		c16.082,10.511,28.185,25.485,34.078,42.164c0.276,0.781-0.133,1.639-0.914,1.914c-0.778,0.277-1.638-0.134-1.914-0.914
		c-5.677-16.062-17.357-30.5-32.892-40.652c-16.101-10.523-35.286-16.086-55.483-16.086c-20.196,0-39.382,5.562-55.483,16.087
		c-15.533,10.153-27.214,24.59-32.893,40.651C70.599,228.043,70.02,228.428,69.402,228.428z" style="fill:#6E6E96;"></path>
</g>
<g style="opacity:0.27;enable-background:new    ;">
	<path d="M149.743,169.615c-38.05,3.313-69.415,26.402-80.34,57.312h21.696
		c0.207-0.345,0.317-0.535,0.317-0.535s11.333-50,65.333-50s73.326,50.535,73.326,50.535S212.988,173.207,149.743,169.615z" style="fill:#FFFFFF;"></path>
</g>
<g style="opacity:0.15;enable-background:new    ;">
	<path d="M159.191,169.189c-3.191,0-6.342,0.153-9.451,0.426c38.048,3.313,69.412,26.402,80.336,57.312
		h18.904C237.164,193.49,201.436,169.189,159.191,169.189z" style="fill:#6E6E96;"></path>
</g>
<path d="M194.75,73.559h-27c-0.828,0-1.5-0.671-1.5-1.5s0.672-1.5,1.5-1.5h27c0.828,0,1.5,0.671,1.5,1.5
	S195.578,73.559,194.75,73.559z" style="fill:#FFFFFF;"></path>
<path d="M178.083,65.892h-18c-0.828,0-1.5-0.671-1.5-1.5s0.672-1.5,1.5-1.5h18c0.828,0,1.5,0.671,1.5,1.5
	S178.911,65.892,178.083,65.892z" style="fill:#FFFFFF;"></path>
<path d="M84.083,102.559H61.417c-0.829,0-1.5-0.671-1.5-1.5s0.671-1.5,1.5-1.5h22.666
	c0.829,0,1.5,0.671,1.5,1.5S84.912,102.559,84.083,102.559z" style="fill:#FFFFFF;"></path>
<path d="M75.417,93.892H52.083c-0.829,0-1.5-0.671-1.5-1.5s0.671-1.5,1.5-1.5h23.334
	c0.829,0,1.5,0.671,1.5,1.5S76.246,93.892,75.417,93.892z" style="fill:#FFFFFF;"></path>
<path d="M104.75,43.892H80.083c-0.829,0-1.5-0.671-1.5-1.5s0.671-1.5,1.5-1.5h24.667
	c0.829,0,1.5,0.671,1.5,1.5S105.579,43.892,104.75,43.892z" style="fill:#FFFFFF;"></path>
<g>
	<path d="M54.572,51.706c0-0.085,0.008-0.167,0.008-0.254c0-8.917-7.869-16.152-17.579-16.152
		c-8.354,0-15.348,5.359-17.13,12.544c-0.275-0.021-0.553-0.033-0.832-0.033c-5.776,0-10.458,4.303-10.458,9.608
		c0,1.137,0.219,2.229,0.613,3.237c-1.621,2.104-2.577,4.678-2.577,7.449c0,7.034,6.122,12.751,13.735,12.903v0.007h27.006
		c9.259,0,16.763-6.897,16.763-15.406C64.125,59.479,60.221,54.184,54.572,51.706z" style="fill:#FFFFFF;"></path>
	<path d="M47.358,82.515H20.352c-0.063,0-0.125-0.004-0.187-0.012C11.853,82.26,5.117,75.831,5.117,68.105
		c0-2.75,0.829-5.395,2.405-7.698c-0.293-0.971-0.441-1.973-0.441-2.988c0-6.035,5.208-10.961,11.668-11.104
		C21.167,38.887,28.495,33.8,37.001,33.8c10.267,0,18.665,7.542,19.064,16.952c5.84,2.938,9.56,8.672,9.556,14.858
		C65.621,74.931,57.428,82.515,47.358,82.515z M20.501,79.515h26.857c8.416,0,15.263-6.238,15.263-13.906
		c0.003-5.305-3.393-10.222-8.652-12.529c-0.545-0.239-0.897-0.778-0.897-1.374l0.006-0.2C53.08,43.373,45.867,36.8,37.001,36.8
		c-7.443,0-14.035,4.796-15.674,11.405c-0.176,0.709-0.845,1.189-1.567,1.135c-0.238-0.018-0.479-0.028-0.721-0.028
		c-4.939,0-8.958,3.637-8.958,8.108c0,0.92,0.171,1.826,0.51,2.691c0.191,0.49,0.112,1.044-0.208,1.461
		c-1.482,1.923-2.265,4.182-2.265,6.533c0,6.153,5.502,11.268,12.265,11.403C20.422,79.509,20.461,79.511,20.501,79.515z" style="fill:#6E6E96;"></path>
</g>
<g>
	<path d="M244.055,69.297c0-0.063,0.006-0.124,0.006-0.188c0-6.607-5.83-11.968-13.024-11.968
		c-6.19,0-11.372,3.971-12.693,9.294c-0.204-0.016-0.409-0.024-0.616-0.024c-4.279,0-7.748,3.188-7.748,7.119
		c0,0.842,0.162,1.651,0.453,2.398c-1.201,1.56-1.908,3.466-1.908,5.521c0,5.212,4.535,9.448,10.178,9.561v0.005h20.01
		c6.859,0,12.421-5.111,12.421-11.416C251.133,75.057,248.239,71.133,244.055,69.297z" style="fill:#FFFFFF;"></path>
	<path d="M238.711,92.515h-20.01c-0.057,0-0.111-0.003-0.166-0.009c-6.36-0.195-11.512-5.128-11.512-11.057
		c0-2.058,0.602-4.037,1.746-5.772c-0.193-0.7-0.291-1.419-0.291-2.146c0-4.597,3.882-8.365,8.751-8.607
		c1.927-5.521,7.434-9.282,13.807-9.282c7.732,0,14.073,5.632,14.501,12.705c4.341,2.272,7.096,6.594,7.095,11.253
		C252.632,86.721,246.387,92.515,238.711,92.515z M218.828,89.515h19.883c6.021,0,10.921-4.448,10.921-9.916
		c0.001-3.777-2.425-7.281-6.18-8.929c-0.545-0.239-0.897-0.778-0.897-1.374c0-0.023,0.004-0.14,0.005-0.164
		c0.001-5.796-5.169-10.492-11.523-10.492c-5.339,0-10.064,3.43-11.237,8.155c-0.177,0.712-0.831,1.197-1.574,1.134
		c-0.165-0.013-0.331-0.019-0.498-0.019c-3.445,0-6.248,2.521-6.248,5.619c0,0.632,0.118,1.256,0.351,1.854
		c0.191,0.489,0.111,1.043-0.209,1.459c-1.045,1.356-1.597,2.948-1.597,4.605c0,4.349,3.906,7.965,8.708,8.061
		C218.764,89.511,218.797,89.512,218.828,89.515z" style="fill:#6E6E96;"></path>
</g>
</svg>
