<?xml version="1.0" standalone="no"?><!DOCTYPE svg PUBLIC "-//W3C//DTD SVG 1.1//EN" "http://www.w3.org/Graphics/SVG/1.1/DTD/svg11.dtd"><svg t="1664071109859" class="icon" viewBox="0 0 1024 1024" version="1.1" xmlns="http://www.w3.org/2000/svg" p-id="941" xmlns:xlink="http://www.w3.org/1999/xlink" width="200" height="200"><path d="M192 160a32 32 0 0 1 32-32h576a32 32 0 0 1 32 32v704a32 32 0 0 1-32 32H224a32 32 0 0 1-32-32V160z m64 32v640h512V192H256z" fill="#222831" p-id="942"></path><path d="M320 160a32 32 0 0 1 32-32h320a32 32 0 0 1 32 32v128a32 32 0 0 1-32 32H352a32 32 0 0 1-32-32V160z m64 32v64h256V192h-256zM288 416c0-17.664 15.424-32 34.464-32h379.072c19.04 0 34.464 14.336 34.464 32s-15.424 32-34.464 32H322.464C303.424 448 288 433.664 288 416zM576 640a32 32 0 0 1 32-32h96a32 32 0 1 1 0 64h-96a32 32 0 0 1-32-32zM576 544a32 32 0 0 1 32-32h96a32 32 0 1 1 0 64h-96a32 32 0 0 1-32-32zM576 736a32 32 0 0 1 32-32h96a32 32 0 1 1 0 64h-96a32 32 0 0 1-32-32z" fill="#222831" p-id="943"></path><path d="M288 512a32 32 0 0 1 32-32h192a32 32 0 0 1 32 32v256a32 32 0 0 1-32 32h-192a32 32 0 0 1-32-32v-256z m64 32v192h128v-192h-128z" fill="#42b983" p-id="944"></path></svg>