<svg xml:space="preserve" style="enable-background:new 0 0 256.5 253.117;" viewBox="0 0 256.5 253.117" height="253.117px" width="256.5px" y="0px" x="0px" xmlns:xlink="http://www.w3.org/1999/xlink" xmlns="http://www.w3.org/2000/svg" id="Layer_1" version="1.1">
<g id="Layer_1_1_">
	<path d="M253.479,119.326c0-40.701-33.074-73.693-73.871-73.693c-0.635,0-1.262,0.029-1.893,0.046
		c-12.881-21.591-36.498-36.067-63.514-36.067c-40.798,0-73.871,32.995-73.871,73.696c0,0.529,0.029,1.049,0.04,1.576
		C18.056,97.563,3,121.491,3,148.941c0,40.699,33.073,73.688,73.872,73.688c2.32,0,4.612-0.118,6.878-0.325
		c13.551,16.375,34.051,26.813,56.998,26.813c37.711,0,68.793-28.192,73.289-64.596
		C237.488,172.174,253.479,147.618,253.479,119.326z" style="fill:#D6F0FF;"></path>
	<g style="display:none;" id="Layer_3_1_">
		<g style="display:inline;">
			<g>
				<path d="M85.16,142.542c0-11.563-10.059-20.936-22.467-20.936c-0.194,0-0.385,0.009-0.576,0.014
					c-3.917-6.134-11.102-10.245-19.318-10.245c-12.409,0-22.469,9.372-22.469,20.936c0,0.149,0.009,0.297,0.012,0.446
					c-6.785,3.603-11.365,10.399-11.365,18.198c0,11.562,10.059,20.934,22.468,20.934c0.705,0,1.403-0.033,2.092-0.094
					c4.122,4.65,10.358,7.617,17.335,7.617c11.471,0,20.925-8.01,22.293-18.35C80.297,157.555,85.16,150.579,85.16,142.542z" style="fill:#D7F7E4;"></path>
				<path d="M50.872,180.912c-6.895,0-13.393-2.749-17.95-7.568c-0.499,0.03-0.993,0.045-1.477,0.045
					c-13.216,0-23.968-10.063-23.968-22.434c0-7.768,4.328-14.997,11.357-19.076c0.247-12.173,10.902-22.004,23.964-22.004
					c8.091,0,15.716,3.9,20.112,10.232c13.116,0.11,23.749,10.131,23.749,22.435c0,8.109-4.626,15.515-12.127,19.506
					C72.687,172.857,62.662,180.912,50.872,180.912z M34.159,170.234l0.501,0.565c4.006,4.52,9.916,7.112,16.212,7.112
					c10.575,0,19.52-7.328,20.806-17.046l0.105-0.796l0.72-0.354c6.882-3.385,11.157-9.966,11.157-17.175
					c0-10.717-9.406-19.436-20.967-19.436c-0.115,0-0.229,0.004-0.344,0.008l-1.041,0.027l-0.456-0.714
					c-3.763-5.892-10.68-9.552-18.054-9.552c-11.562,0-20.969,8.719-20.969,19.436l0.029,1.339l-0.814,0.433
					c-6.519,3.461-10.568,9.927-10.568,16.873c0,10.716,9.406,19.434,20.968,19.434c0.637,0,1.296-0.029,1.961-0.088L34.159,170.234
					z" style="fill:#CCCCDE;"></path>
			</g>
			<path d="M62.314,120.853c-0.193,0-0.384,0.009-0.575,0.014
				c-3.141-4.918-8.383-8.534-14.573-9.775c4.898,1.229,9.023,4.208,11.558,8.175c0.165-0.004,2.416,3.886,2.583,3.886
				c10.648,0,15.601,5.738,15.601,15.66c0,6.896-2.583,11.291-8.704,14.302c-1.173,8.875-9.287,15.748-19.129,15.748
				c-5.99,0-11.34-2.544-14.877-6.532c-0.591,0.05-1.189,0.077-1.794,0.077c-10.649,0-19.013-5.048-19.013-14.968
				c0-6.683,2.99-9.973,8.432-13.938c-0.145-0.855-0.75-8.421,1.267-10.437c4.792-4.793,6.963-8.909,11.25-11.038
				c-8.414,3.025-14.385,10.627-14.385,19.536c0,0.147,0.009,0.3,0.012,0.447c-6.787,3.604-11.366,10.396-11.366,18.195
				c0,11.562,10.059,20.938,22.468,20.938c0.707,0,1.403-0.035,2.093-0.098c4.121,4.648,10.356,7.617,17.336,7.617
				c11.469,0,20.924-8.012,22.291-18.354c7.133-3.507,11.997-10.479,11.997-18.521C84.783,130.227,74.724,120.853,62.314,120.853z" style="opacity:0.1;fill:#6E6E96;enable-background:new    ;"></path>
			<g>
				<path d="M30.336,153.865c0,0,11.635,2.277,11.635,13.662c0,0,3.132,19.342-8.976,33.026h27.96
					c-0.277-0.388-24.422-32.645,2.449-51.815C47.016,158.107,30.336,153.865,30.336,153.865z" style="fill:#EDE3DA;"></path>
				<path d="M60.955,202.054h-31.29l2.207-2.494c11.477-12.972,8.648-31.607,8.619-31.794l-0.019-0.238
					c0-9.079-8.398-11.683-10.144-12.124c-0.238-0.053-0.362-0.084-0.362-0.084l0.658-2.926c0,0,0.139,0.026,0.39,0.089
					c0.935,0.203,4.231,0.841,8.802,0.841c5.724,0,14.333-1.021,22.844-5.887l1.616,2.522c-6.628,4.729-10.564,10.705-11.7,17.761
					c-2.417,15.015,8.334,30.231,9.568,31.917l1.747,2.387L60.955,202.054z M36.13,199.054h21.997
					c-3.446-5.396-10.643-18.585-8.514-31.811c0.804-4.997,2.848-9.495,6.099-13.446c-6.069,2.011-11.71,2.526-15.896,2.526
					c-0.463,0-0.915-0.006-1.352-0.018c2.655,2.276,4.974,5.786,5.007,11.104C43.731,169.146,45.9,185.741,36.13,199.054z" style="fill:#CCCCDE;"></path>
			</g>
			<g>
				<path d="M37.703,131.025" style="fill:#D57E58;"></path>
			</g>
			<path d="M56.43,153.833c0,0-17.654,22.793-4.085,46.722h8.611
				C60.955,200.555,43.04,175.518,56.43,153.833z" style="opacity:0.11;fill:#6E6E96;enable-background:new    ;"></path>
		</g>
		<g style="display:inline;">
			<g>
				<path d="M255,141.26c0-10.828-9.42-19.604-21.04-19.604c-0.183,0-0.36,0.008-0.539,0.013
					c-3.669-5.744-10.396-9.595-18.091-9.595c-11.62,0-21.041,8.777-21.041,19.604c0,0.141,0.009,0.279,0.012,0.418
					c-6.354,3.375-10.644,9.739-10.644,17.043c0,10.825,9.421,19.604,21.04,19.604c0.66,0,1.312-0.032,1.96-0.089
					c3.858,4.354,9.698,7.134,16.233,7.134c10.737,0,19.596-7.499,20.875-17.185C250.445,155.316,255,148.786,255,141.26z" style="fill:#D7F7E4;"></path>
				<path d="M222.891,177.288c-6.467,0-12.563-2.573-16.848-7.085c-0.458,0.027-0.902,0.04-1.346,0.04
					c-12.429,0-22.54-9.468-22.54-21.104c0-7.289,4.053-14.077,10.637-17.92c0.262-11.426,10.271-20.646,22.536-20.646
					c7.59,0,14.745,3.652,18.885,9.583c12.312,0.128,22.285,9.545,22.285,21.103c0,7.612-4.335,14.567-11.367,18.328
					C243.377,169.733,233.962,177.288,222.891,177.288z M207.279,167.094l0.501,0.565c3.733,4.213,9.241,6.629,15.11,6.629
					c9.857,0,18.192-6.827,19.388-15.881l0.105-0.795l0.72-0.354c6.413-3.156,10.396-9.286,10.396-15.998
					c0-9.982-8.766-18.104-19.54-18.104c-0.117,0-0.231,0.004-0.346,0.007l-1.001,0.028l-0.456-0.715
					c-3.508-5.491-9.955-8.902-16.827-8.902c-10.775,0-19.541,8.122-19.541,18.104l0.031,1.31l-0.815,0.433
					c-6.074,3.227-9.848,9.25-9.848,15.719c0,9.982,8.766,18.104,19.54,18.104c0.591,0,1.189-0.027,1.829-0.083L207.279,167.094z" style="fill:#CCCCDE;"></path>
			</g>
			<path d="M233.605,120.949c-0.185,0-0.358,0.008-0.539,0.012
				c-2.94-4.606-7.854-7.992-13.646-9.154c4.586,1.15,8.449,3.94,10.822,7.655c0.154-0.004,2.263,3.639,2.419,3.639
				c9.971,0,14.608,5.374,14.608,14.665c0,6.459-2.42,10.573-8.148,13.396c-1.1,8.311-8.698,14.742-17.914,14.742
				c-5.607,0-10.619-2.381-13.934-6.117c-0.558,0.047-1.112,0.072-1.683,0.072c-9.975,0-17.806-4.729-17.806-14.017
				c0-6.258,2.8-9.34,7.896-13.056c-0.139-0.807-0.701-7.885,1.188-9.772c4.484-4.488,6.521-8.343,10.533-10.337
				c-7.879,2.833-13.471,9.952-13.471,18.292c0,0.14,0.006,0.275,0.012,0.418c-6.354,3.373-10.646,9.736-10.646,17.041
				c0,10.824,9.421,19.604,21.041,19.604c0.661,0,1.313-0.032,1.959-0.09c3.859,4.355,9.699,7.135,16.234,7.135
				c10.739,0,19.594-7.5,20.875-17.188c6.68-3.285,11.231-9.812,11.231-17.342C254.646,129.727,245.227,120.949,233.605,120.949z" style="opacity:0.1;fill:#6E6E96;enable-background:new    ;"></path>
			<g>
				<path d="M203.66,151.861c0,0,10.896,2.133,10.896,12.797c0,0,2.934,18.109-8.406,30.927h26.184
					c-0.26-0.358-22.87-30.565,2.294-48.521C219.279,155.836,203.66,151.861,203.66,151.861z" style="fill:#EDE3DA;"></path>
				<path d="M232.334,197.085H202.82l2.207-2.494c10.744-12.145,8.077-29.519,8.049-29.692l-0.02-0.24
					c0-8.432-7.802-10.853-9.426-11.264c-0.225-0.05-0.341-0.08-0.341-0.08l0.658-2.925c0,0,0.132,0.024,0.369,0.084
					c0.876,0.19,3.955,0.786,8.226,0.786c5.348,0,13.39-0.954,21.341-5.498l1.615,2.523c-6.195,4.421-9.87,10.006-10.924,16.602
					c-2.247,14.071,7.8,28.223,8.952,29.79l1.758,2.389L232.334,197.085z M209.273,194.085h20.232
					c-3.271-5.141-9.861-17.346-7.893-29.672c0.735-4.605,2.589-8.76,5.534-12.422c-5.576,1.803-10.748,2.269-14.604,2.269
					c-0.344,0-0.681-0.004-1.009-0.011c2.417,2.149,4.489,5.412,4.522,10.291C216.305,166.203,218.305,181.631,209.273,194.085z" style="fill:#CCCCDE;"></path>
			</g>
			<g>
				<path d="M210.561,130.477" style="fill:#D57E58;"></path>
			</g>
			<path d="M228.096,151.833c0,0-16.531,21.345-3.824,43.752h8.063
				C232.333,195.585,215.557,172.139,228.096,151.833z" style="opacity:0.11;fill:#6E6E96;enable-background:new    ;"></path>
		</g>
		<g style="display:inline;">
			<g>
				<path d="M218.298,143.02c0-16.622-14.461-30.095-32.299-30.095c-0.278,0-0.554,0.012-0.828,0.019
					c-5.632-8.817-15.959-14.729-27.771-14.729c-17.838,0-32.301,13.475-32.301,30.096c0,0.215,0.014,0.429,0.018,0.646
					c-9.755,5.182-16.339,14.945-16.339,26.156c0,16.621,14.462,30.098,32.3,30.098c1.014,0,2.018-0.05,3.008-0.139
					c5.926,6.688,14.889,10.951,24.921,10.951c16.489,0,30.081-11.515,32.048-26.379
					C211.307,164.602,218.298,154.572,218.298,143.02z" style="fill:#D7F7E4;"></path>
				<path d="M169.007,197.523c-9.839,0-19.102-3.963-25.537-10.897c-0.812,0.057-1.614,0.085-2.392,0.085
					c-18.638,0-33.8-14.175-33.8-31.598c0-11.043,6.23-21.32,16.322-27.035c0.134-17.315,15.246-31.363,33.8-31.363
					c11.535,0,22.398,5.615,28.566,14.71c0.011,0,0.021,0,0.032,0c18.637,0,33.799,14.173,33.799,31.595
					c0,11.516-6.635,22.026-17.371,27.612C199.969,186.018,185.751,197.523,169.007,197.523z M144.706,183.511l0.503,0.566
					c5.881,6.639,14.556,10.446,23.798,10.446c15.531,0,28.669-10.78,30.561-25.075l0.105-0.796l0.72-0.354
					c10.119-4.978,16.405-14.664,16.405-25.279c0-15.768-13.816-28.595-30.799-28.595c-0.179,0-0.355,0.006-0.532,0.011
					l-1.104,0.028l-0.455-0.713c-5.531-8.658-15.688-14.037-26.507-14.037c-16.983,0-30.801,12.828-30.801,28.596
					c0,0.108,0.004,0.217,0.009,0.325l0.028,1.213l-0.815,0.434c-9.587,5.092-15.543,14.606-15.543,24.831
					c0,15.769,13.817,28.598,30.8,28.598c0.926,0,1.893-0.045,2.874-0.133L144.706,183.511z" style="fill:#CCCCDE;"></path>
			</g>
			<path d="M185.456,111.841c-0.276,0-0.552,0.012-0.827,0.019
				c-4.516-7.071-12.051-12.269-20.949-14.052c7.041,1.766,12.971,6.049,16.614,11.751c0.237-0.006,3.474,5.586,3.713,5.586
				c15.308,0,22.429,8.248,22.429,22.511c0,9.914-3.715,16.231-12.513,20.562c-1.687,12.754-13.353,22.635-27.5,22.635
				c-8.61,0-16.302-3.655-21.387-9.396c-0.851,0.071-1.71,0.114-2.58,0.114c-15.31,0-27.332-7.254-27.332-21.516
				c0-9.604,4.298-14.337,12.12-20.039c-0.209-1.234-1.077-12.104,1.82-15.002c6.89-6.89,10.011-12.808,16.174-15.868
				c-12.096,4.349-20.679,15.277-20.679,28.08c0,0.215,0.011,0.429,0.017,0.646c-9.756,5.178-16.34,14.947-16.34,26.156
				c0,16.621,14.461,30.097,32.3,30.097c1.017,0,2.017-0.049,3.008-0.136c5.925,6.688,14.89,10.949,24.922,10.949
				c16.487,0,30.078-11.516,32.046-26.379c10.254-5.043,17.244-15.07,17.244-26.623
				C217.756,125.314,203.295,111.841,185.456,111.841z" style="opacity:0.1;fill:#6E6E96;enable-background:new    ;"></path>
			<g>
				<path d="M139.484,159.296c0,0,16.727,3.272,16.727,19.644c0,0,4.504,27.807-12.904,47.479h40.195
					c-0.398-0.556-35.107-46.922,3.521-74.483C163.464,165.396,139.484,159.296,139.484,159.296z" style="fill:#EDE3DA;"></path>
				<path d="M183.502,227.919h-43.525l2.207-2.494c16.743-18.922,12.591-45.975,12.547-46.245l-0.02-0.24
					c0-13.557-12.515-17.422-15.086-18.071c-0.336-0.074-0.511-0.118-0.511-0.118l0.658-2.926c0,0,0.192,0.037,0.538,0.123
					c1.35,0.295,6.158,1.228,12.813,1.228c8.306,0,20.799-1.481,33.155-8.542l1.615,2.523c-9.681,6.907-15.431,15.647-17.09,25.977
					c-3.512,21.865,12.087,43.917,13.878,46.359l1.749,2.387L183.502,227.919z M146.496,224.919h34.146
					c-4.573-6.926-15.963-26.566-12.799-46.262c1.264-7.868,4.702-14.865,10.257-20.899c-9.522,3.547-18.479,4.417-24.976,4.417
					c-1.404,0-2.727-0.039-3.958-0.104c4.314,3.1,8.506,8.287,8.545,16.75C158.048,181.028,161.4,205.691,146.496,224.919z" style="fill:#CCCCDE;"></path>
			</g>
			<g>
				<path d="M150.077,126.465" style="fill:#D57E58;"></path>
			</g>
			<path d="M176.997,159.251c0,0-25.378,32.767-5.873,67.164h12.378
				C183.502,226.415,157.748,190.423,176.997,159.251z" style="opacity:0.11;fill:#6E6E96;enable-background:new    ;"></path>
		</g>
		<g style="display:inline;">
			<g>
				<path d="M146.461,144.131c0-13.645-11.873-24.707-26.517-24.707c-0.229,0-0.454,0.01-0.68,0.016
					c-4.624-7.239-13.102-12.092-22.8-12.092c-14.644,0-26.518,11.063-26.518,24.707c0,0.178,0.012,0.354,0.015,0.529
					c-8.01,4.251-13.414,12.271-13.414,21.477c0,13.646,11.872,24.707,26.518,24.707c0.832,0,1.655-0.041,2.469-0.105
					c4.864,5.484,12.224,8.984,20.46,8.984c13.537,0,24.695-9.45,26.309-21.652C140.721,161.85,146.461,153.617,146.461,144.131z" style="fill:#D7F7E4;"></path>
				<path d="M105.994,189.146c-8.109,0-15.748-3.248-21.079-8.938c-0.651,0.039-1.262,0.059-1.85,0.059
					c-15.449,0-28.018-11.757-28.018-26.207c0-9.119,5.111-17.604,13.401-22.354c0.2-14.291,12.691-25.858,28.016-25.858
					c9.509,0,18.468,4.606,23.595,12.076c15.396,0.059,27.902,11.793,27.902,26.207c0,9.511-5.454,18.196-14.288,22.849
					C131.576,179.672,119.825,189.146,105.994,189.146z M86.161,177.107l0.496,0.56c4.779,5.389,11.828,8.479,19.338,8.479
					c12.617,0,23.288-8.748,24.821-20.349l0.105-0.795l0.72-0.354c8.216-4.045,13.32-11.907,13.32-20.518
					c0-12.797-11.223-23.207-25.017-23.207c-0.145,0-0.287,0.005-0.429,0.009l-1.059,0.028L118,120.248
					c-4.492-7.031-12.744-11.399-21.536-11.399c-13.795,0-25.018,10.411-25.018,23.207l0.03,1.423l-0.812,0.432
					c-7.783,4.13-12.617,11.852-12.617,20.151c0,12.797,11.223,23.207,25.018,23.207c0.725,0,1.494-0.033,2.351-0.101
					L86.161,177.107z" style="fill:#CCCCDE;"></path>
			</g>
			<path d="M119.498,118.535c-0.228,0-0.452,0.009-0.679,0.015
				c-3.707-5.805-9.894-10.072-17.199-11.537c5.78,1.45,10.648,4.966,13.641,9.647c0.194-0.005,2.851,4.586,3.048,4.586
				c12.567,0,18.414,6.771,18.414,18.48c0,8.139-3.05,13.325-10.271,16.881c-1.384,10.472-10.961,18.584-22.576,18.584
				c-7.069,0-13.384-3.004-17.559-7.715c-0.698,0.061-1.404,0.096-2.118,0.096c-12.568,0-22.438-5.957-22.438-17.664
				c0-7.885,3.528-11.771,9.949-16.452c-0.171-1.015-0.884-9.938,1.496-12.316c5.655-5.657,8.218-10.515,13.277-13.028
				c-9.93,3.571-16.978,12.542-16.978,23.053c0,0.177,0.01,0.353,0.015,0.528c-8.011,4.25-13.415,12.271-13.415,21.477
				c0,13.645,11.873,24.706,26.518,24.706c0.834,0,1.655-0.04,2.469-0.108c4.864,5.488,12.224,8.988,20.461,8.988
				c13.536,0,24.693-9.451,26.311-21.656c8.418-4.141,14.158-12.371,14.158-21.854C146.016,129.598,134.143,118.535,119.498,118.535
				z" style="opacity:0.1;fill:#6E6E96;enable-background:new    ;"></path>
			<g>
				<path d="M81.757,157.494c0,0,13.731,2.688,13.731,16.128c0,0,3.697,22.823-10.595,38.978h33
					c-0.328-0.455-28.824-38.521,2.89-61.151C101.443,162.502,81.757,157.494,81.757,157.494z" style="fill:#EDE3DA;"></path>
				<path d="M117.893,214.1h-36.33l2.207-2.494c13.636-15.412,10.273-37.523,10.237-37.744l-0.019-0.239
					c0-10.926-10.094-14.049-12.179-14.576c-0.278-0.062-0.422-0.098-0.422-0.098l0.658-2.926c0,0,0.161,0.03,0.451,0.103
					c1.105,0.241,5.025,1.001,10.455,1.001c6.786,0,16.995-1.211,27.088-6.98l1.615,2.523c-7.892,5.632-12.577,12.753-13.924,21.167
					c-2.861,17.866,9.887,35.854,11.351,37.847l1.753,2.388L117.893,214.1z M88.055,211.1h26.991
					c-3.932-6.047-12.823-21.844-10.278-37.738c0.989-6.177,3.596-11.703,7.777-16.517c-7.478,2.623-14.465,3.281-19.595,3.281
					c-0.833,0-1.63-0.017-2.39-0.046c3.334,2.627,6.39,6.832,6.426,13.424C97.28,175.44,99.933,195.348,88.055,211.1z" style="fill:#CCCCDE;"></path>
			</g>
			<g>
				<path d="M90.453,130.541" style="fill:#D57E58;"></path>
			</g>
			<path d="M112.553,157.458c0,0-20.835,26.899-4.821,55.142h10.162
				C117.894,212.6,96.75,183.049,112.553,157.458z" style="opacity:0.11;fill:#6E6E96;enable-background:new    ;"></path>
		</g>
		<g style="display:inline;">
			<g>
				<path d="M253.684,168.268c0-12.345-10.74-22.35-23.988-22.35c-0.201,0-0.405,0.008-0.609,0.014
					c-4.188-6.549-11.854-10.938-20.625-10.938c-13.248,0-23.984,10.007-23.984,22.35c0,0.161,0.012,0.318,0.014,0.479
					c-7.244,3.85-12.135,11.104-12.135,19.432c0,12.349,10.735,22.354,23.984,22.354c0.753,0,1.497-0.039,2.229-0.104
					c4.4,4.97,11.062,8.136,18.513,8.136c12.245,0,22.339-8.554,23.799-19.594C248.49,184.295,253.684,176.85,253.684,168.268z" style="fill:#D7F7E4;"></path>
				<path d="M217.081,209.141c-7.354,0-14.281-2.937-19.127-8.084c-0.555,0.035-1.088,0.053-1.614,0.053
					c-14.052,0-25.484-10.701-25.484-23.854c0-8.272,4.622-15.974,12.125-20.31c0.228-12.967,11.57-23.451,25.48-23.451
					c8.619,0,16.745,4.166,21.42,10.925c13.97,0.093,25.303,10.756,25.303,23.849c0,8.631-4.936,16.519-12.935,20.764
					C240.309,200.551,229.637,209.141,217.081,209.141z M199.189,197.943l0.502,0.567c4.294,4.849,10.632,7.63,17.39,7.63
					c11.341,0,20.933-7.863,22.312-18.29l0.105-0.795l0.719-0.354c7.381-3.639,11.967-10.702,11.967-18.434
					c0-11.496-10.088-20.85-22.488-20.85c-0.146,0-0.292,0.005-0.439,0.009l-0.976,0.028l-0.458-0.716
					c-4.041-6.319-11.46-10.245-19.361-10.245c-12.397,0-22.484,9.354-22.484,20.85l0.024,1.375l-0.807,0.429
					c-6.994,3.717-11.339,10.655-11.339,18.107c0,11.499,10.087,20.854,22.484,20.854c0.669,0,1.354-0.032,2.095-0.099
					L199.189,197.943z" style="fill:#CCCCDE;"></path>
			</g>
			<path d="M229.292,145.111c-0.206,0-0.409,0.011-0.614,0.016
				c-3.354-5.251-8.949-9.111-15.558-10.438c5.229,1.312,9.633,4.492,12.339,8.728c0.175-0.004,2.579,4.149,2.757,4.149
				c11.368,0,16.655,6.123,16.655,16.718c0,7.362-2.757,12.055-9.291,15.271c-1.252,9.473-9.915,16.813-20.423,16.813
				c-6.396,0-12.106-2.72-15.884-6.979c-0.631,0.055-1.271,0.086-1.916,0.086c-11.368,0-20.299-5.389-20.299-15.979
				c0-7.135,3.188-10.646,9.002-14.885c-0.156-0.918-0.805-8.987,1.353-11.142c5.116-5.116,7.435-9.514,12.011-11.784
				c-8.98,3.229-15.357,11.346-15.357,20.854c0,0.158,0.014,0.316,0.018,0.479c-7.246,3.847-12.139,11.104-12.139,19.429
				c0,12.344,10.738,22.351,23.988,22.351c0.754,0,1.496-0.034,2.231-0.101c4.401,4.967,11.06,8.133,18.509,8.133
				c12.245,0,22.338-8.554,23.799-19.593c7.615-3.742,12.812-11.19,12.812-19.771C253.279,155.118,242.541,145.111,229.292,145.111z" style="opacity:0.1;fill:#6E6E96;enable-background:new    ;"></path>
			<g>
				<path d="M195.15,180.355c0,0,12.422,2.431,12.422,14.588c0,0,3.345,20.646-9.584,35.259h29.853
					c-0.296-0.41-26.073-34.847,2.615-55.317C212.96,184.887,195.15,180.355,195.15,180.355z" style="fill:#EDE3DA;"></path>
				<path d="M227.841,231.702h-33.183l2.207-2.494c12.288-13.89,9.258-33.826,9.227-34.026l-0.02-0.238
					c0-9.771-9.034-12.57-10.906-13.045c-0.254-0.056-0.386-0.089-0.386-0.089l0.658-2.926c0,0,0.148,0.028,0.414,0.095
					c0.999,0.218,4.531,0.9,9.425,0.9c6.122,0,15.33-1.092,24.435-6.296l1.615,2.522c-7.106,5.071-11.325,11.482-12.537,19.054
					c-2.579,16.108,8.921,32.332,10.241,34.129l1.754,2.389L227.841,231.702z M201.134,228.702h23.868
					c-3.634-5.641-11.454-19.779-9.175-34.017c0.872-5.444,3.125-10.332,6.725-14.611c-6.594,2.236-12.737,2.805-17.274,2.805
					c-0.6,0-1.179-0.009-1.737-0.026c2.908,2.41,5.497,6.182,5.532,11.973C209.345,196.638,211.695,214.473,201.134,228.702z" style="fill:#CCCCDE;"></path>
			</g>
			<g>
				<path d="M203.018,155.975" style="fill:#D57E58;"></path>
			</g>
			<path d="M223.01,180.322c0,0-18.847,24.334-4.361,49.88h9.192
				C227.841,230.202,208.714,203.473,223.01,180.322z" style="opacity:0.11;fill:#6E6E96;enable-background:new    ;"></path>
		</g>
		<g style="display:inline;">
			<g>
				<path d="M89.418,166.416c0-13.111-11.408-23.738-25.479-23.738c-0.22,0-0.436,0.008-0.653,0.014
					c-4.443-6.954-12.589-11.613-21.907-11.613c-14.071,0-25.48,10.629-25.48,23.736c0,0.17,0.011,0.336,0.015,0.507
					c-7.695,4.086-12.889,11.795-12.889,20.641c0,13.106,11.407,23.736,25.479,23.736c0.8,0,1.59-0.041,2.372-0.104
					c4.674,5.271,11.745,8.639,19.659,8.639c13.007,0,23.729-9.082,25.279-20.81C83.903,183.439,89.418,175.531,89.418,166.416z" style="fill:#D7F7E4;"></path>
				<path d="M50.535,209.732c-7.796,0-15.142-3.122-20.277-8.591c-0.62,0.038-1.198,0.057-1.754,0.057
					c-14.876,0-26.979-11.321-26.979-25.236c0-8.773,4.911-16.938,12.877-21.519c0.213-13.745,12.233-24.865,26.977-24.865
					c9.146,0,17.764,4.424,22.703,11.6c14.81,0.073,26.836,11.367,26.836,25.238c0,9.149-5.242,17.508-13.734,21.992
					C75.152,200.621,63.844,209.732,50.535,209.732z M31.501,198.038l0.497,0.561c4.583,5.169,11.339,8.134,18.537,8.134
					c12.094,0,22.322-8.386,23.792-19.506l0.105-0.795l0.719-0.354c7.875-3.878,12.767-11.412,12.767-19.661
					c0-12.263-10.757-22.238-23.979-22.238c-0.162,0-0.321,0.005-0.48,0.01l-0.98,0.026l-0.457-0.715
					c-4.304-6.736-12.214-10.921-20.643-10.921c-13.223,0-23.98,9.976-23.98,22.236l0.036,1.397l-0.817,0.435
					c-7.459,3.96-12.093,11.361-12.093,19.315c0,12.261,10.757,22.236,23.979,22.236c0.689,0,1.425-0.032,2.251-0.1L31.501,198.038z" style="fill:#CCCCDE;"></path>
			</g>
			<path d="M63.511,141.822c-0.219,0-0.435,0.01-0.652,0.015
				c-3.562-5.577-9.506-9.678-16.525-11.085c5.553,1.393,10.231,4.771,13.106,9.27c0.186-0.004,2.739,4.406,2.928,4.406
				c12.076,0,17.692,6.506,17.692,17.758c0,7.82-2.929,12.806-9.87,16.222c-1.33,10.063-10.531,17.854-21.693,17.854
				c-6.792,0-12.859-2.886-16.871-7.412c-0.67,0.058-1.348,0.092-2.035,0.092c-12.076,0-21.561-5.723-21.561-16.975
				c0-7.574,3.391-11.308,9.561-15.807c-0.165-0.975-0.85-9.549,1.437-11.836c5.435-5.434,7.896-10.103,12.758-12.516
				c-9.541,3.43-16.313,12.051-16.313,22.146c0,0.17,0.01,0.338,0.014,0.508c-7.696,4.084-12.889,11.792-12.889,20.64
				c0,13.105,11.407,23.734,25.479,23.734c0.801,0,1.591-0.039,2.373-0.104c4.674,5.271,11.745,8.639,19.659,8.639
				c13.006,0,23.728-9.081,25.278-20.809c8.089-3.979,13.604-11.893,13.604-21.002C88.991,152.449,77.583,141.822,63.511,141.822z" style="opacity:0.1;fill:#6E6E96;enable-background:new    ;"></path>
			<g>
				<path d="M27.248,179.256c0,0,13.193,2.583,13.193,15.496c0,0,3.553,21.932-10.179,37.45h31.707
					c-0.314-0.437-27.694-37.015,2.777-58.759C46.163,184.066,27.248,179.256,27.248,179.256z" style="fill:#EDE3DA;"></path>
				<path d="M61.969,233.702H26.932l2.207-2.494c13.083-14.784,9.855-36.005,9.821-36.217l-0.019-0.239
					c0-10.454-9.661-13.443-11.658-13.948c-0.266-0.059-0.405-0.094-0.405-0.094l0.658-2.926c0,0,0.155,0.029,0.434,0.099
					c1.061,0.231,4.819,0.96,10.029,0.96c6.514,0,16.314-1.163,26.002-6.701l1.616,2.522c-7.567,5.4-12.06,12.228-13.353,20.293
					c-2.748,17.136,9.488,34.414,10.893,36.328l1.751,2.388L61.969,233.702z M33.418,230.702h25.708
					c-3.81-5.884-12.263-21.012-9.824-36.22c0.941-5.872,3.401-11.134,7.34-15.726c-7.116,2.464-13.756,3.086-18.643,3.086
					c-0.734,0-1.44-0.014-2.115-0.038c3.159,2.54,6.021,6.566,6.057,12.829C42.226,196.521,44.755,215.578,33.418,230.702z" style="fill:#CCCCDE;"></path>
			</g>
			<g>
				<path d="M35.603,153.357" style="fill:#D57E58;"></path>
			</g>
			<path d="M56.838,179.221c0,0-20.02,25.848-4.633,52.981h9.764
				C61.969,232.202,41.654,203.811,56.838,179.221z" style="opacity:0.11;fill:#6E6E96;enable-background:new    ;"></path>
		</g>
	</g>
	<path d="M181.021,131.354C166.146,161.415,143.662,82,117.809,82
		c-39.147,0-30.059,64.059-73.789,37.353c-21.338-13.032-33.719-0.206-39.155,13.605c-1.042,4.929-1.595,10.038-1.595,15.276
		c0,40.699,33.073,73.688,73.872,73.688c2.319,0,4.612-0.119,6.878-0.325c13.551,16.375,34.051,26.812,56.998,26.812
		c37.711,0,68.793-28.192,73.289-64.598c15.762-8.299,28.146-22.116,34.575-38.873C223.695,111.208,210.001,72.783,181.021,131.354z" style="opacity:0.19;fill:#6E6E96;enable-background:new    ;"></path>
	<g>
		<g>
			<path d="M61.443,161.824c0-6.477-5.637-11.727-12.589-11.727c-0.109,0-0.216,0.002-0.323,0.006
				c-2.194-3.437-6.219-5.74-10.823-5.74c-6.954,0-12.59,5.252-12.59,11.729c0,0.082,0.006,0.166,0.007,0.25
				c-3.802,2.019-6.368,5.824-6.368,10.195c0,6.478,5.636,11.728,12.588,11.728c0.395,0,0.786-0.019,1.172-0.052
				c2.309,2.607,5.803,4.267,9.712,4.267c6.427,0,11.724-4.487,12.49-10.279C58.718,170.234,61.443,166.328,61.443,161.824z" style="fill:#BFDBCA;"></path>
			<path d="M42.229,183.98c-3.941,0-7.661-1.531-10.324-4.226c-0.186,0.007-0.373,0.011-0.56,0.011
				c-7.769,0-14.088-5.934-14.088-13.228c0-4.47,2.421-8.635,6.377-11.069c0.348-7.006,6.528-12.605,14.074-12.605
				c4.629,0,9.002,2.181,11.614,5.741c7.553,0.232,13.621,6.073,13.621,13.22c0,4.687-2.611,8.972-6.866,11.357
				C54.851,179.391,49.041,183.98,42.229,183.98z M32.517,176.714c0.427,0,0.837,0.183,1.123,0.506
				c2.117,2.39,5.247,3.761,8.589,3.761c5.596,0,10.326-3.858,11.002-8.976c0.066-0.497,0.375-0.929,0.825-1.149
				c3.631-1.786,5.886-5.246,5.886-9.031c0-5.639-4.975-10.227-11.089-10.227l-0.268,0.005c-0.526,0.027-1.033-0.243-1.319-0.691
				c-1.988-3.113-5.651-5.048-9.559-5.048c-6.115,0-11.09,4.589-11.09,10.229l0.007,0.232c0.006,0.562-0.301,1.079-0.796,1.343
				c-3.437,1.824-5.572,5.224-5.572,8.87c0,5.64,4.974,10.228,11.088,10.228c0.352,0,0.7-0.017,1.043-0.046
				C32.432,176.716,32.475,176.714,32.517,176.714z" style="fill:#6E6E96;"></path>
		</g>
		<g style="opacity:0.24;enable-background:new    ;">
			<path d="M48.643,149.675c-0.107,0-0.215,0.005-0.322,0.009c-1.759-2.756-4.697-4.783-8.165-5.479
				c2.744,0.689,5.055,2.357,6.476,4.582c0.092-0.004,1.353,2.178,1.446,2.178c5.966,0,8.741,3.213,8.741,8.771
				c0,3.865-1.447,6.324-4.876,8.014c-0.658,4.971-5.205,8.822-10.717,8.822c-3.356,0-6.353-1.424-8.336-3.661
				c-0.331,0.03-0.665,0.045-1.004,0.045c-5.966,0-10.652-2.827-10.652-8.386c0-3.742,1.675-5.586,4.724-7.808
				c-0.08-0.479-0.419-4.718,0.711-5.85c2.685-2.687,3.9-4.992,6.303-6.185c-4.714,1.694-8.06,5.953-8.06,10.942
				c0,0.083,0.003,0.167,0.008,0.251c-3.803,2.018-6.37,5.823-6.37,10.196c0,6.476,5.636,11.726,12.588,11.726
				c0.396,0,0.787-0.019,1.172-0.05c2.31,2.608,5.804,4.265,9.712,4.265c6.425,0,11.723-4.487,12.49-10.281
				c3.996-1.963,6.721-5.87,6.721-10.375C61.231,154.925,55.595,149.675,48.643,149.675z" style="fill:#6E6E96;"></path>
			<path d="M42.022,182.559c-3.828,0-7.428-1.545-9.919-4.248c-0.318,0.021-0.64,0.033-0.965,0.033
				c-7.217,0-13.088-5.484-13.088-12.226c0-4.291,2.43-8.283,6.362-10.489c0.019-5.006,3.386-9.572,8.391-11.371
				c0.248-0.088,0.525,0.031,0.629,0.274c0.104,0.244,0,0.526-0.238,0.645c-1.472,0.729-2.479,1.915-3.755,3.415
				c-0.687,0.808-1.464,1.722-2.417,2.675c-0.857,0.859-0.708,4.593-0.571,5.414c0.031,0.187-0.046,0.375-0.199,0.486
				c-2.997,2.184-4.519,3.929-4.519,7.403c0,5.814,5.245,7.886,10.152,7.886c0.324,0,0.643-0.014,0.958-0.043
				c0.156-0.01,0.314,0.048,0.419,0.166c1.967,2.22,4.87,3.493,7.962,3.493c5.194,0,9.588-3.606,10.221-8.388
				c0.022-0.166,0.125-0.31,0.274-0.383c3.222-1.588,4.597-3.851,4.597-7.565c0-5.488-2.772-8.271-8.241-8.271
				c-0.325,0-0.355-0.05-1.145-1.32c-0.209-0.337-0.518-0.834-0.625-0.976c-0.038-0.032-0.071-0.07-0.098-0.112
				c-1.381-2.162-3.575-3.713-6.177-4.366c-0.263-0.066-0.425-0.331-0.366-0.596s0.32-0.435,0.586-0.38
				c3.438,0.689,6.458,2.673,8.331,5.46c0.02,0,0.039,0,0.058,0c7.216,0,13.088,5.485,13.09,12.228c0,4.471-2.584,8.55-6.763,10.704
				C54.038,178.084,48.521,182.559,42.022,182.559z M32.31,177.294c0.143,0,0.279,0.061,0.375,0.169
				c2.305,2.603,5.708,4.096,9.337,4.096c6.095,0,11.251-4.233,11.995-9.847c0.022-0.166,0.125-0.31,0.275-0.384
				c3.973-1.951,6.441-5.755,6.441-9.926c-0.002-6.19-5.425-11.228-12.09-11.228l-0.25,0.007c-0.088,0.006-0.203-0.021-0.298-0.065
				c0.084,0.134,0.164,0.258,0.226,0.351c5.889,0.085,8.999,3.285,8.999,9.27c0,4.005-1.52,6.588-4.919,8.343
				c-0.821,5.146-5.575,8.993-11.174,8.993c-3.291,0-6.389-1.325-8.541-3.644c-0.264,0.019-0.53,0.027-0.799,0.027
				c-6.775,0-11.152-3.488-11.152-8.886c0-3.788,1.649-5.783,4.698-8.041c-0.011-0.122-0.024-0.275-0.036-0.453
				c-0.04,0.121-0.125,0.226-0.241,0.287c-3.766,1.998-6.104,5.735-6.104,9.755c0,6.189,5.423,11.226,12.088,11.226
				c0.382,0,0.759-0.018,1.131-0.048C32.283,177.295,32.297,177.294,32.31,177.294z" style="fill:#6E6E96;"></path>
		</g>
		<g>
			<path d="M30.728,168.168c0,0,6.518,1.277,6.518,7.657c0,0,1.755,10.836-5.028,18.502h15.664
				c-0.155-0.214-13.682-18.287,1.374-29.03C40.073,170.545,30.728,168.168,30.728,168.168z" style="fill:#EDE3DA;"></path>
			<path d="M47.902,195.827c-0.006,0-0.013-0.001-0.02,0H32.218c-0.59,0-1.125-0.346-1.368-0.884
				s-0.146-1.168,0.244-1.61c6.24-7.052,4.688-17.167,4.671-17.268c-0.013-0.08-0.02-0.16-0.02-0.24c0-4.497-3.964-5.849-5.19-6.157
				l-0.198-0.046c-0.784-0.202-1.264-0.99-1.087-1.779c0.177-0.79,0.952-1.301,1.746-1.146c0,0,0.085,0.016,0.239,0.054
				c0.518,0.112,2.301,0.455,4.785,0.455c3.126,0,7.828-0.557,12.471-3.211c0.695-0.396,1.577-0.18,2.007,0.494
				c0.431,0.673,0.259,1.565-0.392,2.029c-3.57,2.548-5.686,5.756-6.291,9.536c-1.252,7.834,4.271,16.001,5.14,17.227
				c0.263,0.271,0.425,0.64,0.425,1.047C49.402,195.155,48.73,195.827,47.902,195.827z M35.227,192.827h9.887
				c-2.095-3.53-5.343-10.346-4.24-17.246c0.363-2.274,1.164-4.37,2.394-6.273c-2.387,0.607-4.595,0.836-6.417,0.886
				c1.073,1.32,1.871,3.108,1.896,5.516C38.917,176.896,39.946,185.481,35.227,192.827z" style="fill:#6E6E96;"></path>
		</g>
		<g>
			<path d="M34.856,155.373" style="fill:#D57E58;stroke:#6E6E96;stroke-linecap:round;stroke-linejoin:round;"></path>
		</g>
		<g style="opacity:0.11;enable-background:new    ;">
			<path d="M45.347,168.15c0,0-9.89,12.77-2.29,26.177h4.825C47.881,194.327,37.846,180.3,45.347,168.15z" style="fill:#6E6E96;"></path>
			<path d="M47.882,194.827h-4.825c-0.18,0-0.346-0.097-0.435-0.254c-7.675-13.54,2.229-26.599,2.33-26.729
				c0.163-0.208,0.462-0.255,0.68-0.104c0.219,0.151,0.28,0.447,0.141,0.674c-7.226,11.704,2.323,25.352,2.512,25.618
				c0.061,0.083,0.097,0.186,0.097,0.296c0,0.274-0.222,0.498-0.496,0.5l0,0c0,0-0.001,0-0.002,0h0
				C47.883,194.827,47.882,194.827,47.882,194.827z M43.351,193.827h3.586c-0.209-0.339-0.473-0.792-0.812-1.399
				c-1.761-3.157-4.92-10.062-3.822-17.381C40.535,179.87,39.471,186.776,43.351,193.827z" style="fill:#6E6E96;"></path>
		</g>
	</g>
	<path d="M76.872,222.631c2.319,0,4.612-0.119,6.878-0.326c13.551,16.375,34.051,26.813,56.998,26.813
		c33.975,0,62.559-22.888,71.179-54.04c-23.304-22.215-54.959-35.881-89.839-35.881c-38.34,0-72.789,16.504-96.526,42.731
		C38.852,214.736,56.933,222.631,76.872,222.631z" style="fill:#FFD9BD;"></path>
	<path d="M109.143,159.841c-15.279,1.946-47.493,9.964-83.352,42.3
		c2.666,2.547,5.527,4.89,8.55,7.021l1.408-0.103c0,0,30.687-36.998,82.753-49.812C115.353,159.33,112.233,159.537,109.143,159.841z" style="opacity:0.49;fill:#FFFFFF;enable-background:new    ;"></path>
	<path d="M25.562,203.427c-0.359,0-0.719-0.128-1.006-0.388c-0.614-0.556-0.662-1.505-0.106-2.119
		c24.861-27.469,60.449-43.223,97.638-43.223c34.05,0,66.323,12.89,90.874,36.294c0.6,0.572,0.622,1.521,0.051,2.121
		c-0.572,0.599-1.52,0.621-2.121,0.051c-23.99-22.87-55.528-35.466-88.804-35.466c-36.343,0-71.12,15.395-95.414,42.236
		C26.378,203.261,25.971,203.427,25.562,203.427z" style="fill:#6E6E96;"></path>
	<path d="M152.352,162.839c-1.675-0.396-3.356-0.769-5.058-1.101
		l-22.167-2.139c-28.103,16.219-38.111,47.243-41.468,62.819c0.03-0.003,0.061-0.004,0.091-0.007
		c10.971,13.258,26.499,22.621,44.191,25.706C123.142,182.255,146.965,165.713,152.352,162.839z" style="opacity:0.63;fill:#E0B882;enable-background:new    ;"></path>
	<path d="M129.042,249.691c-0.714,0-1.347-0.512-1.476-1.24c-5.599-31.833,0.529-53.851,6.655-66.716
		c6.685-14.038,14.649-20.427,14.985-20.692c0.65-0.512,1.593-0.402,2.107,0.248c0.513,0.65,0.402,1.592-0.247,2.105l0,0
		c-0.311,0.247-30.955,25.358-20.546,84.535c0.144,0.815-0.401,1.594-1.218,1.737C129.216,249.685,129.128,249.691,129.042,249.691z" style="fill:#6E6E96;"></path>
	<path d="M83.751,223.804c-0.109,0-0.22-0.012-0.331-0.036c-0.808-0.183-1.316-0.985-1.134-1.793
		c13.076-58.089,46.847-63.755,48.278-63.968c0.828-0.128,1.583,0.443,1.704,1.263c0.122,0.818-0.442,1.581-1.26,1.704
		c-0.382,0.06-33.214,5.768-45.795,61.659C85.057,223.33,84.438,223.804,83.751,223.804z" style="fill:#6E6E96;"></path>
	<path d="M125.126,177.27c-0.206,0-0.415-0.042-0.614-0.132c-0.755-0.34-1.093-1.228-0.753-1.983
		c5.584-12.416,15.645-15.84,16.07-15.979c0.79-0.263,1.635,0.171,1.893,0.957c0.259,0.786-0.169,1.632-0.954,1.892
		c-0.126,0.043-9.265,3.226-14.272,14.361C126.245,176.94,125.698,177.27,125.126,177.27z" style="fill:#6E6E96;"></path>
	<path d="M111.205,210.016c-0.829,0-1.5-0.672-1.5-1.5c0-8.878,4.597-19.488,4.793-19.936
		c0.332-0.758,1.217-1.106,1.975-0.772c0.759,0.332,1.105,1.216,0.774,1.975c-0.045,0.104-4.542,10.49-4.542,18.733
		C112.705,209.344,112.034,210.016,111.205,210.016z" style="fill:#6E6E96;"></path>
	<path d="M107.892,242.938c-0.829,0-1.5-0.672-1.5-1.5v-17.711c0-0.828,0.671-1.5,1.5-1.5s1.5,0.672,1.5,1.5
		v17.711C109.392,242.266,108.721,242.938,107.892,242.938z" style="fill:#6E6E96;"></path>
	<g>
		<path d="M60.866,44.859c0-0.096,0.009-0.189,0.009-0.287c0-10.087-8.902-18.272-19.886-18.272
			c-9.45,0-17.362,6.063-19.378,14.19c-0.312-0.024-0.625-0.038-0.941-0.038c-6.535,0-11.831,4.867-11.831,10.869
			c0,1.286,0.248,2.521,0.694,3.663c-1.834,2.38-2.916,5.292-2.916,8.427c0,7.958,6.926,14.424,15.538,14.597v0.008h30.55
			c10.474,0,18.963-7.803,18.963-17.428C71.673,53.652,67.256,47.662,60.866,44.859z" style="fill:#FFFFFF;"></path>
		<path d="M52.705,79.516h-30.55c-0.066,0-0.132-0.004-0.196-0.013c-9.302-0.27-16.842-7.457-16.842-16.092
			c0-3.102,0.945-6.084,2.74-8.676c-0.344-1.109-0.519-2.254-0.519-3.414c0-6.764,5.881-12.277,13.148-12.368
			C23.151,30.561,31.403,24.8,40.989,24.8c11.55,0,20.99,8.509,21.374,19.103c6.601,3.275,10.81,9.726,10.805,16.686
			C73.168,71.025,63.988,79.516,52.705,79.516z M22.313,76.516h30.392c9.629,0,17.463-7.146,17.463-15.928
			c0.004-6.08-3.883-11.714-9.904-14.355c-0.545-0.239-0.897-0.778-0.897-1.374l0.006-0.211C59.375,35.324,51.127,27.8,40.989,27.8
			c-8.509,0-16.046,5.489-17.922,13.052c-0.176,0.711-0.843,1.189-1.573,1.134c-0.273-0.021-0.547-0.034-0.824-0.034
			c-5.697,0-10.331,4.203-10.331,9.369c0,1.064,0.199,2.112,0.591,3.117c0.191,0.49,0.112,1.044-0.209,1.461
			c-1.704,2.211-2.604,4.809-2.604,7.512c0,7.066,6.311,12.941,14.068,13.097C22.228,76.509,22.271,76.512,22.313,76.516z" style="fill:#D0D0E3;"></path>
	</g>
	<g>
		<path d="M241.159,59.116c0-0.078,0.006-0.153,0.006-0.233c0-8.184-7.222-14.825-16.133-14.825
			c-7.667,0-14.087,4.918-15.722,11.513c-0.254-0.021-0.509-0.03-0.765-0.03c-5.302,0-9.599,3.949-9.599,8.818
			c0,1.043,0.201,2.045,0.562,2.971c-1.488,1.932-2.365,4.293-2.365,6.836c0,6.456,5.619,11.703,12.605,11.843v0.006h24.786
			c8.497,0,15.385-6.331,15.385-14.14C249.926,66.249,246.343,61.39,241.159,59.116z" style="fill:#FFFFFF;"></path>
		<path d="M234.536,87.515H209.75c-0.06,0-0.118-0.003-0.177-0.01c-7.694-0.227-13.929-6.182-13.929-13.339
			c0-2.529,0.757-4.963,2.195-7.086c-0.261-0.886-0.393-1.798-0.393-2.721c0-5.579,4.788-10.138,10.744-10.312
			c2.262-6.822,9.012-11.488,16.841-11.488c9.462,0,17.207,6.936,17.616,15.604c5.364,2.727,8.777,8.013,8.772,13.715
			C251.421,80.499,243.847,87.515,234.536,87.515z M209.889,84.515h24.647c7.656,0,13.885-5.67,13.885-12.64
			c0.004-4.819-3.083-9.288-7.864-11.385c-0.545-0.239-0.897-0.778-0.897-1.374l0.004-0.172c0.002-7.408-6.562-13.386-14.631-13.386
			c-6.776,0-12.775,4.363-14.266,10.374c-0.177,0.713-0.838,1.198-1.577,1.134c-0.214-0.017-0.428-0.025-0.644-0.025
			c-4.466,0-8.099,3.283-8.099,7.318c0,0.828,0.154,1.644,0.46,2.426c0.191,0.49,0.111,1.044-0.209,1.461
			c-1.344,1.744-2.054,3.791-2.054,5.92c0,5.581,4.995,10.22,11.136,10.343C209.816,84.51,209.853,84.512,209.889,84.515z" style="fill:#D0D0E3;"></path>
	</g>
	<g>
		<path d="M138.222,59.956c-0.02,0-0.039,0-0.058-0.001c-0.806-0.031-1.443-0.691-1.443-1.497
			c0-3.87-1.035-6.556-3.076-7.984c-3.869-2.708-10.313-0.402-10.378-0.379c-0.777,0.285-1.639-0.115-1.924-0.892
			c-0.285-0.777,0.112-1.638,0.889-1.924c0.324-0.119,7.96-2.87,13.122,0.729c1.429,0.997,2.511,2.357,3.24,4.069
			c1.854-3.421,5.261-6.518,11.026-6.518c0.828,0,1.5,0.671,1.5,1.5s-0.672,1.5-1.5,1.5c-9.035,0-9.872,9.601-9.903,10.009
			C139.657,59.353,139.002,59.956,138.222,59.956z" style="fill:#FFFFFF;"></path>
		<path d="M145.549,59.958h-13.842c-0.828,0-1.5-0.671-1.5-1.5s0.672-1.5,1.5-1.5h13.842
			c0.828,0,1.5,0.671,1.5,1.5S146.377,59.958,145.549,59.958z" style="fill:#FFFFFF;"></path>
	</g>
	<g>
		<path d="M161.835,79.498c-0.02,0-0.039,0-0.06-0.001c-0.805-0.031-1.441-0.69-1.441-1.496
			c0-2.639-0.685-4.455-2.036-5.396c-2.573-1.795-7.021-0.235-7.065-0.219c-0.774,0.285-1.641-0.111-1.926-0.889
			c-0.287-0.777,0.111-1.64,0.889-1.926c0.241-0.088,5.935-2.136,9.818,0.573c0.884,0.616,1.593,1.41,2.124,2.377
			c1.463-2.284,3.939-4.212,7.89-4.212c0.828,0,1.5,0.671,1.5,1.5s-0.672,1.5-1.5,1.5c-5.991,0-6.643,6.108-6.697,6.805
			C163.269,78.895,162.614,79.498,161.835,79.498z" style="fill:#FFFFFF;"></path>
		<path d="M167.102,79.5h-9.951c-0.828,0-1.5-0.671-1.5-1.5s0.672-1.5,1.5-1.5h9.951
			c0.828,0,1.5,0.671,1.5,1.5S167.93,79.5,167.102,79.5z" style="fill:#FFFFFF;"></path>
	</g>
	<path d="M211.927,195.078
		c-15.389-14.67-34.421-25.607-55.616-31.348c-1.305-0.314-2.619-0.616-3.959-0.893c0,0-32.412,19.794-25.006,72.507
		c0,0,7.405-61.286,34.405-58.286c20.546,2.282,35.635,8.299,49.827,19.188C211.691,195.857,211.818,195.473,211.927,195.078z" style="opacity:0.19;fill:#6E6E96;enable-background:new    ;"></path>
	<path d="M129.795,248.156c-7.289-62.52,15.777-81.674,22.098-85.688
		c-0.233-0.055-0.468-0.112-0.701-0.166c-30.577,11.142-35.202,79.505-35.381,82.353
		C120.287,246.257,124.964,247.439,129.795,248.156z" style="opacity:0.19;fill:#6E6E96;enable-background:new    ;"></path>
</g>
<g id="Layer_2">
	<g>
		<g>
			<path d="M64.853,139.572V50.589c0-7.831,6.407-14.237,14.237-14.237h97.525
				c7.832,0,14.238,6.407,14.238,14.237v88.983" style="fill:#FFFFFF;"></path>
			<path d="M190.854,141.072c-0.828,0-1.5-0.672-1.5-1.5V50.589c0-7.023-5.715-12.737-12.738-12.737H79.09
				c-7.023,0-12.737,5.714-12.737,12.737v88.983c0,0.828-0.671,1.5-1.5,1.5s-1.5-0.672-1.5-1.5V50.589
				c0-8.677,7.06-15.737,15.737-15.737h97.525c8.678,0,15.738,7.06,15.738,15.737v88.983
				C192.354,140.4,191.682,141.072,190.854,141.072z" style="fill:#6E6E96;"></path>
		</g>
		<g>
			<path d="M190.854,139.572V50.589c0-7.831-6.405-14.237-14.237-14.237H79.09
				c-7.831,0-14.237,6.407-14.237,14.237v88.983H190.854z" style="fill:#FFFFFF;"></path>
			<path d="M190.854,141.072h-126c-0.829,0-1.5-0.672-1.5-1.5V50.589c0-8.677,7.06-15.737,15.737-15.737
				h97.526c8.678,0,15.737,7.06,15.737,15.737v88.983C192.354,140.4,191.682,141.072,190.854,141.072z M66.353,138.072h123V50.589
				c0-7.023-5.714-12.737-12.737-12.737H79.09c-7.023,0-12.737,5.714-12.737,12.737V138.072z" style="fill:#6E6E96;"></path>
		</g>
	</g>
	<g>
		<path d="M176.615,36.352H79.09c-7.831,0-14.237,6.407-14.237,14.237v9.966h126v-9.966
			C190.854,42.758,184.447,36.352,176.615,36.352z" style="fill:#FF7F9F;"></path>
		<path d="M190.854,62.055h-126c-0.829,0-1.5-0.671-1.5-1.5v-9.966c0-8.677,7.06-15.737,15.737-15.737h97.525
			c8.678,0,15.738,7.06,15.738,15.737v9.966C192.354,61.384,191.682,62.055,190.854,62.055z M66.353,59.055h123v-8.466
			c0-7.023-5.715-12.737-12.738-12.737H79.09c-7.023,0-12.737,5.714-12.737,12.737V59.055z" style="fill:#6E6E96;"></path>
	</g>
	<g>
		<path d="M118.366,121.867h-8.009V91.74c-2.92,2.729-6.36,4.749-10.322,6.057v-7.251
			c2.087-0.682,4.355-1.975,6.802-3.88c2.448-1.904,4.127-4.126,5.039-6.665h6.49V121.867z" style="fill:#6E6E96;"></path>
		<path d="M130.348,88.143v-7.43h27.316v5.784c-2.256,2.222-4.549,5.411-6.879,9.569
			c-2.332,4.158-4.109,8.578-5.33,13.257c-1.223,4.681-1.824,8.861-1.807,12.544h-7.695c0.133-5.768,1.32-11.648,3.564-17.644
			c2.246-5.996,5.243-11.356,8.993-16.081L130.348,88.143L130.348,88.143z" style="fill:#6E6E96;"></path>
	</g>
	<rect height="5.695" width="126" style="opacity:0.15;fill:#6E6E96;enable-background:new    ;" y="133.877" x="64.853"></rect>
	<rect height="7.119" width="126" style="opacity:0.15;fill:#6E6E96;enable-background:new    ;" y="53.436" x="64.853"></rect>
</g>
</svg>
