<svg viewBox="0 0 1200 1200" xmlns:xlink="http://www.w3.org/1999/xlink" xmlns="http://www.w3.org/2000/svg"><defs><style>.cls-1{opacity:0.17;fill:url(#未命名的渐变_33);}.cls-2{fill:url(#未命名的渐变_69);}.cls-12,.cls-17,.cls-3,.cls-4,.cls-5,.cls-6,.cls-7{opacity:0.3;}.cls-3{fill:url(#未命名的渐变_33-2);}.cls-4{fill:url(#未命名的渐变_33-3);}.cls-5{fill:url(#未命名的渐变_33-4);}.cls-6{fill:url(#未命名的渐变_162);}.cls-7{fill:url(#未命名的渐变_162-2);}.cls-8{fill:none;}.cls-10,.cls-14,.cls-15,.cls-16,.cls-9{opacity:0.5;}.cls-9{fill:url(#未命名的渐变_156);}.cls-10{fill:url(#未命名的渐变_156-2);}.cls-11{fill:#c4f2e2;}.cls-12{fill:#68e0af;}.cls-13,.cls-14{fill:#fff;}.cls-15{fill:url(#未命名的渐变_156-3);}.cls-16{fill:url(#未命名的渐变_156-4);}.cls-17{fill:url(#未命名的渐变_33-5);}</style><linearGradient gradientUnits="userSpaceOnUse" y2="788.57" x2="600.97" y1="1087.33" x1="600.97" id="未命名的渐变_33"><stop stop-opacity="0" stop-color="#fff" offset="0"></stop><stop stop-color="#4be2ac" offset="0.77"></stop></linearGradient><linearGradient gradientUnits="userSpaceOnUse" y2="814.29" x2="592.42" y1="883.37" x1="592.42" id="未命名的渐变_69"><stop stop-opacity="0.02" stop-color="#009eaa" offset="0"></stop><stop stop-opacity="0.2" stop-color="#004c55" offset="0.77"></stop></linearGradient><linearGradient xlink:href="#未命名的渐变_33" y2="201" x2="937.72" y1="363.66" x1="937.72" id="未命名的渐变_33-2"></linearGradient><linearGradient xlink:href="#未命名的渐变_33" y2="406.81" x2="214.05" y1="569.47" x1="214.05" id="未命名的渐变_33-3"></linearGradient><linearGradient xlink:href="#未命名的渐变_33" y2="572.79" x2="1020.05" y1="669.06" x1="1020.05" id="未命名的渐变_33-4"></linearGradient><linearGradient gradientUnits="userSpaceOnUse" y2="337.1" x2="1112.19" y1="376.94" x1="1112.19" id="未命名的渐变_162"><stop stop-opacity="0.4" stop-color="#6de7bb" offset="0"></stop><stop stop-color="#55e2ac" offset="0.77"></stop></linearGradient><linearGradient xlink:href="#未命名的渐变_162" y2="204.32" x2="292.25" y1="270.71" x1="292.25" id="未命名的渐变_162-2"></linearGradient><linearGradient gradientUnits="userSpaceOnUse" y2="705.89" x2="695.65" y1="412.2" x1="695.65" id="未命名的渐变_156"><stop stop-opacity="0.62" stop-color="#6de7bb" offset="0"></stop><stop stop-color="#55e2ac" offset="0.77"></stop></linearGradient><linearGradient xlink:href="#未命名的渐变_156" y2="751.75" x2="633.9" y1="603.62" x1="633.9" id="未命名的渐变_156-2"></linearGradient><linearGradient xlink:href="#未命名的渐变_156" y2="808.38" x2="592.83" y1="493.53" x1="592.83" id="未命名的渐变_156-3"></linearGradient><linearGradient xlink:href="#未命名的渐变_156" y2="857.54" x2="526.63" y1="698.74" x1="526.63" id="未命名的渐变_156-4"></linearGradient><linearGradient xlink:href="#未命名的渐变_33" y2="493.53" x2="604.27" y1="859.72" x1="604.27" id="未命名的渐变_33-5"></linearGradient></defs><g id="图层_1"><path d="M1200,1087.33c-21.33-166.9-281.35-298.76-599-298.76S23.26,920.43,1.94,1087.33Z" class="cls-1"></path><ellipse ry="34.54" rx="229.68" cy="848.83" cx="592.42" class="cls-2"></ellipse><path d="M1002.79,363.66a58.56,58.56,0,0,0,0-117.12c-1.1,0-2.13.27-3.21.33a64.64,64.64,0,0,0-123.71,0c-1.09-.06-2.11-.33-3.21-.33a58.56,58.56,0,1,0,0,117.12Z" class="cls-3"></path><path d="M279.12,569.47a58.56,58.56,0,0,0,0-117.11c-1.1,0-2.13.26-3.21.32a64.64,64.64,0,0,0-123.71,0c-1.09-.06-2.11-.32-3.21-.32a58.56,58.56,0,1,0,0,117.11Z" class="cls-4"></path><path d="M1058.56,669.06a34.66,34.66,0,0,0,0-69.31c-.65,0-1.26.15-1.9.19a38.26,38.26,0,0,0-73.22,0c-.64,0-1.25-.19-1.9-.19a34.66,34.66,0,0,0,0,69.31Z" class="cls-5"></path><circle r="19.92" cy="357.02" cx="1112.19" class="cls-6"></circle><circle r="33.2" cy="237.52" cx="292.25" class="cls-7"></circle><path d="M822.56,284.51v-42a39.45,39.45,0,0,0-.46-5.68v53.4A39.45,39.45,0,0,0,822.56,284.51Z" class="cls-8"></path><rect rx="31.45" height="293.69" width="420.09" y="412.2" x="485.61" class="cls-9"></rect><path d="M594,750.68,718,696l-136.88,1-31.4,56.76,27.46.34A40.26,40.26,0,0,0,594,750.68Z" class="cls-10"></path><rect rx="27.66" height="293.69" width="420.09" y="412.2" x="463.31" class="cls-11"></rect><path d="M573,697.34l-28.83,45.79a6.93,6.93,0,0,0,8.7,10l124.49-55.84Z" class="cls-11"></path><path d="M838.78,412.2H709.24l-180,293.69h38.34l-23.44,37.24a6.93,6.93,0,0,0,8.7,10L658.2,705.89H838.78a44.74,44.74,0,0,0,44.61-44.61V456.82A44.74,44.74,0,0,0,838.78,412.2Z" class="cls-12"></path><path d="M507.92,412.2a44.74,44.74,0,0,0-44.61,44.62V661.28a44.74,44.74,0,0,0,44.61,44.61h21.32l180-293.69Z" class="cls-11"></path><path d="M836.45,705.92H532.69c-38.24,0-69.36-28.73-69.36-64V476.3H767.09c38.24,0,69.36,28.73,69.36,64ZM487.25,498.38V641.89c0,23.13,20.38,42,45.44,42H812.53V540.33c0-23.13-20.39-42-45.44-42Z" class="cls-13"></path><rect rx="40" height="315.72" width="420.09" y="493.53" x="397.93" class="cls-14"></rect><rect rx="40" height="314.85" width="450.36" y="493.53" x="367.65" class="cls-14"></rect><path d="M483.86,856.4l133-58.63-146.75,1.09L436.42,859.7l29.45.37A43.19,43.19,0,0,0,483.86,856.4Z" class="cls-14"></path><rect rx="40" height="314.85" width="450.36" y="493.53" x="367.65" class="cls-15"></rect><path d="M483.86,856.4l133-58.63-146.75,1.09L436.42,859.7l29.45.37A43.19,43.19,0,0,0,483.86,856.4Z" class="cls-16"></path><rect rx="30.75" height="314.85" width="450.36" y="493.53" x="343.74" class="cls-11"></rect><path d="M461.31,799.21,430.4,848.3A7.43,7.43,0,0,0,439.73,859l133.46-59.86Z" class="cls-11"></path><path d="M746.28,493.53H607.4l-193,314.85h41.1L430.4,848.3A7.43,7.43,0,0,0,439.73,859l112.95-50.66h193.6a48,48,0,0,0,47.82-47.83V541.35A48,48,0,0,0,746.28,493.53Z" class="cls-17"></path><path d="M391.57,493.53a48,48,0,0,0-47.83,47.82v219.2a48,48,0,0,0,47.83,47.83h22.86l193-314.85Z" class="cls-11"></path><circle r="27.9" cy="644.97" cx="455.33" class="cls-13"></circle><circle r="27.9" cy="644.97" cx="568.92" class="cls-13"></circle><circle r="27.9" cy="644.97" cx="682.51" class="cls-13"></circle></g></svg>