<svg xml:space="preserve" style="enable-background:new 0 0 255.975 237.578;" viewBox="0 0 255.975 237.578" height="237.578px" width="255.975px" y="0px" x="0px" xmlns:xlink="http://www.w3.org/1999/xlink" xmlns="http://www.w3.org/2000/svg" id="Layer_1" version="1.1">
<g id="Layer_1_3_">
	<g style="display:none;" id="Layer_3_3_">
		<g style="display:inline;">
			<g>
				<path d="M83.635,135.921c0-11.563-10.059-20.938-22.467-20.938c-0.194,0-0.385,0.01-0.576,0.015
					c-3.917-6.135-11.102-10.245-19.318-10.245c-12.405,0-22.469,9.372-22.469,20.935c0,0.15,0.009,0.297,0.012,0.447
					c-6.781,3.603-11.361,10.398-11.361,18.197c0,11.562,10.059,20.934,22.468,20.934c0.705,0,1.403-0.033,2.092-0.094
					c4.122,4.648,10.358,7.617,17.335,7.617c11.471,0,20.925-8.012,22.293-18.352C78.771,150.934,83.635,143.96,83.635,135.921z" style="fill:#D7F7E4;"></path>
				<path d="M49.35,174.289c-6.893,0-13.391-2.749-17.95-7.568c-0.499,0.03-0.993,0.045-1.477,0.045
					c-13.216,0-23.968-10.063-23.968-22.434c0-7.766,4.327-14.995,11.354-19.075c0.247-12.172,10.902-22.004,23.964-22.004
					c8.091,0,15.716,3.899,20.112,10.231c13.115,0.11,23.75,10.132,23.75,22.437c0,8.109-4.625,15.514-12.125,19.502
					C71.163,166.232,61.139,174.289,49.35,174.289z M32.636,163.611l0.501,0.565c4.008,4.52,9.917,7.112,16.213,7.112
					c10.575,0,19.52-7.329,20.806-17.048l0.105-0.796l0.72-0.354c6.88-3.383,11.154-9.962,11.154-17.171
					c0-10.718-9.406-19.438-20.967-19.438c-0.11,0-0.219,0.004-0.327,0.008l-1.058,0.028l-0.456-0.714
					c-3.762-5.892-10.68-9.552-18.054-9.552c-11.562,0-20.969,8.718-20.969,19.435l0.029,1.34l-0.814,0.432
					c-6.517,3.463-10.565,9.928-10.565,16.873c0,10.716,9.406,19.434,20.968,19.434c0.637,0,1.296-0.029,1.96-0.088L32.636,163.611z" style="fill:#CCCCDE;"></path>
			</g>
			<path d="M60.789,114.233c-0.193,0-0.388,0.01-0.575,0.015
				c-3.141-4.918-8.383-8.534-14.573-9.775c4.898,1.229,9.023,4.208,11.562,8.175c0.162-0.004,2.416,3.886,2.583,3.886
				c10.646,0,15.601,5.737,15.601,15.659c0,6.896-2.583,11.291-8.704,14.303c-1.173,8.875-9.287,15.746-19.129,15.746
				c-5.99,0-11.34-2.543-14.877-6.529c-0.591,0.049-1.189,0.076-1.794,0.076c-10.649,0-19.013-5.049-19.013-14.969
				c0-6.683,2.986-9.973,8.432-13.938c-0.146-0.854-0.75-8.42,1.267-10.438c4.792-4.793,6.964-8.908,11.25-11.038
				c-8.414,3.025-14.385,10.627-14.385,19.535c0,0.147,0.009,0.3,0.012,0.447c-6.785,3.604-11.362,10.396-11.362,18.194
				c0,11.563,10.059,20.938,22.468,20.938c0.707,0,1.401-0.035,2.093-0.1c4.121,4.646,10.356,7.617,17.336,7.617
				c11.47,0,20.924-8.016,22.291-18.354c7.133-3.507,11.997-10.479,11.997-18.521C83.258,123.605,73.199,114.233,60.789,114.233z" style="opacity:0.1;fill:#6E6E96;enable-background:new    ;"></path>
			<g>
				<path d="M28.811,147.246c0,0,11.635,2.275,11.635,13.66c0,0,3.136,19.344-8.976,33.027h27.96
					c-0.277-0.389-24.422-32.646,2.449-51.814C45.491,151.486,28.811,147.246,28.811,147.246z" style="fill:#EDE3DA;"></path>
				<path d="M59.43,195.434H28.139l2.208-2.494c11.507-13.001,8.648-31.606,8.618-31.793l-0.02-0.24
					c0-9.08-8.4-11.682-10.144-12.122c-0.237-0.053-0.361-0.084-0.361-0.084l0.657-2.926c0,0,0.139,0.026,0.39,0.089
					c0.934,0.203,4.23,0.84,8.8,0.84c5.724,0,14.334-1.021,22.847-5.887l1.615,2.523c-6.627,4.728-10.564,10.702-11.701,17.757
					c-2.418,15.012,8.334,30.233,9.568,31.92l1.746,2.386L59.43,195.434z M34.605,192.434h21.997
					c-3.446-5.397-10.644-18.589-8.514-31.813c0.805-4.996,2.848-9.493,6.099-13.443c-6.07,2.011-11.711,2.526-15.898,2.526
					c-0.463,0-0.913-0.006-1.35-0.017c2.654,2.275,4.973,5.784,5.006,11.102C42.206,162.524,44.379,179.122,34.605,192.434z" style="fill:#CCCCDE;"></path>
			</g>
			<g>
				<path d="M36.178,124.404" style="fill:#D57E58;"></path>
			</g>
			<path d="M54.904,147.212c0,0-17.65,22.793-4.085,46.722h8.611
				C59.43,193.934,41.515,168.896,54.904,147.212z" style="opacity:0.11;fill:#6E6E96;enable-background:new    ;"></path>
		</g>
		<g style="display:inline;">
			<g>
				<path d="M253.475,134.639c0-10.828-9.42-19.604-21.04-19.604c-0.183,0-0.356,0.008-0.539,0.013
					c-3.669-5.744-10.396-9.595-18.091-9.595c-11.62,0-21.041,8.776-21.041,19.604c0,0.142,0.009,0.278,0.012,0.418
					c-6.354,3.375-10.644,9.739-10.644,17.043c0,10.826,9.421,19.604,21.04,19.604c0.66,0,1.312-0.033,1.96-0.091
					c3.858,4.354,9.698,7.136,16.233,7.136c10.734,0,19.596-7.5,20.875-17.187C248.92,148.695,253.475,142.167,253.475,134.639z" style="fill:#D7F7E4;"></path>
				<path d="M221.365,170.667c-6.466,0-12.562-2.573-16.847-7.086c-0.459,0.027-0.904,0.041-1.347,0.041
					c-12.429,0-22.54-9.468-22.54-21.104c0-7.289,4.053-14.077,10.637-17.92c0.262-11.426,10.271-20.645,22.536-20.645
					c7.59,0,14.745,3.652,18.885,9.583c12.312,0.128,22.285,9.545,22.285,21.102c0,7.613-4.335,14.567-11.367,18.326
					C241.852,163.111,232.437,170.667,221.365,170.667z M205.753,160.47l0.502,0.566c3.734,4.214,9.242,6.631,15.11,6.631
					c9.857,0,18.192-6.828,19.388-15.883l0.105-0.796l0.72-0.354c6.413-3.154,10.396-9.283,10.396-15.996
					c0-9.982-8.766-18.104-19.54-18.104c-0.114,0-0.226,0.004-0.338,0.007l-1.009,0.027l-0.456-0.714
					c-3.508-5.491-9.955-8.902-16.827-8.902c-10.775,0-19.541,8.121-19.541,18.104l0.03,1.31l-0.814,0.433
					c-6.074,3.227-9.848,9.25-9.848,15.719c0,9.982,8.766,18.104,19.54,18.104c0.587,0,1.185-0.027,1.827-0.085L205.753,160.47z" style="fill:#CCCCDE;"></path>
			</g>
			<path d="M232.081,114.33c-0.188,0-0.358,0.008-0.539,0.012
				c-2.94-4.606-7.854-7.992-13.646-9.154c4.586,1.15,8.449,3.94,10.822,7.655c0.154-0.004,2.263,3.639,2.419,3.639
				c9.971,0,14.608,5.374,14.608,14.665c0,6.459-2.42,10.574-8.148,13.396c-1.1,8.312-8.698,14.739-17.914,14.739
				c-5.604,0-10.619-2.382-13.934-6.114c-0.561,0.047-1.112,0.069-1.686,0.069c-9.975,0-17.806-4.728-17.806-14.017
				c0-6.258,2.8-9.34,7.896-13.055c-0.14-0.809-0.699-7.888,1.188-9.772c4.485-4.488,6.521-8.343,10.534-10.337
				c-7.879,2.833-13.471,9.952-13.471,18.291c0,0.139,0.006,0.275,0.012,0.418c-6.354,3.373-10.646,9.736-10.646,17.041
				c0,10.824,9.421,19.605,21.041,19.605c0.661,0,1.313-0.033,1.959-0.092c3.859,4.354,9.699,7.137,16.234,7.137
				c10.739,0,19.594-7.5,20.875-17.188c6.68-3.285,11.229-9.813,11.229-17.343C253.122,123.105,243.702,114.33,232.081,114.33z" style="opacity:0.1;fill:#6E6E96;enable-background:new    ;"></path>
			<g>
				<path d="M202.135,145.24c0,0,10.896,2.135,10.896,12.799c0,0,2.937,18.107-8.403,30.928h26.184
					c-0.26-0.357-22.87-30.564,2.294-48.521C217.754,149.214,202.135,145.24,202.135,145.24z" style="fill:#EDE3DA;"></path>
				<path d="M230.812,190.467h-29.513l2.205-2.494c10.718-12.116,8.074-29.521,8.047-29.694l-0.02-0.239
					c0-8.434-7.804-10.854-9.429-11.267c-0.222-0.049-0.338-0.078-0.338-0.078l0.658-2.926c0,0,0.131,0.024,0.367,0.083
					c0.875,0.191,3.956,0.787,8.229,0.787c5.348,0,13.39-0.953,21.342-5.495l1.615,2.523c-6.197,4.422-9.872,10.01-10.925,16.608
					c-2.245,14.082,7.802,28.219,8.954,29.784l1.76,2.39L230.812,190.467z M207.751,187.467h20.23
					c-3.271-5.139-9.858-17.334-7.893-29.664c0.735-4.609,2.591-8.769,5.539-12.433c-5.578,1.803-10.751,2.269-14.608,2.269
					c-0.345,0-0.683-0.004-1.012-0.011c2.418,2.149,4.49,5.412,4.523,10.293C214.781,159.586,216.783,175.011,207.751,187.467z" style="fill:#CCCCDE;"></path>
			</g>
			<g>
				<path d="M209.036,123.855" style="fill:#D57E58;"></path>
			</g>
			<path d="M226.57,145.212c0,0-16.527,21.345-3.82,43.752h8.062
				C230.808,188.964,214.032,165.518,226.57,145.212z" style="opacity:0.11;fill:#6E6E96;enable-background:new    ;"></path>
		</g>
		<g style="display:inline;">
			<g>
				<path d="M216.772,136.398c0-16.621-14.461-30.094-32.299-30.094c-0.278,0-0.554,0.012-0.828,0.02
					c-5.632-8.816-15.959-14.729-27.771-14.729c-17.838,0-32.301,13.475-32.301,30.097c0,0.215,0.014,0.43,0.018,0.646
					c-9.755,5.181-16.339,14.942-16.339,26.156c0,16.618,14.462,30.098,32.3,30.098c1.014,0,2.018-0.049,3.008-0.139
					c5.926,6.688,14.893,10.948,24.921,10.948c16.489,0,30.081-11.515,32.048-26.379
					C209.782,157.98,216.772,147.953,216.772,136.398z" style="fill:#D7F7E4;"></path>
				<path d="M167.481,190.9c-9.841,0-19.103-3.961-25.536-10.895c-0.807,0.057-1.608,0.085-2.393,0.085
					c-18.637,0-33.8-14.175-33.8-31.598c0-11.044,6.23-21.322,16.322-27.035c0.134-17.316,15.245-31.363,33.8-31.363
					c11.534,0,22.397,5.616,28.565,14.71c0.012,0,0.022,0,0.033,0c18.637,0,33.799,14.173,33.799,31.594
					c0,11.518-6.635,22.027-17.371,27.61C198.443,179.395,184.225,190.9,167.481,190.9z M143.18,176.89l0.503,0.567
					c5.88,6.637,14.554,10.443,23.798,10.443c15.531,0,28.669-10.78,30.561-25.075l0.105-0.796l0.72-0.354
					c10.119-4.975,16.405-14.66,16.405-25.277c0-15.767-13.816-28.594-30.799-28.594c-0.184,0-0.366,0.006-0.548,0.012l-1.088,0.03
					l-0.456-0.714c-5.531-8.659-15.688-14.037-26.507-14.037c-16.983,0-30.801,12.829-30.801,28.597c0,0.106,0.004,0.213,0.008,0.32
					l0.026,1.219l-0.813,0.432c-9.587,5.091-15.542,14.605-15.542,24.831c0,15.769,13.817,28.598,30.8,28.598
					c0.937,0,1.903-0.045,2.872-0.133L143.18,176.89z" style="fill:#CCCCDE;"></path>
			</g>
			<path d="M183.931,105.221c-0.276,0-0.552,0.012-0.827,0.02
				c-4.516-7.07-12.051-12.27-20.949-14.052c7.041,1.767,12.975,6.049,16.614,11.751c0.237-0.006,3.478,5.586,3.713,5.586
				c15.312,0,22.433,8.248,22.433,22.512c0,9.912-3.719,16.23-12.517,20.562c-1.687,12.754-13.353,22.635-27.5,22.635
				c-8.606,0-16.302-3.653-21.387-9.396c-0.851,0.07-1.71,0.113-2.58,0.113c-15.31,0-27.332-7.255-27.332-21.517
				c0-9.604,4.298-14.336,12.12-20.039c-0.209-1.233-1.077-12.104,1.82-15.002c6.89-6.89,10.011-12.808,16.174-15.868
				c-12.096,4.35-20.679,15.277-20.679,28.08c0,0.216,0.011,0.432,0.017,0.646c-9.756,5.178-16.34,14.945-16.34,26.156
				c0,16.619,14.461,30.098,32.3,30.098c1.017,0,2.017-0.049,3.008-0.137c5.925,6.688,14.894,10.947,24.922,10.947
				c16.487,0,30.078-11.515,32.046-26.379c10.258-5.043,17.244-15.068,17.244-26.623C216.23,118.694,201.77,105.221,183.931,105.221
				z" style="opacity:0.1;fill:#6E6E96;enable-background:new    ;"></path>
			<g>
				<path d="M137.959,152.676c0,0,16.727,3.271,16.727,19.643c0,0,4.504,27.81-12.9,47.479h40.191
					c-0.396-0.558-35.104-46.922,3.521-74.483C161.938,158.775,137.959,152.676,137.959,152.676z" style="fill:#EDE3DA;"></path>
				<path d="M181.977,221.298h-43.521l2.207-2.494c16.712-18.888,12.586-45.975,12.543-46.246l-0.02-0.239
					c0-13.556-12.514-17.421-15.085-18.07c-0.336-0.073-0.512-0.118-0.512-0.118l0.658-2.926c0,0,0.192,0.037,0.539,0.123
					c1.35,0.295,6.156,1.228,12.811,1.228c8.305,0,20.8-1.482,33.157-8.543l1.615,2.523c-9.67,6.9-15.418,15.63-17.083,25.945
					c-3.521,21.815,12.075,43.933,13.865,46.382l1.742,2.386L181.977,221.298z M144.975,218.298h34.146
					c-4.569-6.937-15.971-26.632-12.796-46.295c1.268-7.854,4.704-14.841,10.251-20.866c-9.524,3.546-18.482,4.418-24.979,4.418
					c-1.404,0-2.726-0.039-3.956-0.104c4.314,3.099,8.506,8.285,8.545,16.749C156.523,174.407,159.876,199.072,144.975,218.298z" style="fill:#CCCCDE;"></path>
			</g>
			<g>
				<path d="M148.552,119.846" style="fill:#D57E58;"></path>
			</g>
			<path d="M175.472,152.63c0,0-25.378,32.767-5.873,67.164h12.378
				C181.977,219.796,156.223,183.803,175.472,152.63z" style="opacity:0.11;fill:#6E6E96;enable-background:new    ;"></path>
		</g>
		<g style="display:inline;">
			<g>
				<path d="M144.936,137.51c0-13.646-11.873-24.707-26.517-24.707c-0.229,0-0.454,0.01-0.684,0.016
					c-4.62-7.238-13.102-12.092-22.8-12.092c-14.644,0-26.518,11.063-26.518,24.707c0,0.178,0.012,0.354,0.015,0.528
					c-8.01,4.252-13.414,12.271-13.414,21.478c0,13.646,11.872,24.707,26.521,24.707c0.832,0,1.651-0.041,2.469-0.104
					c4.864,5.48,12.224,8.98,20.46,8.98c13.537,0,24.695-9.45,26.309-21.648C139.195,155.229,144.936,146.998,144.936,137.51z" style="fill:#D7F7E4;"></path>
				<path d="M104.469,182.523c-8.108,0-15.747-3.247-21.08-8.935c-0.659,0.039-1.269,0.058-1.849,0.058
					c-15.451,0-28.021-11.757-28.021-26.207c0-9.119,5.111-17.604,13.402-22.356c0.202-14.289,12.691-25.856,28.015-25.856
					c9.512,0,18.471,4.606,23.595,12.076c15.398,0.056,27.905,11.791,27.905,26.207c0,9.509-5.454,18.196-14.288,22.851
					C130.05,173.051,118.3,182.523,104.469,182.523z M84.637,170.49l0.494,0.557c4.781,5.387,11.829,8.477,19.338,8.477
					c12.617,0,23.288-8.746,24.821-20.345l0.105-0.795l0.719-0.354c8.217-4.048,13.321-11.91,13.321-20.52
					c0-12.797-11.223-23.207-25.017-23.207c-0.144,0-0.286,0.005-0.428,0.009l-1.064,0.028l-0.456-0.714
					c-4.488-7.031-12.74-11.399-21.536-11.399c-13.795,0-25.018,10.411-25.018,23.207l0.03,1.422l-0.812,0.432
					c-7.783,4.131-12.617,11.854-12.617,20.152c0,12.797,11.225,23.207,25.021,23.207c0.712,0,1.482-0.032,2.354-0.1L84.637,170.49z" style="fill:#CCCCDE;"></path>
			</g>
			<path d="M117.973,111.916c-0.228,0-0.452,0.009-0.679,0.015
				c-3.707-5.805-9.896-10.072-17.199-11.537c5.78,1.45,10.648,4.966,13.641,9.647c0.194-0.005,2.854,4.586,3.052,4.586
				c12.563,0,18.414,6.771,18.414,18.479c0,8.142-3.054,13.326-10.271,16.882c-1.384,10.475-10.961,18.584-22.576,18.584
				c-7.065,0-13.384-3.005-17.559-7.716c-0.698,0.063-1.404,0.099-2.118,0.099c-12.568,0-22.438-5.957-22.438-17.664
				c0-7.887,3.527-11.771,9.948-16.451c-0.171-1.018-0.884-9.938,1.496-12.315c5.655-5.657,8.218-10.515,13.277-13.027
				c-9.934,3.57-16.979,12.542-16.979,23.053c0,0.179,0.014,0.354,0.019,0.527c-8.015,4.25-13.415,12.271-13.415,21.479
				c0,13.645,11.873,24.706,26.518,24.706c0.834,0,1.655-0.04,2.47-0.108c4.863,5.488,12.227,8.988,20.461,8.988
				c13.535,0,24.692-9.451,26.312-21.656c8.418-4.144,14.158-12.371,14.158-21.854C144.491,122.977,132.618,111.916,117.973,111.916
				z" style="opacity:0.1;fill:#6E6E96;enable-background:new    ;"></path>
			<g>
				<path d="M80.231,150.875c0,0,13.731,2.688,13.731,16.129c0,0,3.697,22.822-10.595,38.979h33
					c-0.328-0.455-28.824-38.521,2.89-61.15C99.918,155.88,80.231,150.875,80.231,150.875z" style="fill:#EDE3DA;"></path>
				<path d="M116.367,207.482h-36.33l2.206-2.494c13.663-15.445,10.273-37.523,10.238-37.744l-0.02-0.24
					c0-10.929-10.096-14.051-12.181-14.577c-0.276-0.062-0.42-0.098-0.42-0.098l0.658-2.926c0,0,0.16,0.03,0.449,0.103
					c1.105,0.241,5.025,1,10.457,1c6.787,0,16.995-1.21,27.088-6.977l1.615,2.523c-7.892,5.632-12.576,12.753-13.923,21.166
					c-2.861,17.866,9.887,35.854,11.351,37.847l1.753,2.388L116.367,207.482z M86.529,204.482h26.991
					c-3.932-6.047-12.823-21.844-10.278-37.738c0.989-6.177,3.597-11.705,7.779-16.519c-7.479,2.622-14.467,3.28-19.597,3.28
					c-0.833,0-1.63-0.017-2.39-0.046c3.334,2.628,6.391,6.833,6.427,13.426C95.755,168.822,98.409,188.729,86.529,204.482z" style="fill:#CCCCDE;"></path>
			</g>
			<g>
				<path d="M88.928,123.921" style="fill:#D57E58;"></path>
			</g>
			<path d="M111.027,150.837c0,0-20.835,26.897-4.817,55.142h10.162
				C116.369,205.979,95.225,176.428,111.027,150.837z" style="opacity:0.11;fill:#6E6E96;enable-background:new    ;"></path>
		</g>
		<g style="display:inline;">
			<g>
				<path d="M252.159,161.646c0-12.345-10.74-22.352-23.988-22.352c-0.202,0-0.406,0.009-0.61,0.016
					c-4.187-6.55-11.854-10.938-20.625-10.938c-13.248,0-23.981,10.008-23.981,22.353c0,0.161,0.012,0.315,0.014,0.479
					c-7.244,3.85-12.135,11.104-12.135,19.432c0,12.348,10.732,22.354,23.981,22.354c0.753,0,1.497-0.038,2.229-0.104
					c4.396,4.969,11.062,8.135,18.512,8.135c12.245,0,22.339-8.553,23.799-19.592C246.965,177.673,252.159,170.229,252.159,161.646z" style="fill:#D7F7E4;"></path>
				<path d="M215.556,202.52c-7.357,0-14.284-2.937-19.126-8.083c-0.551,0.035-1.092,0.053-1.615,0.053
					c-14.051,0-25.481-10.701-25.481-23.854c0-8.272,4.622-15.974,12.125-20.31c0.228-12.969,11.569-23.453,25.478-23.453
					c8.619,0,16.744,4.165,21.419,10.924c13.97,0.092,25.305,10.756,25.305,23.851c0,8.629-4.937,16.518-12.936,20.766
					C238.783,193.931,228.112,202.52,215.556,202.52z M197.664,191.322l0.503,0.568c4.29,4.849,10.628,7.629,17.389,7.629
					c11.341,0,20.933-7.862,22.312-18.288l0.105-0.795l0.718-0.354c7.383-3.643,11.969-10.707,11.969-18.437
					c0-11.498-10.088-20.852-22.488-20.852c-0.147,0-0.297,0.006-0.445,0.011l-0.969,0.032l-0.46-0.72
					c-4.04-6.32-11.459-10.246-19.361-10.246c-12.396,0-22.481,9.354-22.481,20.853l0.024,1.374l-0.807,0.429
					c-6.994,3.717-11.339,10.655-11.339,18.107c0,11.499,10.085,20.854,22.481,20.854c0.67,0,1.374-0.033,2.094-0.099
					L197.664,191.322z" style="fill:#CCCCDE;"></path>
			</g>
			<path d="M227.767,138.49c-0.206,0-0.409,0.014-0.614,0.018
				c-3.354-5.25-8.945-9.109-15.558-10.438c5.229,1.312,9.633,4.492,12.339,8.729c0.175-0.004,2.579,4.146,2.757,4.146
				c11.368,0,16.655,6.123,16.655,16.721c0,7.359-2.757,12.057-9.291,15.271c-1.252,9.474-9.915,16.812-20.423,16.812
				c-6.396,0-12.106-2.723-15.884-6.979c-0.631,0.056-1.271,0.086-1.916,0.086c-11.368,0-20.299-5.39-20.299-15.979
				c0-7.136,3.188-10.646,9.002-14.886c-0.156-0.918-0.808-8.985,1.353-11.141c5.116-5.117,7.438-9.517,12.011-11.785
				c-8.979,3.229-15.354,11.347-15.354,20.854c0,0.158,0.013,0.314,0.017,0.479c-7.246,3.85-12.138,11.104-12.138,19.432
				c0,12.344,10.738,22.354,23.988,22.354c0.754,0,1.492-0.035,2.229-0.104c4.401,4.967,11.063,8.133,18.509,8.133
				c12.245,0,22.338-8.556,23.803-19.594c7.611-3.74,12.812-11.188,12.812-19.771C251.754,148.5,241.016,138.49,227.767,138.49z" style="opacity:0.1;fill:#6E6E96;enable-background:new    ;"></path>
			<g>
				<path d="M193.625,173.734c0,0,12.422,2.434,12.422,14.588c0,0,3.345,20.646-9.584,35.262h29.853
					c-0.296-0.41-26.069-34.85,2.615-55.316C211.435,178.266,193.625,173.734,193.625,173.734z" style="fill:#EDE3DA;"></path>
				<path d="M226.316,225.084h-33.182l2.206-2.494c12.288-13.892,9.258-33.829,9.227-34.029l-0.02-0.238
					c0-9.772-9.036-12.571-10.909-13.045c-0.251-0.056-0.383-0.089-0.383-0.089l0.658-2.926c0,0,0.147,0.028,0.411,0.094
					c0.999,0.218,4.532,0.902,9.431,0.902c6.121,0,15.329-1.092,24.432-6.294l1.615,2.523c-7.105,5.07-11.322,11.479-12.535,19.051
					c-2.58,16.109,8.919,32.335,10.239,34.132l1.754,2.388L226.316,225.084z M199.609,222.084h23.868
					c-3.633-5.64-11.453-19.78-9.173-34.02c0.872-5.443,3.126-10.331,6.725-14.609c-6.594,2.235-12.735,2.804-17.273,2.804
					c-0.601,0-1.181-0.01-1.74-0.026c2.908,2.41,5.497,6.181,5.532,11.972C207.82,190.017,210.172,207.852,199.609,222.084z" style="fill:#CCCCDE;"></path>
			</g>
			<g>
				<path d="M201.493,149.354" style="fill:#D57E58;"></path>
			</g>
			<path d="M221.484,173.703c0,0-18.847,24.334-4.357,49.881h9.188
				C226.315,223.583,207.188,196.852,221.484,173.703z" style="opacity:0.11;fill:#6E6E96;enable-background:new    ;"></path>
		</g>
		<g style="display:inline;">
			<g>
				<path d="M87.893,159.796c0-13.11-11.408-23.737-25.479-23.737c-0.224,0-0.438,0.008-0.653,0.015
					c-4.443-6.953-12.589-11.611-21.907-11.611c-14.067,0-25.479,10.629-25.479,23.734c0,0.17,0.011,0.336,0.015,0.508
					C6.693,152.787,1.5,160.496,1.5,169.339c0,13.106,11.407,23.736,25.479,23.736c0.8,0,1.59-0.041,2.372-0.104
					c4.674,5.271,11.745,8.639,19.659,8.639c13.007,0,23.729-9.081,25.279-20.809C82.378,176.818,87.893,168.912,87.893,159.796z" style="fill:#D7F7E4;"></path>
				<path d="M49.01,203.109c-7.796,0-15.142-3.122-20.277-8.591c-0.62,0.038-1.198,0.057-1.754,0.057
					C12.103,194.575,0,183.254,0,169.339c0-8.773,4.911-16.937,12.878-21.514c0.213-13.743,12.232-24.863,26.976-24.863
					c9.146,0,17.763,4.423,22.702,11.597c14.812,0.072,26.837,11.365,26.837,25.237c0,9.149-5.242,17.507-13.734,21.99
					C73.627,193.997,62.318,203.109,49.01,203.109z M29.976,191.415l0.497,0.561c4.583,5.169,11.339,8.134,18.537,8.134
					c12.094,0,22.323-8.386,23.792-19.505l0.105-0.795l0.719-0.354c7.875-3.877,12.766-11.41,12.766-19.659
					c0-12.262-10.757-22.237-23.979-22.237c-0.183,0-0.36,0.006-0.536,0.012l-0.853,0.027l-0.529-0.717
					c-4.304-6.735-12.214-10.919-20.643-10.919c-13.222,0-23.979,9.975-23.979,22.234l0.035,1.399l-0.817,0.434
					C7.634,153.985,3,161.385,3,169.339c0,12.261,10.757,22.236,23.979,22.236c0.689,0,1.425-0.032,2.251-0.1L29.976,191.415z" style="fill:#CCCCDE;"></path>
			</g>
			<path d="M61.985,135.203c-0.219,0-0.435,0.01-0.648,0.018
				c-3.563-5.578-9.506-9.68-16.525-11.088c5.554,1.395,10.231,4.771,13.106,9.271c0.186-0.004,2.735,4.406,2.928,4.406
				c12.076,0,17.692,6.506,17.692,17.758c0,7.82-2.933,12.806-9.87,16.222c-1.33,10.063-10.531,17.854-21.693,17.854
				c-6.792,0-12.858-2.886-16.871-7.412c-0.67,0.058-1.348,0.092-2.035,0.092c-12.072,0-21.561-5.723-21.561-16.975
				c0-7.574,3.391-11.31,9.561-15.81c-0.165-0.978-0.85-9.551,1.438-11.836c5.435-5.437,7.896-10.104,12.758-12.519
				c-9.541,3.433-16.312,12.052-16.312,22.146c0,0.17,0.011,0.338,0.015,0.508c-7.696,4.086-12.89,11.795-12.89,20.641
				c0,13.105,11.404,23.734,25.479,23.734c0.801,0,1.591-0.037,2.373-0.104c4.674,5.272,11.745,8.64,19.659,8.64
				c13.006,0,23.728-9.08,25.274-20.81c8.093-3.979,13.604-11.894,13.604-21.002C87.466,145.83,76.058,135.203,61.985,135.203z" style="opacity:0.1;fill:#6E6E96;enable-background:new    ;"></path>
			<g>
				<path d="M25.723,172.635c0,0,13.193,2.584,13.193,15.495c0,0,3.553,21.933-10.183,37.451h31.707
					c-0.312-0.438-27.69-37.017,2.777-58.761C44.638,177.445,25.723,172.635,25.723,172.635z" style="fill:#EDE3DA;"></path>
				<path d="M60.441,227.081H25.403l2.208-2.494c13.085-14.784,9.859-36.006,9.825-36.219l-0.019-0.238
					c0-10.453-9.662-13.442-11.659-13.947c-0.266-0.059-0.404-0.094-0.404-0.094l0.658-2.926c0,0,0.155,0.029,0.433,0.099
					c1.061,0.231,4.819,0.959,10.028,0.959c6.515,0,16.314-1.162,26.002-6.702l1.616,2.522c-7.56,5.396-12.051,12.216-13.348,20.271
					c-2.754,17.102,9.479,34.428,10.884,36.347l1.745,2.386L60.441,227.081z M31.89,224.081h25.712
					c-3.807-5.892-12.269-21.056-9.822-36.245c0.944-5.862,3.402-11.115,7.334-15.7c-7.115,2.464-13.756,3.085-18.643,3.085
					c-0.733,0-1.438-0.013-2.113-0.037c3.159,2.539,6.021,6.566,6.057,12.828C40.701,189.898,43.23,208.957,31.89,224.081z" style="fill:#CCCCDE;"></path>
			</g>
			<g>
				<path d="M34.078,146.736" style="fill:#D57E58;"></path>
			</g>
			<path d="M55.313,172.6c0,0-20.02,25.849-4.633,52.981h9.764
				C60.443,225.583,40.129,197.189,55.313,172.6z" style="opacity:0.11;fill:#6E6E96;enable-background:new    ;"></path>
		</g>
	</g>
	<g style="display:none;" id="Layer_3_2_">
		<g style="display:inline;">
			<g>
				<path d="M84.635,135.921c0-11.563-10.059-20.938-22.467-20.938c-0.194,0-0.385,0.01-0.576,0.015
					c-3.917-6.135-11.102-10.245-19.318-10.245c-12.405,0-22.469,9.372-22.469,20.935c0,0.15,0.009,0.297,0.012,0.447
					c-6.781,3.603-11.361,10.398-11.361,18.197c0,11.562,10.059,20.934,22.468,20.934c0.705,0,1.403-0.033,2.092-0.094
					c4.122,4.648,10.358,7.617,17.335,7.617c11.471,0,20.925-8.012,22.293-18.352C79.771,150.934,84.635,143.96,84.635,135.921z" style="fill:#D7F7E4;"></path>
				<path d="M50.35,174.289c-6.893,0-13.391-2.749-17.95-7.568c-0.499,0.03-0.993,0.045-1.477,0.045
					c-13.216,0-23.968-10.063-23.968-22.434c0-7.766,4.327-14.995,11.354-19.075c0.247-12.172,10.902-22.004,23.964-22.004
					c8.091,0,15.716,3.899,20.112,10.231c13.115,0.11,23.75,10.132,23.75,22.437c0,8.109-4.625,15.514-12.125,19.502
					C72.163,166.232,62.139,174.289,50.35,174.289z M33.636,163.611l0.501,0.565c4.008,4.52,9.917,7.112,16.213,7.112
					c10.575,0,19.52-7.329,20.806-17.048l0.105-0.796l0.72-0.354c6.88-3.383,11.154-9.962,11.154-17.171
					c0-10.718-9.406-19.438-20.967-19.438c-0.11,0-0.219,0.004-0.327,0.008l-1.058,0.028l-0.456-0.714
					c-3.762-5.892-10.68-9.552-18.054-9.552c-11.562,0-20.969,8.718-20.969,19.435l0.029,1.34l-0.814,0.432
					c-6.517,3.463-10.565,9.928-10.565,16.873c0,10.716,9.406,19.434,20.968,19.434c0.637,0,1.296-0.029,1.96-0.088L33.636,163.611z" style="fill:#CCCCDE;"></path>
			</g>
			<path d="M61.789,114.233c-0.193,0-0.388,0.01-0.575,0.015
				c-3.141-4.918-8.383-8.534-14.573-9.775c4.898,1.229,9.023,4.208,11.562,8.175c0.162-0.004,2.416,3.886,2.583,3.886
				c10.646,0,15.601,5.737,15.601,15.659c0,6.896-2.583,11.291-8.704,14.303c-1.173,8.875-9.287,15.746-19.129,15.746
				c-5.99,0-11.34-2.543-14.877-6.531c-0.591,0.051-1.189,0.078-1.794,0.078c-10.649,0-19.013-5.049-19.013-14.969
				c0-6.683,2.986-9.973,8.432-13.938c-0.146-0.856-0.75-8.421,1.267-10.438c4.792-4.793,6.964-8.908,11.25-11.038
				C25.4,108.43,19.43,116.032,19.43,124.939c0,0.146,0.009,0.299,0.012,0.446c-6.787,3.604-11.362,10.396-11.362,18.196
				c0,11.562,10.059,20.938,22.468,20.938c0.707,0,1.399-0.035,2.093-0.098c4.121,4.646,10.356,7.617,17.336,7.617
				c11.469,0,20.924-8.016,22.291-18.354c7.133-3.507,11.997-10.479,11.997-18.521C84.258,123.605,74.199,114.233,61.789,114.233z" style="opacity:0.1;fill:#6E6E96;enable-background:new    ;"></path>
			<g>
				<path d="M29.811,147.246c0,0,11.635,2.275,11.635,13.66c0,0,3.136,19.344-8.976,33.027h27.96
					c-0.277-0.389-24.422-32.645,2.449-51.814C46.491,151.486,29.811,147.246,29.811,147.246z" style="fill:#EDE3DA;"></path>
				<path d="M60.43,195.434H29.139l2.208-2.494c11.507-13.001,8.648-31.606,8.618-31.793l-0.02-0.24
					c0-9.08-8.4-11.682-10.144-12.122c-0.237-0.053-0.361-0.084-0.361-0.084l0.657-2.926c0,0,0.139,0.026,0.39,0.089
					c0.934,0.203,4.23,0.84,8.8,0.84c5.724,0,14.334-1.021,22.847-5.887l1.615,2.523c-6.627,4.729-10.564,10.703-11.701,17.759
					c-2.417,15.012,8.334,30.231,9.568,31.918l1.746,2.386L60.43,195.434z M35.605,192.434h21.997
					c-3.446-5.397-10.644-18.588-8.514-31.812c0.805-4.996,2.849-9.493,6.1-13.444c-6.07,2.011-11.712,2.526-15.899,2.526
					c-0.463,0-0.913-0.006-1.35-0.017c2.654,2.275,4.973,5.784,5.006,11.102C43.206,162.524,45.379,179.122,35.605,192.434z" style="fill:#CCCCDE;"></path>
			</g>
			<g>
				<path d="M37.178,124.404" style="fill:#D57E58;"></path>
			</g>
			<path d="M55.904,147.212c0,0-17.65,22.793-4.085,46.722h8.611
				C60.43,193.934,42.515,168.896,55.904,147.212z" style="opacity:0.11;fill:#6E6E96;enable-background:new    ;"></path>
		</g>
		<g style="display:inline;">
			<g>
				<path d="M254.475,134.639c0-10.828-9.42-19.604-21.04-19.604c-0.183,0-0.356,0.008-0.539,0.013
					c-3.669-5.744-10.396-9.595-18.091-9.595c-11.62,0-21.041,8.776-21.041,19.604c0,0.142,0.009,0.278,0.012,0.418
					c-6.354,3.375-10.644,9.739-10.644,17.043c0,10.826,9.421,19.604,21.04,19.604c0.66,0,1.312-0.033,1.96-0.091
					c3.858,4.354,9.698,7.136,16.233,7.136c10.735,0,19.596-7.5,20.875-17.187C249.92,148.695,254.475,142.167,254.475,134.639z" style="fill:#D7F7E4;"></path>
				<path d="M222.365,170.667c-6.467,0-12.562-2.573-16.847-7.086c-0.46,0.027-0.904,0.041-1.347,0.041
					c-12.429,0-22.54-9.468-22.54-21.104c0-7.289,4.053-14.077,10.637-17.92c0.262-11.426,10.271-20.645,22.536-20.645
					c7.59,0,14.745,3.652,18.885,9.583c12.312,0.128,22.285,9.545,22.285,21.102c0,7.613-4.335,14.567-11.367,18.326
					C242.852,163.111,233.437,170.667,222.365,170.667z M206.753,160.47l0.502,0.566c3.733,4.214,9.241,6.631,15.11,6.631
					c9.857,0,18.192-6.828,19.388-15.883l0.105-0.796l0.72-0.354c6.413-3.154,10.396-9.283,10.396-15.996
					c0-9.982-8.766-18.104-19.54-18.104c-0.114,0-0.226,0.004-0.338,0.007l-1.009,0.027l-0.456-0.714
					c-3.508-5.491-9.955-8.902-16.827-8.902c-10.775,0-19.541,8.121-19.541,18.104l0.03,1.31l-0.814,0.433
					c-6.074,3.227-9.848,9.25-9.848,15.719c0,9.982,8.766,18.104,19.54,18.104c0.587,0,1.185-0.027,1.827-0.085L206.753,160.47z" style="fill:#CCCCDE;"></path>
			</g>
			<path d="M233.081,114.33c-0.187,0-0.358,0.008-0.539,0.012
				c-2.94-4.606-7.854-7.992-13.646-9.154c4.586,1.15,8.449,3.94,10.822,7.655c0.154-0.004,2.263,3.639,2.419,3.639
				c9.971,0,14.608,5.374,14.608,14.665c0,6.459-2.42,10.574-8.148,13.396c-1.1,8.312-8.698,14.739-17.914,14.739
				c-5.604,0-10.619-2.382-13.934-6.114c-0.56,0.047-1.112,0.069-1.685,0.069c-9.975,0-17.806-4.728-17.806-14.017
				c0-6.256,2.8-9.338,7.896-13.055c-0.141-0.807-0.7-7.887,1.188-9.771c4.486-4.488,6.521-8.343,10.535-10.337
				c-7.879,2.833-13.471,9.952-13.471,18.292c0,0.14,0.006,0.275,0.012,0.418c-6.355,3.373-10.646,9.736-10.646,17.041
				c0,10.824,9.42,19.604,21.041,19.604c0.661,0,1.313-0.031,1.959-0.088c3.859,4.354,9.699,7.133,16.234,7.133
				c10.74,0,19.594-7.5,20.875-17.187c6.68-3.285,11.232-9.813,11.232-17.343C254.122,123.105,244.702,114.33,233.081,114.33z" style="opacity:0.1;fill:#6E6E96;enable-background:new    ;"></path>
			<g>
				<path d="M203.135,145.24c0,0,10.896,2.135,10.896,12.799c0,0,2.937,18.107-8.403,30.928h26.184
					c-0.26-0.357-22.87-30.564,2.294-48.521C218.754,149.214,203.135,145.24,203.135,145.24z" style="fill:#EDE3DA;"></path>
				<path d="M231.812,190.467h-29.513l2.205-2.494c10.718-12.116,8.074-29.521,8.047-29.694l-0.02-0.239
					c0-8.434-7.804-10.854-9.429-11.267c-0.222-0.049-0.338-0.078-0.338-0.078l0.658-2.926c0,0,0.131,0.024,0.367,0.083
					c0.875,0.191,3.956,0.787,8.229,0.787c5.348,0,13.39-0.953,21.342-5.495l1.615,2.523c-6.197,4.422-9.872,10.01-10.925,16.608
					c-2.245,14.082,7.802,28.219,8.954,29.784l1.76,2.39L231.812,190.467z M208.751,187.467h20.23
					c-3.271-5.139-9.858-17.334-7.893-29.664c0.735-4.609,2.591-8.769,5.539-12.433c-5.578,1.803-10.751,2.269-14.608,2.269
					c-0.345,0-0.683-0.004-1.012-0.011c2.418,2.149,4.49,5.412,4.523,10.293C215.781,159.586,217.783,175.011,208.751,187.467z" style="fill:#CCCCDE;"></path>
			</g>
			<g>
				<path d="M210.036,123.855" style="fill:#D57E58;"></path>
			</g>
			<path d="M227.57,145.212c0,0-16.527,21.345-3.82,43.752h8.062
				C231.808,188.964,215.032,165.518,227.57,145.212z" style="opacity:0.11;fill:#6E6E96;enable-background:new    ;"></path>
		</g>
		<g style="display:inline;">
			<g>
				<path d="M217.772,136.398c0-16.621-14.461-30.094-32.299-30.094c-0.278,0-0.554,0.012-0.828,0.02
					c-5.632-8.816-15.959-14.729-27.771-14.729c-17.838,0-32.301,13.475-32.301,30.097c0,0.215,0.014,0.43,0.018,0.646
					c-9.755,5.181-16.339,14.944-16.339,26.156c0,16.62,14.462,30.099,32.3,30.099c1.014,0,2.018-0.052,3.008-0.14
					c5.926,6.688,14.893,10.95,24.921,10.95c16.489,0,30.081-11.515,32.048-26.379C210.782,157.98,217.772,147.953,217.772,136.398z" style="fill:#D7F7E4;"></path>
				<path d="M168.481,190.902c-9.84,0-19.102-3.962-25.537-10.896c-0.825,0.058-1.613,0.086-2.392,0.086
					c-18.637,0-33.8-14.175-33.8-31.599c0-11.044,6.23-21.322,16.322-27.035c0.134-17.316,15.245-31.363,33.8-31.363
					c11.534,0,22.397,5.616,28.565,14.71c0.012,0,0.022,0,0.033,0c18.637,0,33.799,14.173,33.799,31.594
					c0,11.517-6.635,22.027-17.371,27.612C199.443,179.396,185.225,190.902,168.481,190.902z M144.181,176.892l0.502,0.565
					c5.881,6.639,14.555,10.445,23.798,10.445c15.531,0,28.669-10.78,30.561-25.075l0.105-0.796l0.72-0.354
					c10.119-4.977,16.405-14.663,16.405-25.279c0-15.767-13.816-28.594-30.799-28.594c-0.184,0-0.366,0.006-0.548,0.012l-1.088,0.03
					l-0.456-0.714c-5.531-8.659-15.688-14.037-26.507-14.037c-16.983,0-30.801,12.829-30.801,28.597c0,0.106,0.004,0.213,0.008,0.32
					l0.026,1.219l-0.813,0.432c-9.587,5.091-15.542,14.605-15.542,24.831c0,15.77,13.817,28.599,30.8,28.599
					c0.92,0,1.861-0.044,2.875-0.134L144.181,176.892z" style="fill:#CCCCDE;"></path>
			</g>
			<path d="M184.931,105.221c-0.276,0-0.552,0.012-0.827,0.02
				c-4.516-7.07-12.051-12.27-20.949-14.052c7.041,1.767,12.975,6.049,16.614,11.751c0.237-0.006,3.478,5.586,3.713,5.586
				c15.312,0,22.433,8.248,22.433,22.512c0,9.912-3.719,16.23-12.517,20.562c-1.687,12.754-13.353,22.635-27.5,22.635
				c-8.606,0-16.302-3.653-21.387-9.396c-0.851,0.07-1.71,0.113-2.58,0.113c-15.31,0-27.332-7.255-27.332-21.517
				c0-9.604,4.298-14.336,12.12-20.039c-0.209-1.233-1.077-12.104,1.82-15.002c6.89-6.89,10.011-12.808,16.174-15.868
				c-12.096,4.35-20.679,15.277-20.679,28.08c0,0.216,0.011,0.432,0.017,0.646c-9.756,5.178-16.34,14.945-16.34,26.156
				c0,16.619,14.461,30.098,32.3,30.098c1.017,0,2.017-0.049,3.008-0.135c5.925,6.688,14.894,10.945,24.922,10.945
				c16.487,0,30.078-11.515,32.046-26.379c10.258-5.043,17.244-15.066,17.244-26.623C217.23,118.694,202.77,105.221,184.931,105.221
				z" style="opacity:0.1;fill:#6E6E96;enable-background:new    ;"></path>
			<g>
				<path d="M138.959,152.676c0,0,16.727,3.271,16.727,19.643c0,0,4.504,27.808-12.9,47.479h40.191
					c-0.396-0.555-35.104-46.922,3.521-74.483C162.938,158.775,138.959,152.676,138.959,152.676z" style="fill:#EDE3DA;"></path>
				<path d="M182.977,221.298h-43.521l2.207-2.494c16.739-18.921,12.587-45.975,12.543-46.245l-0.02-0.24
					c0-13.556-12.514-17.421-15.085-18.07c-0.336-0.073-0.512-0.118-0.512-0.118l0.658-2.926c0,0,0.192,0.037,0.539,0.123
					c1.35,0.295,6.156,1.228,12.811,1.228c8.305,0,20.8-1.482,33.157-8.543l1.615,2.523c-9.675,6.903-15.423,15.638-17.085,25.96
					c-3.517,21.84,12.08,43.926,13.87,46.372l1.745,2.386L182.977,221.298z M145.975,218.298h34.144
					c-4.57-6.931-15.965-26.6-12.796-46.28c1.266-7.86,4.704-14.852,10.254-20.881c-9.524,3.546-18.482,4.418-24.979,4.418
					c-1.404,0-2.726-0.039-3.956-0.104c4.314,3.099,8.506,8.285,8.545,16.749C157.523,174.407,160.876,199.071,145.975,218.298z" style="fill:#CCCCDE;"></path>
			</g>
			<g>
				<path d="M149.552,119.846" style="fill:#D57E58;"></path>
			</g>
			<path d="M176.472,152.63c0,0-25.378,32.767-5.873,67.164h12.378
				C182.977,219.796,157.223,183.803,176.472,152.63z" style="opacity:0.11;fill:#6E6E96;enable-background:new    ;"></path>
		</g>
		<g style="display:inline;">
			<g>
				<path d="M145.936,137.51c0-13.646-11.873-24.707-26.517-24.707c-0.229,0-0.454,0.01-0.684,0.016
					c-4.62-7.238-13.102-12.092-22.8-12.092c-14.644,0-26.518,11.063-26.518,24.707c0,0.178,0.012,0.354,0.015,0.528
					c-8.01,4.252-13.414,12.271-13.414,21.478c0,13.646,11.872,24.707,26.521,24.707c0.832,0,1.651-0.041,2.469-0.104
					c4.864,5.483,12.224,8.983,20.46,8.983c13.537,0,24.695-9.45,26.309-21.651C140.195,155.229,145.936,146.998,145.936,137.51z" style="fill:#D7F7E4;"></path>
				<path d="M105.469,182.525c-8.108,0-15.747-3.248-21.08-8.938c-0.656,0.039-1.267,0.059-1.849,0.059
					c-15.451,0-28.021-11.757-28.021-26.207c0-9.119,5.111-17.604,13.402-22.356c0.202-14.289,12.691-25.856,28.015-25.856
					c9.512,0,18.471,4.606,23.595,12.076c15.398,0.056,27.905,11.791,27.905,26.207c0,9.51-5.454,18.196-14.288,22.85
					C131.051,173.052,119.3,182.525,105.469,182.525z M85.636,170.488l0.495,0.559c4.78,5.388,11.829,8.479,19.338,8.479
					c12.617,0,23.288-8.748,24.821-20.348l0.105-0.795l0.719-0.354c8.217-4.047,13.321-11.909,13.321-20.519
					c0-12.797-11.223-23.207-25.017-23.207c-0.144,0-0.286,0.005-0.428,0.009l-1.064,0.028l-0.456-0.714
					c-4.488-7.031-12.74-11.399-21.536-11.399c-13.795,0-25.018,10.411-25.018,23.207l0.03,1.422l-0.812,0.432
					c-7.783,4.131-12.617,11.854-12.617,20.152c0,12.797,11.225,23.207,25.021,23.207c0.717,0,1.486-0.032,2.353-0.1L85.636,170.488
					z" style="fill:#CCCCDE;"></path>
			</g>
			<path d="M118.973,111.916c-0.228,0-0.452,0.009-0.679,0.015
				c-3.707-5.805-9.896-10.072-17.199-11.537c5.78,1.45,10.648,4.966,13.641,9.647c0.194-0.005,2.854,4.586,3.052,4.586
				c12.563,0,18.414,6.771,18.414,18.479c0,8.142-3.054,13.326-10.271,16.882c-1.384,10.475-10.961,18.584-22.576,18.584
				c-7.065,0-13.384-3.005-17.559-7.716c-0.698,0.063-1.404,0.099-2.118,0.099c-12.568,0-22.438-5.957-22.438-17.664
				c0-7.887,3.527-11.771,9.948-16.451c-0.171-1.018-0.884-9.938,1.496-12.315c5.655-5.657,8.218-10.515,13.277-13.027
				c-9.934,3.57-16.979,12.542-16.979,23.053c0,0.179,0.014,0.354,0.019,0.527c-8.015,4.25-13.415,12.271-13.415,21.479
				c0,13.645,11.873,24.706,26.518,24.706c0.834,0,1.655-0.04,2.47-0.108c4.863,5.488,12.227,8.988,20.461,8.988
				c13.535,0,24.692-9.451,26.312-21.656c8.418-4.144,14.158-12.371,14.158-21.854C145.491,122.977,133.618,111.916,118.973,111.916
				z" style="opacity:0.1;fill:#6E6E96;enable-background:new    ;"></path>
			<g>
				<path d="M81.231,150.875c0,0,13.731,2.688,13.731,16.129c0,0,3.697,22.822-10.595,38.979h33
					c-0.328-0.455-28.824-38.521,2.89-61.15C100.918,155.88,81.231,150.875,81.231,150.875z" style="fill:#EDE3DA;"></path>
				<path d="M117.367,207.482h-36.33l2.206-2.494c13.663-15.445,10.273-37.523,10.238-37.744l-0.02-0.24
					c0-10.929-10.096-14.051-12.181-14.577c-0.276-0.062-0.42-0.098-0.42-0.098l0.658-2.926c0,0,0.16,0.03,0.449,0.103
					c1.105,0.241,5.025,1,10.457,1c6.787,0,16.995-1.21,27.088-6.977l1.615,2.523c-7.892,5.632-12.576,12.753-13.923,21.166
					c-2.861,17.866,9.887,35.854,11.351,37.847l1.753,2.388L117.367,207.482z M87.529,204.482h26.991
					c-3.932-6.047-12.823-21.844-10.278-37.738c0.989-6.177,3.597-11.705,7.779-16.519c-7.479,2.622-14.467,3.28-19.597,3.28
					c-0.833,0-1.63-0.017-2.39-0.046c3.334,2.628,6.391,6.833,6.427,13.426C96.755,168.822,99.409,188.729,87.529,204.482z" style="fill:#CCCCDE;"></path>
			</g>
			<g>
				<path d="M89.928,123.921" style="fill:#D57E58;"></path>
			</g>
			<path d="M112.027,150.837c0,0-20.835,26.897-4.817,55.142h10.162
				C117.369,205.979,96.225,176.428,112.027,150.837z" style="opacity:0.11;fill:#6E6E96;enable-background:new    ;"></path>
		</g>
		<g style="display:inline;">
			<g>
				<path d="M253.159,161.646c0-12.345-10.74-22.352-23.988-22.352c-0.203,0-0.407,0.009-0.611,0.016
					c-4.186-6.55-11.854-10.938-20.625-10.938c-13.248,0-23.982,10.008-23.982,22.353c0,0.161,0.012,0.315,0.014,0.479
					c-7.244,3.85-12.135,11.104-12.135,19.432c0,12.346,10.733,22.353,23.982,22.353c0.753,0,1.497-0.039,2.23-0.103
					c4.396,4.967,11.061,8.133,18.511,8.133c12.245,0,22.339-8.551,23.799-19.592C247.965,177.673,253.159,170.229,253.159,161.646z" style="fill:#D7F7E4;"></path>
				<path d="M216.555,202.518c-7.357,0-14.283-2.937-19.126-8.083c-0.561,0.035-1.094,0.053-1.615,0.053
					c-14.051,0-25.482-10.7-25.482-23.853c0-8.272,4.622-15.974,12.125-20.31c0.228-12.969,11.57-23.453,25.479-23.453
					c8.62,0,16.745,4.165,21.419,10.924c13.971,0.092,25.306,10.756,25.306,23.851c0,8.63-4.937,16.518-12.937,20.764
					C239.782,193.929,229.111,202.518,216.555,202.518z M198.667,191.325l0.5,0.565c4.291,4.847,10.628,7.627,17.388,7.627
					c11.341,0,20.934-7.862,22.312-18.288l0.105-0.795l0.719-0.354c7.383-3.64,11.969-10.703,11.969-18.434
					c0-11.498-10.088-20.852-22.488-20.852c-0.148,0-0.298,0.006-0.447,0.011l-0.968,0.032l-0.46-0.72
					c-4.039-6.32-11.458-10.246-19.361-10.246c-12.396,0-22.482,9.354-22.482,20.853l0.024,1.374l-0.807,0.429
					c-6.994,3.717-11.339,10.655-11.339,18.107c0,11.498,10.086,20.853,22.482,20.853c0.66,0,1.348-0.031,2.102-0.097
					L198.667,191.325z" style="fill:#CCCCDE;"></path>
			</g>
			<path d="M228.767,138.49c-0.206,0-0.409,0.014-0.614,0.018
				c-3.354-5.25-8.945-9.109-15.558-10.438c5.229,1.312,9.633,4.492,12.339,8.729c0.175-0.004,2.579,4.146,2.757,4.146
				c11.368,0,16.655,6.123,16.655,16.721c0,7.359-2.757,12.057-9.291,15.271c-1.252,9.474-9.915,16.812-20.423,16.812
				c-6.396,0-12.106-2.723-15.884-6.979c-0.631,0.056-1.271,0.086-1.916,0.086c-11.368,0-20.299-5.39-20.299-15.979
				c0-7.136,3.188-10.646,9.002-14.886c-0.156-0.918-0.807-8.985,1.353-11.141c5.116-5.117,7.438-9.515,12.011-11.785
				c-8.979,3.229-15.354,11.347-15.354,20.854c0,0.158,0.012,0.314,0.016,0.479c-7.246,3.849-12.137,11.104-12.137,19.431
				c0,12.344,10.738,22.353,23.988,22.353c0.754,0,1.496-0.035,2.229-0.103c4.401,4.967,11.063,8.133,18.509,8.133
				c12.245,0,22.339-8.555,23.803-19.592c7.611-3.744,12.811-11.188,12.811-19.771C252.754,148.5,242.016,138.49,228.767,138.49z" style="opacity:0.1;fill:#6E6E96;enable-background:new    ;"></path>
			<g>
				<path d="M194.625,173.734c0,0,12.422,2.434,12.422,14.588c0,0,3.345,20.646-9.584,35.262h29.853
					c-0.296-0.41-26.069-34.85,2.615-55.316C212.435,178.266,194.625,173.734,194.625,173.734z" style="fill:#EDE3DA;"></path>
				<path d="M227.316,225.084h-33.182l2.206-2.494c12.288-13.892,9.258-33.829,9.227-34.029l-0.02-0.238
					c0-9.772-9.036-12.571-10.909-13.045c-0.251-0.056-0.383-0.089-0.383-0.089l0.658-2.926c0,0,0.147,0.028,0.411,0.094
					c0.999,0.218,4.532,0.902,9.431,0.902c6.121,0,15.329-1.092,24.432-6.294l1.615,2.523c-7.105,5.07-11.322,11.479-12.535,19.051
					c-2.58,16.109,8.919,32.335,10.239,34.132l1.754,2.388L227.316,225.084z M200.609,222.084h23.868
					c-3.633-5.64-11.453-19.78-9.173-34.02c0.872-5.443,3.126-10.331,6.725-14.609c-6.594,2.235-12.735,2.804-17.273,2.804
					c-0.601,0-1.181-0.01-1.74-0.026c2.908,2.41,5.497,6.181,5.532,11.972C208.82,190.017,211.172,207.852,200.609,222.084z" style="fill:#CCCCDE;"></path>
			</g>
			<g>
				<path d="M202.493,149.354" style="fill:#D57E58;"></path>
			</g>
			<path d="M222.484,173.703c0,0-18.847,24.334-4.357,49.881h9.188
				C227.315,223.583,208.188,196.852,222.484,173.703z" style="opacity:0.11;fill:#6E6E96;enable-background:new    ;"></path>
		</g>
		<g style="display:inline;">
			<g>
				<path d="M88.893,159.796c0-13.11-11.408-23.737-25.479-23.737c-0.224,0-0.438,0.008-0.653,0.015
					c-4.443-6.953-12.589-11.613-21.907-11.613c-14.067,0-25.479,10.629-25.479,23.736c0,0.17,0.011,0.336,0.015,0.508
					C7.693,152.787,2.5,160.496,2.5,169.339c0,13.106,11.407,23.736,25.479,23.736c0.8,0,1.59-0.041,2.372-0.104
					c4.674,5.271,11.745,8.639,19.659,8.639c13.007,0,23.729-9.081,25.279-20.809C83.378,176.818,88.893,168.912,88.893,159.796z" style="fill:#D7F7E4;"></path>
				<path d="M50.01,203.109c-7.796,0-15.142-3.122-20.277-8.591c-0.62,0.038-1.198,0.057-1.754,0.057
					C13.103,194.575,1,183.254,1,169.339c0-8.773,4.911-16.937,12.878-21.514c0.213-13.744,12.232-24.865,26.976-24.865
					c9.145,0,17.762,4.424,22.702,11.599c14.812,0.072,26.837,11.365,26.837,25.237c0,9.149-5.242,17.507-13.734,21.99
					C74.627,193.997,63.318,203.109,50.01,203.109z M30.976,191.415l0.497,0.561c4.583,5.169,11.339,8.134,18.537,8.134
					c12.094,0,22.323-8.386,23.792-19.505l0.105-0.795l0.719-0.354c7.875-3.877,12.766-11.41,12.766-19.659
					c0-12.262-10.757-22.237-23.979-22.237c-0.183,0-0.36,0.006-0.536,0.012l-0.853,0.027l-0.529-0.717
					c-4.305-6.736-12.215-10.921-20.643-10.921c-13.222,0-23.979,9.976-23.979,22.236l0.035,1.399l-0.817,0.434
					C8.634,153.985,4,161.385,4,169.339c0,12.261,10.757,22.236,23.979,22.236c0.689,0,1.425-0.032,2.251-0.1L30.976,191.415z" style="fill:#CCCCDE;"></path>
			</g>
			<path d="M62.985,135.203c-0.219,0-0.435,0.01-0.648,0.018
				c-3.563-5.578-9.506-9.68-16.525-11.088c5.554,1.395,10.231,4.771,13.106,9.271c0.186-0.004,2.735,4.406,2.928,4.406
				c12.076,0,17.692,6.506,17.692,17.758c0,7.82-2.933,12.806-9.87,16.222c-1.33,10.063-10.531,17.854-21.693,17.854
				c-6.792,0-12.858-2.886-16.871-7.412c-0.67,0.058-1.348,0.092-2.035,0.092c-12.072,0-21.561-5.723-21.561-16.975
				c0-7.574,3.391-11.31,9.561-15.81c-0.165-0.978-0.85-9.551,1.438-11.836c5.435-5.437,7.896-10.104,12.758-12.519
				c-9.541,3.433-16.312,12.052-16.312,22.147c0,0.17,0.011,0.338,0.015,0.509c-7.696,4.084-12.89,11.791-12.89,20.637
				c0,13.106,11.404,23.735,25.479,23.735c0.801,0,1.591-0.038,2.373-0.104c4.674,5.273,11.745,8.643,19.659,8.643
				c13.006,0,23.728-9.082,25.274-20.812c8.093-3.979,13.604-11.891,13.604-21.002C88.466,145.83,77.058,135.203,62.985,135.203z" style="opacity:0.1;fill:#6E6E96;enable-background:new    ;"></path>
			<g>
				<path d="M26.723,172.635c0,0,13.193,2.584,13.193,15.495c0,0,3.553,21.933-10.183,37.451h31.707
					c-0.312-0.438-27.69-37.017,2.777-58.761C45.638,177.445,26.723,172.635,26.723,172.635z" style="fill:#EDE3DA;"></path>
				<path d="M61.441,227.081H26.403l2.208-2.494c13.085-14.784,9.859-36.006,9.825-36.219l-0.019-0.238
					c0-10.453-9.662-13.442-11.659-13.947c-0.266-0.059-0.404-0.094-0.404-0.094l0.658-2.926c0,0,0.155,0.029,0.433,0.099
					c1.061,0.231,4.819,0.959,10.028,0.959c6.515,0,16.314-1.162,26.002-6.702l1.616,2.522c-7.56,5.396-12.051,12.216-13.348,20.271
					c-2.754,17.102,9.479,34.428,10.884,36.347l1.745,2.386L61.441,227.081z M32.89,224.081h25.712
					c-3.807-5.892-12.269-21.056-9.822-36.245c0.944-5.862,3.402-11.115,7.334-15.7c-7.115,2.464-13.756,3.085-18.643,3.085
					c-0.733,0-1.438-0.013-2.113-0.037c3.159,2.539,6.021,6.566,6.057,12.828C41.701,189.898,44.23,208.957,32.89,224.081z" style="fill:#CCCCDE;"></path>
			</g>
			<g>
				<path d="M35.078,146.736" style="fill:#D57E58;"></path>
			</g>
			<path d="M56.313,172.6c0,0-20.02,25.849-4.633,52.981h9.764
				C61.443,225.583,41.129,197.189,56.313,172.6z" style="opacity:0.11;fill:#6E6E96;enable-background:new    ;"></path>
		</g>
	</g>
	<g id="Layer_4_2_">
		<g style="opacity:0.39;" id="Layer_4_3_">
			<path d="M249.913,110.333c0-39.901-32.428-72.247-72.422-72.247c-0.621,0-1.236,0.03-1.855,0.045
				c-12.629-21.166-35.779-35.36-62.269-35.36c-39.998,0-72.423,32.348-72.423,72.25c0,0.519,0.029,1.028,0.04,1.546
				c0,21.603-36.637,35.89-36.637,62.802c0,39.898,32.425,72.244,72.422,72.244c2.275,0,4.521-0.119,6.744-0.322
				c29.338,0,33.382,26.285,55.88,26.285c36.973,0,67.442-27.639,71.854-63.328C221.429,149.339,249.913,138.072,249.913,110.333z" style="fill:#BDDBFF;"></path>
		</g>
	</g>
</g>
<g id="Layer_8">
</g>
<g id="Layer_2_1_">
</g>
<g id="Layer_1_1_">
	<g style="display:none;" id="Layer_3_5_">
		<g style="display:inline;">
			<path d="M85.089,124.891c0-10.819-9.413-19.591-21.025-19.591
				c-0.181,0-0.357,0.007-0.539,0.013c-3.666-5.741-10.389-9.587-18.078-9.587c-11.609,0-21.023,8.77-21.023,19.591
				c0,0.139,0.008,0.277,0.011,0.417c-6.349,3.372-10.635,9.732-10.635,17.03c0,10.819,9.413,19.59,21.022,19.59
				c0.66,0,1.313-0.03,1.958-0.088c3.857,4.354,9.693,7.129,16.225,7.129c10.731,0,19.581-7.496,20.858-17.172
				C80.538,138.939,85.089,132.412,85.089,124.891z" style="fill:#D7F7E4;stroke:#CCCCDE;stroke-width:3;"></path>
			<path d="M63.71,104.595c-0.183,0-0.359,0.009-0.538,0.014
				c-2.939-4.603-7.845-7.986-13.637-9.147c4.583,1.15,8.441,3.938,10.813,7.65c0.155-0.004,2.261,3.637,2.417,3.637
				c9.964,0,14.602,5.369,14.602,14.653c0,6.453-2.417,10.565-8.146,13.383c-1.098,8.307-8.691,14.736-17.901,14.736
				c-5.604,0-10.609-2.379-13.921-6.111c-0.554,0.047-1.11,0.07-1.68,0.07c-9.965,0-17.792-4.725-17.792-14.004
				c0-6.257,2.798-9.334,7.891-13.043c-0.136-0.801-0.699-7.881,1.188-9.767c4.481-4.484,6.517-8.337,10.528-10.33
				c-7.874,2.831-13.464,9.944-13.464,18.282c0,0.137,0.011,0.279,0.014,0.418c-6.354,3.372-10.639,9.728-10.639,17.026
				c0,10.818,9.413,19.594,21.025,19.594c0.662,0,1.313-0.033,1.959-0.092c3.856,4.352,9.691,7.129,16.223,7.129
				c10.732,0,19.581-7.498,20.86-17.176c6.675-3.281,11.229-9.811,11.229-17.332C84.736,113.368,75.323,104.595,63.71,104.595z" style="opacity:0.1;fill:#6E6E96;enable-background:new    ;"></path>
			<path d="M33.785,135.488c0,0,10.888,2.131,10.888,12.785
				c0,0,2.931,18.1-8.399,30.905h26.165c-0.259-0.362-22.854-30.552,2.292-48.489C49.395,139.458,33.785,135.488,33.785,135.488z" style="fill:#EDE3DA;stroke:#CCCCDE;stroke-width:3;"></path>
			<g>
				<path d="M40.68,114.115" style="fill:#D57E58;"></path>
			</g>
			<path d="M58.204,135.457c0,0-16.521,21.33-3.823,43.725h8.058
				C62.438,179.18,45.674,155.75,58.204,135.457z" style="opacity:0.11;fill:#6E6E96;enable-background:new    ;"></path>
		</g>
		<g style="display:inline;">
			<path d="M244.023,123.691c0-10.132-8.812-18.346-19.688-18.346
				c-0.171,0-0.338,0.007-0.505,0.012c-3.437-5.375-9.729-8.979-16.932-8.979c-10.874,0-19.688,8.214-19.688,18.346
				c0,0.131,0.009,0.262,0.011,0.391c-5.945,3.158-9.96,9.112-9.96,15.948c0,10.129,8.816,18.347,19.689,18.347
				c0.614,0,1.228-0.029,1.834-0.082c3.607,4.071,9.072,6.676,15.188,6.676c10.048,0,18.337-7.018,19.534-16.082
				C239.762,136.846,244.023,130.734,244.023,123.691z" style="fill:#D7F7E4;stroke:#CCCCDE;stroke-width:3;"></path>
			<path d="M224.003,104.685c-0.173,0-0.335,0.008-0.505,0.012
				c-2.751-4.312-7.352-7.479-12.771-8.565c4.291,1.076,7.906,3.687,10.127,7.163c0.146-0.003,2.117,3.405,2.267,3.405
				c9.33,0,13.671,5.029,13.671,13.723c0,6.046-2.268,9.894-7.626,12.537c-1.028,7.774-8.143,13.795-16.767,13.795
				c-5.247,0-9.938-2.229-13.039-5.726c-0.521,0.045-1.041,0.067-1.571,0.067c-9.334,0-16.662-4.426-16.662-13.116
				c0-5.856,2.62-8.741,7.39-12.218c-0.13-0.755-0.656-7.38,1.11-9.145c4.194-4.2,6.104-7.807,9.854-9.672
				c-7.373,2.649-12.604,9.312-12.604,17.117c0,0.13,0.005,0.256,0.011,0.392c-5.945,3.156-9.962,9.109-9.962,15.945
				c0,10.129,8.815,18.347,19.688,18.347c0.619,0,1.229-0.031,1.837-0.084c3.608,4.075,9.073,6.676,15.188,6.676
				c10.05,0,18.336-7.019,19.535-16.084c6.25-3.073,10.51-9.183,10.51-16.228C243.693,112.899,234.878,104.685,224.003,104.685z" style="opacity:0.1;fill:#6E6E96;enable-background:new    ;"></path>
			<path d="M195.98,133.613c0,0,10.196,1.996,10.196,11.975
				c0,0,2.746,16.947-7.866,28.939h24.503c-0.243-0.334-21.399-28.603,2.146-45.402C210.597,137.332,195.98,133.613,195.98,133.613z" style="fill:#EDE3DA;stroke:#CCCCDE;stroke-width:3;"></path>
			<g>
				<path d="M202.438,113.601" style="fill:#D57E58;"></path>
			</g>
			<path d="M218.847,133.585c0,0-15.47,19.976-3.578,40.94h7.546
				C222.813,174.527,207.113,152.587,218.847,133.585z" style="opacity:0.11;fill:#6E6E96;enable-background:new    ;"></path>
		</g>
		<g style="display:inline;">
			<path d="M209.678,125.337c0-15.556-13.532-28.161-30.225-28.161
				c-0.264,0-0.521,0.011-0.774,0.018c-5.271-8.251-14.935-13.784-25.987-13.784c-16.69,0-30.227,12.61-30.227,28.164
				c0,0.2,0.012,0.399,0.016,0.604c-9.129,4.849-15.291,13.985-15.291,24.477c0,15.555,13.535,28.166,30.229,28.166
				c0.948,0,1.888-0.049,2.812-0.131c5.545,6.26,13.936,10.248,23.32,10.248c15.431,0,28.15-10.773,29.99-24.686
				C203.136,145.535,209.678,136.15,209.678,125.337z" style="fill:#D7F7E4;stroke:#CCCCDE;stroke-width:3;"></path>
			<path d="M178.945,96.162c-0.259,0-0.517,0.011-0.771,0.019
				c-4.229-6.617-11.276-11.482-19.604-13.15c6.592,1.652,12.141,5.66,15.549,10.997c0.224-0.005,3.252,5.228,3.476,5.228
				c14.325,0,20.988,7.718,20.988,21.064c0,9.276-3.479,15.188-11.709,19.242c-1.578,11.936-12.495,21.182-25.734,21.182
				c-8.058,0-15.255-3.422-20.013-8.793c-0.797,0.068-1.604,0.107-2.415,0.107c-14.326,0-25.577-6.787-25.577-20.137
				c0-8.986,4.021-13.414,11.341-18.751c-0.195-1.155-1.008-11.327,1.703-14.04c6.447-6.447,9.368-11.985,15.136-14.849
				c-11.316,4.07-19.352,14.296-19.352,26.276c0,0.201,0.011,0.4,0.017,0.605c-9.129,4.846-15.291,13.985-15.291,24.478
				c0,15.555,13.533,28.163,30.229,28.163c0.951,0,1.888-0.045,2.812-0.127c5.544,6.261,13.937,10.245,23.321,10.245
				c15.429,0,28.146-10.773,29.988-24.686c9.596-4.721,16.137-14.104,16.137-24.912C209.171,108.769,195.639,96.162,178.945,96.162z" style="opacity:0.1;fill:#6E6E96;enable-background:new    ;"></path>
			<path d="M135.926,140.568c0,0,15.652,3.062,15.652,18.385
				c0,0,4.215,26.021-12.076,44.43h37.614c-0.372-0.52-32.854-43.908,3.296-69.699C158.365,146.279,135.926,140.568,135.926,140.568
				z" style="fill:#EDE3DA;stroke:#CCCCDE;stroke-width:3;"></path>
			<g>
				<path d="M145.838,109.846" style="fill:#D57E58;"></path>
			</g>
			<path d="M171.029,140.527c0,0-23.745,30.662-5.493,62.852h11.583
				C177.116,203.378,153.017,169.697,171.029,140.527z" style="opacity:0.11;fill:#6E6E96;enable-background:new    ;"></path>
		</g>
		<g style="display:inline;">
			<path d="M142.454,126.378c0-12.77-11.11-23.122-24.815-23.122
				c-0.213,0-0.424,0.01-0.636,0.016c-4.326-6.774-12.26-11.315-21.336-11.315c-13.704,0-24.815,10.352-24.815,23.12
				c0,0.167,0.011,0.331,0.017,0.495c-7.496,3.979-12.556,11.482-12.556,20.099c0,12.771,11.109,23.121,24.815,23.121
				c0.779,0,1.549-0.039,2.311-0.101c4.555,5.134,11.438,8.408,19.146,8.408c12.668,0,23.107-8.847,24.62-20.265
				C137.082,142.958,142.454,135.255,142.454,126.378z" style="fill:#D7F7E4;stroke:#CCCCDE;stroke-width:3;"></path>
			<path d="M117.223,102.426c-0.215,0-0.424,0.008-0.637,0.014
				c-3.469-5.432-9.258-9.425-16.094-10.796c5.406,1.357,9.964,4.648,12.766,9.028c0.181-0.005,2.667,4.292,2.852,4.292
				c11.763,0,17.231,6.336,17.231,17.293c0,7.617-2.854,12.472-9.61,15.798c-1.295,9.799-10.258,17.392-21.127,17.392
				c-6.616,0-12.521-2.812-16.432-7.22c-0.653,0.058-1.314,0.09-1.982,0.09c-11.761,0-20.997-5.573-20.997-16.528
				c0-7.379,3.304-11.017,9.312-15.396c-0.16-0.948-0.827-9.299,1.397-11.524c5.292-5.293,7.69-9.84,12.427-12.191
				c-9.292,3.341-15.891,11.735-15.891,21.572c0,0.166,0.01,0.33,0.017,0.495c-7.497,3.977-12.557,11.48-12.557,20.097
				c0,12.771,11.11,23.119,24.815,23.119c0.78,0,1.548-0.037,2.31-0.103c4.555,5.138,11.439,8.41,19.147,8.41
				c12.667,0,23.105-8.845,24.621-20.267c7.878-3.873,13.25-11.575,13.25-20.448C142.037,112.778,130.927,102.426,117.223,102.426z" style="opacity:0.1;fill:#6E6E96;enable-background:new    ;"></path>
			<path d="M81.904,138.882c0,0,12.853,2.517,12.853,15.093
				c0,0,3.46,21.358-9.915,36.478h30.88c-0.307-0.427-26.973-36.049,2.705-57.228C100.327,143.57,81.904,138.882,81.904,138.882z" style="fill:#EDE3DA;stroke:#CCCCDE;stroke-width:3;"></path>
			<g>
				<path d="M90.042,113.661" style="fill:#D57E58;"></path>
			</g>
			<path d="M110.723,138.85c0,0-19.497,25.172-4.511,51.603h9.509
				C115.722,190.451,95.935,162.796,110.723,138.85z" style="opacity:0.11;fill:#6E6E96;enable-background:new    ;"></path>
		</g>
		<g style="display:inline;">
			<path d="M242.792,148.964c0-11.553-10.051-20.913-22.448-20.913
				c-0.188,0-0.379,0.008-0.57,0.014c-3.919-6.129-11.092-10.234-19.301-10.234c-12.396,0-22.444,9.361-22.444,20.915
				c0,0.147,0.014,0.297,0.016,0.446c-6.778,3.604-11.355,10.394-11.355,18.185c0,11.56,10.046,20.92,22.444,20.92
				c0.705,0,1.401-0.035,2.086-0.1c4.117,4.651,10.352,7.614,17.323,7.614c11.459,0,20.902-8.006,22.271-18.336
				C237.932,163.962,242.792,156.998,242.792,148.964z" style="fill:#D7F7E4;stroke:#CCCCDE;stroke-width:3;"></path>
			<path d="M219.967,127.296c-0.193,0-0.383,0.009-0.575,0.015
				c-3.139-4.914-8.375-8.524-14.559-9.768c4.894,1.229,9.015,4.203,11.547,8.166c0.163-0.004,2.413,3.885,2.579,3.885
				c10.639,0,15.586,5.729,15.586,15.646c0,6.892-2.579,11.278-8.694,14.291c-1.172,8.862-9.277,15.731-19.108,15.731
				c-5.985,0-11.329-2.545-14.864-6.531c-0.59,0.054-1.189,0.082-1.793,0.082c-10.641,0-18.995-5.043-18.995-14.953
				c0-6.678,2.98-9.963,8.424-13.93c-0.146-0.858-0.753-8.41,1.266-10.426c4.788-4.789,6.957-8.904,11.239-11.028
				c-8.401,3.021-14.371,10.616-14.371,19.514c0,0.147,0.016,0.298,0.02,0.449c-6.78,3.599-11.359,10.392-11.359,18.181
				c0,11.551,10.049,20.916,22.448,20.916c0.705,0,1.397-0.031,2.088-0.097c4.119,4.647,10.35,7.61,17.32,7.61
				c11.459,0,20.901-8.004,22.271-18.334c7.127-3.502,11.99-10.473,11.99-18.502C242.413,136.66,232.365,127.296,219.967,127.296z" style="opacity:0.1;fill:#6E6E96;enable-background:new    ;"></path>
			<path d="M188.017,160.277c0,0,11.625,2.271,11.625,13.649
				c0,0,3.13,19.319-8.969,32.993h27.936c-0.274-0.383-24.396-32.605,2.447-51.765C204.683,164.518,188.017,160.277,188.017,160.277
				z" style="fill:#EDE3DA;stroke:#CCCCDE;stroke-width:3;"></path>
			<g>
				<path d="M195.379,137.46" style="fill:#D57E58;"></path>
			</g>
			<path d="M214.088,160.246c0,0-17.637,22.771-4.082,46.678h8.603
				C218.608,206.921,200.71,181.91,214.088,160.246z" style="opacity:0.11;fill:#6E6E96;enable-background:new    ;"></path>
		</g>
		<g style="display:inline;">
			<path d="M89.074,147.232c0-12.271-10.679-22.213-23.846-22.213
				c-0.206,0-0.405,0.006-0.608,0.012c-4.158-6.508-11.781-10.866-20.5-10.866c-13.167,0-23.847,9.944-23.847,22.211
				c0,0.158,0.013,0.313,0.017,0.474c-7.201,3.823-12.063,11.039-12.063,19.315c0,12.267,10.675,22.213,23.843,22.213
				c0.749,0,1.488-0.039,2.223-0.099c4.374,4.935,10.991,8.084,18.396,8.084c12.172,0,22.206-8.5,23.656-19.476
				C83.913,163.164,89.074,155.762,89.074,147.232z" style="fill:#D7F7E4;stroke:#CCCCDE;stroke-width:3;"></path>
			<path d="M64.831,124.219c-0.205,0-0.407,0.008-0.61,0.012
				c-3.333-5.216-8.896-9.057-15.464-10.373c5.196,1.304,9.574,4.466,12.264,8.675c0.174-0.004,2.563,4.123,2.74,4.123
				c11.3,0,16.556,6.09,16.556,16.617c0,7.316-2.738,11.98-9.233,15.18c-1.245,9.42-9.855,16.709-20.302,16.709
				c-6.354,0-12.031-2.701-15.786-6.936c-0.627,0.053-1.265,0.086-1.905,0.086c-11.3,0-20.176-5.355-20.176-15.886
				c0-7.089,3.173-10.584,8.944-14.793c-0.151-0.911-0.795-8.938,1.348-11.075c5.086-5.084,7.389-9.454,11.938-11.71
				c-8.929,3.209-15.266,11.276-15.266,20.722c0,0.158,0.009,0.315,0.013,0.477c-7.202,3.82-12.061,11.035-12.061,19.314
				c0,12.264,10.674,22.209,23.843,22.209c0.75,0,1.489-0.035,2.221-0.096c4.374,4.932,10.991,8.084,18.396,8.084
				c12.171,0,22.205-8.5,23.652-19.475c7.569-3.727,12.73-11.129,12.73-19.652C88.674,134.164,77.999,124.219,64.831,124.219z" style="opacity:0.1;fill:#6E6E96;enable-background:new    ;"></path>
			<path d="M30.896,159.25c0,0,12.349,2.416,12.349,14.5
				c0,0,3.322,20.523-9.525,35.045H63.39c-0.294-0.406-25.917-34.639,2.598-54.984C48.596,163.75,30.896,159.25,30.896,159.25z" style="fill:#EDE3DA;stroke:#CCCCDE;stroke-width:3;"></path>
			<g>
				<path d="M38.714,135.012" style="fill:#D57E58;"></path>
			</g>
			<path d="M58.585,159.214c0,0-18.734,24.188-4.335,49.578h9.137
				C63.388,208.792,44.376,182.227,58.585,159.214z" style="opacity:0.11;fill:#6E6E96;enable-background:new    ;"></path>
		</g>
	</g>
	<g style="display:none;" id="Layer_3_4_">
		<g style="display:inline;">
			<path d="M86.025,124.891c0-10.819-9.413-19.591-21.021-19.591
				c-0.185,0-0.36,0.007-0.539,0.013c-3.666-5.741-10.389-9.587-18.078-9.587c-11.612,0-21.026,8.77-21.026,19.591
				c0,0.139,0.011,0.277,0.014,0.417c-6.352,3.372-10.638,9.732-10.638,17.03c0,10.819,9.413,19.59,21.025,19.59
				c0.66,0,1.313-0.03,1.958-0.088c3.857,4.354,9.693,7.129,16.222,7.129c10.734,0,19.582-7.496,20.862-17.172
				C81.474,138.939,86.025,132.412,86.025,124.891z" style="fill:#D7F7E4;stroke:#CCCCDE;stroke-width:3;"></path>
			<path d="M64.646,104.595c-0.181,0-0.356,0.009-0.539,0.014
				c-2.938-4.603-7.844-7.986-13.637-9.147c4.583,1.15,8.443,3.938,10.816,7.65c0.151-0.004,2.261,3.637,2.417,3.637
				c9.964,0,14.6,5.369,14.6,14.653c0,6.453-2.417,10.565-8.146,13.383c-1.101,8.307-8.691,14.736-17.9,14.736
				c-5.606,0-10.612-2.379-13.922-6.111c-0.553,0.047-1.113,0.07-1.682,0.07c-9.965,0-17.792-4.725-17.792-14.004
				c0-6.257,2.801-9.334,7.894-13.043c-0.136-0.801-0.702-7.881,1.186-9.767c4.484-4.484,6.519-8.337,10.527-10.33
				c-7.874,2.831-13.461,9.944-13.461,18.282c0,0.137,0.008,0.279,0.011,0.418c-6.351,3.372-10.636,9.728-10.636,17.026
				c0,10.818,9.413,19.594,21.025,19.594c0.659,0,1.312-0.033,1.958-0.092c3.854,4.352,9.688,7.129,16.223,7.129
				c10.729,0,19.58-7.498,20.856-17.176c6.678-3.281,11.229-9.809,11.229-17.332C85.672,113.368,76.259,104.595,64.646,104.595z" style="opacity:0.1;fill:#6E6E96;enable-background:new    ;"></path>
			<path d="M34.721,135.488c0,0,10.888,2.131,10.888,12.785
				c0,0,2.934,18.1-8.397,30.905h26.165c-0.259-0.362-22.854-30.55,2.292-48.489C50.33,139.458,34.721,135.488,34.721,135.488z" style="fill:#EDE3DA;stroke:#CCCCDE;stroke-width:3;"></path>
			<g>
				<path d="M41.615,114.115" style="fill:#D57E58;"></path>
			</g>
			<path d="M59.14,135.457c0,0-16.521,21.33-3.822,43.725h8.061
				C63.374,179.18,46.609,155.75,59.14,135.457z" style="opacity:0.11;fill:#6E6E96;enable-background:new    ;"></path>
		</g>
		<g style="display:inline;">
			<path d="M244.96,123.691c0-10.132-8.815-18.346-19.689-18.346
				c-0.171,0-0.337,0.007-0.505,0.012c-3.433-5.375-9.728-8.979-16.929-8.979c-10.874,0-19.69,8.214-19.69,18.346
				c0,0.131,0.012,0.262,0.015,0.391c-5.946,3.158-9.961,9.112-9.961,15.948c0,10.129,8.813,18.347,19.688,18.347
				c0.618,0,1.229-0.029,1.834-0.082c3.61,4.071,9.075,6.676,15.191,6.676c10.049,0,18.337-7.018,19.531-16.082
				C240.698,136.846,244.96,130.734,244.96,123.691z" style="fill:#D7F7E4;stroke:#CCCCDE;stroke-width:3;"></path>
			<path d="M224.938,104.685c-0.172,0-0.335,0.008-0.504,0.012
				c-2.752-4.312-7.349-7.479-12.771-8.565c4.291,1.076,7.903,3.687,10.127,7.163c0.145-0.003,2.118,3.405,2.264,3.405
				c9.331,0,13.671,5.029,13.671,13.723c0,6.046-2.265,9.894-7.625,12.537c-1.029,7.774-8.14,13.795-16.765,13.795
				c-5.247,0-9.938-2.229-13.038-5.726c-0.521,0.045-1.041,0.067-1.574,0.067c-9.334,0-16.662-4.426-16.662-13.116
				c0-5.854,2.62-8.738,7.392-12.218c-0.131-0.753-0.656-7.378,1.109-9.143c4.197-4.2,6.104-7.808,9.857-9.674
				c-7.373,2.652-12.605,9.312-12.605,17.117c0,0.13,0.005,0.258,0.014,0.392c-5.946,3.156-9.964,9.111-9.964,15.945
				c0,10.131,8.814,18.347,19.688,18.347c0.619,0,1.229-0.028,1.834-0.082c3.611,4.075,9.076,6.674,15.191,6.674
				c10.05,0,18.336-7.019,19.532-16.082c6.25-3.073,10.513-9.185,10.513-16.229C244.629,112.899,235.813,104.685,224.938,104.685z" style="opacity:0.1;fill:#6E6E96;enable-background:new    ;"></path>
			<path d="M196.916,133.613c0,0,10.194,1.996,10.194,11.975
				c0,0,2.745,16.947-7.864,28.939h24.503c-0.243-0.334-21.401-28.603,2.146-45.402
				C211.532,137.332,196.916,133.613,196.916,133.613z" style="fill:#EDE3DA;stroke:#CCCCDE;stroke-width:3;"></path>
			<g>
				<path d="M203.373,113.601" style="fill:#D57E58;"></path>
			</g>
			<path d="M219.783,133.585c0,0-15.474,19.976-3.579,40.94h7.546
				C223.748,174.527,208.049,152.587,219.783,133.585z" style="opacity:0.11;fill:#6E6E96;enable-background:new    ;"></path>
		</g>
		<g style="display:inline;">
			<path d="M210.615,125.337c0-15.556-13.53-28.161-30.227-28.161
				c-0.26,0-0.518,0.011-0.773,0.018c-5.271-8.251-14.936-13.784-25.985-13.784c-16.692,0-30.229,12.61-30.229,28.164
				c0,0.2,0.015,0.399,0.019,0.604c-9.129,4.849-15.29,13.985-15.29,24.477c0,15.555,13.534,28.166,30.227,28.166
				c0.948,0,1.891-0.049,2.814-0.131c5.546,6.26,13.933,10.248,23.318,10.248c15.433,0,28.149-10.773,29.989-24.686
				C204.071,145.535,210.615,136.15,210.615,125.337z" style="fill:#D7F7E4;stroke:#CCCCDE;stroke-width:3;"></path>
			<path d="M179.881,96.162c-0.259,0-0.52,0.011-0.773,0.019
				c-4.227-6.617-11.274-11.482-19.604-13.15c6.589,1.652,12.138,5.66,15.548,10.997c0.222-0.005,3.25,5.228,3.474,5.228
				c14.325,0,20.989,7.718,20.989,21.064c0,9.276-3.477,15.188-11.71,19.242c-1.578,11.936-12.495,21.182-25.733,21.182
				c-8.058,0-15.256-3.422-20.014-8.793c-0.796,0.068-1.601,0.107-2.415,0.107c-14.326,0-25.577-6.787-25.577-20.137
				c0-8.986,4.022-13.414,11.344-18.751c-0.195-1.155-1.011-11.327,1.701-14.04c6.447-6.447,9.368-11.985,15.138-14.849
				c-11.318,4.07-19.354,14.296-19.354,26.276c0,0.201,0.011,0.4,0.02,0.605c-9.129,4.846-15.291,13.985-15.291,24.478
				c0,15.555,13.53,28.163,30.226,28.163c0.951,0,1.887-0.045,2.814-0.127c5.544,6.261,13.934,10.245,23.318,10.245
				c15.432,0,28.147-10.773,29.988-24.686c9.596-4.721,16.137-14.104,16.137-24.912C210.106,108.769,196.574,96.162,179.881,96.162z" style="opacity:0.1;fill:#6E6E96;enable-background:new    ;"></path>
			<path d="M136.861,140.568c0,0,15.652,3.062,15.652,18.385
				c0,0,4.215,26.02-12.076,44.43h37.615c-0.373-0.52-32.854-43.908,3.295-69.699C159.301,146.279,136.861,140.568,136.861,140.568z" style="fill:#EDE3DA;stroke:#CCCCDE;stroke-width:3;"></path>
			<g>
				<path d="M146.773,109.846" style="fill:#D57E58;"></path>
			</g>
			<path d="M171.965,140.527c0,0-23.748,30.662-5.496,62.852h11.584
				C178.053,203.378,153.952,169.697,171.965,140.527z" style="opacity:0.11;fill:#6E6E96;enable-background:new    ;"></path>
		</g>
		<g style="display:inline;">
			<path d="M143.39,126.378c0-12.77-11.11-23.122-24.812-23.122
				c-0.216,0-0.427,0.01-0.638,0.016c-4.327-6.774-12.261-11.315-21.336-11.315c-13.704,0-24.812,10.352-24.812,23.12
				c0,0.167,0.012,0.331,0.014,0.495c-7.496,3.979-12.553,11.482-12.553,20.099c0,12.771,11.107,23.121,24.812,23.121
				c0.778,0,1.55-0.039,2.313-0.103c4.552,5.136,11.438,8.41,19.146,8.41c12.668,0,23.109-8.847,24.619-20.267
				C138.019,142.958,143.39,135.255,143.39,126.378z" style="fill:#D7F7E4;stroke:#CCCCDE;stroke-width:3;"></path>
			<path d="M118.158,102.426c-0.217,0-0.427,0.008-0.64,0.014
				c-3.468-5.432-9.258-9.425-16.093-10.796c5.409,1.357,9.964,4.648,12.766,9.028c0.184-0.005,2.667,4.292,2.854,4.292
				c11.761,0,17.229,6.336,17.229,17.293c0,7.617-2.854,12.472-9.607,15.798c-1.295,9.799-10.257,17.392-21.127,17.392
				c-6.615,0-12.524-2.812-16.435-7.22c-0.65,0.058-1.312,0.09-1.979,0.09c-11.764,0-20.998-5.573-20.998-16.528
				c0-7.379,3.301-11.017,9.31-15.396c-0.16-0.948-0.827-9.299,1.4-11.524c5.292-5.293,7.688-9.84,12.424-12.191
				c-9.292,3.341-15.888,11.735-15.888,21.572c0,0.166,0.01,0.33,0.014,0.495c-7.497,3.977-12.554,11.48-12.554,20.097
				c0,12.771,11.108,23.119,24.812,23.119c0.78,0,1.548-0.037,2.312-0.103c4.552,5.138,11.438,8.41,19.146,8.41
				c12.667,0,23.107-8.845,24.621-20.267c7.877-3.873,13.249-11.575,13.249-20.448C142.973,112.778,131.862,102.426,118.158,102.426
				z" style="opacity:0.1;fill:#6E6E96;enable-background:new    ;"></path>
			<path d="M82.84,138.882c0,0,12.85,2.517,12.85,15.093
				c0,0,3.46,21.358-9.915,36.478h30.882c-0.309-0.427-26.975-36.049,2.704-57.228C101.263,143.57,82.84,138.882,82.84,138.882z" style="fill:#EDE3DA;stroke:#CCCCDE;stroke-width:3;"></path>
			<g>
				<path d="M90.978,113.661" style="fill:#D57E58;"></path>
			</g>
			<path d="M111.659,138.85c0,0-19.497,25.172-4.514,51.603h9.513
				C116.658,190.451,96.871,162.796,111.659,138.85z" style="opacity:0.11;fill:#6E6E96;enable-background:new    ;"></path>
		</g>
		<g style="display:inline;">
			<path d="M243.728,148.964c0-11.553-10.051-20.913-22.448-20.913
				c-0.188,0-0.38,0.008-0.568,0.014c-3.917-6.129-11.093-10.234-19.3-10.234c-12.397,0-22.445,9.361-22.445,20.915
				c0,0.147,0.011,0.297,0.013,0.446c-6.777,3.604-11.354,10.394-11.354,18.185c0,11.558,10.047,20.918,22.442,20.918
				c0.704,0,1.4-0.035,2.086-0.098c4.118,4.649,10.354,7.612,17.323,7.612c11.459,0,20.904-8.004,22.271-18.336
				C238.868,163.962,243.728,156.998,243.728,148.964z" style="fill:#D7F7E4;stroke:#CCCCDE;stroke-width:3;"></path>
			<path d="M220.902,127.296c-0.19,0-0.383,0.009-0.572,0.015
				c-3.141-4.914-8.374-8.524-14.562-9.768c4.896,1.229,9.018,4.203,11.547,8.166c0.163-0.004,2.413,3.885,2.58,3.885
				c10.641,0,15.585,5.729,15.585,15.646c0,6.892-2.579,11.278-8.691,14.291c-1.171,8.862-9.278,15.731-19.111,15.731
				c-5.984,0-11.329-2.545-14.863-6.531c-0.591,0.054-1.188,0.082-1.793,0.082c-10.639,0-18.996-5.043-18.996-14.953
				c0-6.678,2.985-9.963,8.425-13.93c-0.146-0.858-0.753-8.41,1.268-10.426c4.788-4.789,6.958-8.902,11.24-11.028
				c-8.404,3.021-14.372,10.616-14.372,19.514c0,0.147,0.013,0.298,0.016,0.449c-6.78,3.599-11.356,10.392-11.356,18.181
				c0,11.551,10.05,20.914,22.446,20.914c0.706,0,1.4-0.031,2.088-0.095c4.119,4.647,10.353,7.61,17.321,7.61
				c11.458,0,20.903-8.004,22.271-18.334c7.126-3.504,11.985-10.473,11.985-18.502C243.35,136.66,233.301,127.296,220.902,127.296z" style="opacity:0.1;fill:#6E6E96;enable-background:new    ;"></path>
			<path d="M188.953,160.277c0,0,11.624,2.271,11.624,13.649
				c0,0,3.13,19.319-8.972,32.993h27.938c-0.276-0.383-24.398-32.605,2.447-51.765C205.619,164.518,188.953,160.277,188.953,160.277
				z" style="fill:#EDE3DA;stroke:#CCCCDE;stroke-width:3;"></path>
			<g>
				<path d="M196.314,137.46" style="fill:#D57E58;"></path>
			</g>
			<path d="M215.023,160.246c0,0-17.637,22.771-4.081,46.678h8.604
				C219.544,206.921,201.646,181.91,215.023,160.246z" style="opacity:0.11;fill:#6E6E96;enable-background:new    ;"></path>
		</g>
		<g style="display:inline;">
			<path d="M90.009,147.232c0-12.271-10.675-22.213-23.843-22.213
				c-0.206,0-0.408,0.006-0.611,0.012c-4.158-6.508-11.781-10.868-20.5-10.868c-13.167,0-23.844,9.946-23.844,22.213
				c0,0.158,0.011,0.313,0.014,0.474c-7.201,3.823-12.062,11.039-12.062,19.315c0,12.267,10.675,22.213,23.843,22.213
				c0.749,0,1.488-0.039,2.22-0.099c4.374,4.935,10.991,8.084,18.397,8.084c12.171,0,22.205-8.5,23.652-19.476
				C84.849,163.164,90.009,155.762,90.009,147.232z" style="fill:#D7F7E4;stroke:#CCCCDE;stroke-width:3;"></path>
			<path d="M65.766,124.219c-0.205,0-0.407,0.008-0.609,0.012
				c-3.331-5.216-8.896-9.057-15.465-10.373c5.197,1.304,9.574,4.466,12.268,8.675c0.174-0.004,2.562,4.123,2.737,4.123
				c11.303,0,16.559,6.09,16.559,16.617c0,7.316-2.741,11.98-9.236,15.18c-1.245,9.42-9.854,16.709-20.3,16.709
				c-6.356,0-12.033-2.701-15.788-6.936c-0.627,0.053-1.261,0.086-1.904,0.086c-11.3,0-20.177-5.355-20.177-15.886
				c0-7.089,3.173-10.584,8.947-14.793c-0.154-0.911-0.795-8.938,1.345-11.075c5.086-5.084,7.39-9.454,11.939-11.71
				c-8.931,3.209-15.269,11.276-15.269,20.724c0,0.158,0.009,0.315,0.016,0.477c-7.202,3.82-12.063,11.033-12.063,19.313
				c0,12.265,10.674,22.211,23.843,22.211c0.75,0,1.489-0.036,2.224-0.099c4.374,4.935,10.987,8.084,18.396,8.084
				c12.171,0,22.204-8.498,23.655-19.473c7.569-3.725,12.729-11.129,12.729-19.652C89.61,134.164,78.935,124.219,65.766,124.219z" style="opacity:0.1;fill:#6E6E96;enable-background:new    ;"></path>
			<path d="M31.832,159.25c0,0,12.346,2.416,12.346,14.5
				c0,0,3.325,20.523-9.525,35.045h29.674c-0.297-0.406-25.916-34.639,2.599-54.984C49.532,163.75,31.832,159.25,31.832,159.25z" style="fill:#EDE3DA;stroke:#CCCCDE;stroke-width:3;"></path>
			<g>
				<path d="M39.65,135.012" style="fill:#D57E58;"></path>
			</g>
			<path d="M59.521,159.214c0,0-18.731,24.188-4.335,49.578h9.14
				C64.323,208.792,45.313,182.227,59.521,159.214z" style="opacity:0.11;fill:#6E6E96;enable-background:new    ;"></path>
		</g>
	</g>
</g>
<g>
	<circle r="12.239" cy="70.742" cx="116.134" style="fill:#DBDBED;"></circle>
	<path d="M116.134,84.481c-7.576,0-13.739-6.163-13.739-13.739s6.164-13.739,13.739-13.739
		s13.739,6.164,13.739,13.739S123.71,84.481,116.134,84.481z M116.134,60.003c-5.922,0-10.739,4.817-10.739,10.739
		c0,5.921,4.817,10.739,10.739,10.739s10.739-4.817,10.739-10.739C126.873,64.82,122.056,60.003,116.134,60.003z" style="fill:#CCCCDE;"></path>
</g>
<g>
	<circle r="23.25" cy="185.107" cx="183.403" style="fill:#F0F0FF;"></circle>
	<g>
		<path d="M226.005,188.082v-7.674l-10.123-1.93c-0.339-2.011-0.868-3.957-1.556-5.83l7.966-6.438
			l-3.837-6.646l-9.734,3.392c-1.288-1.545-2.712-2.974-4.257-4.263l3.679-9.567l-6.642-3.838l-6.73,7.799
			c-1.867-0.688-3.812-1.213-5.825-1.562l-1.595-10.122h-7.671l-1.93,10.122c-2.015,0.347-3.959,0.869-5.829,1.56l-6.438-7.97
			l-6.64,3.837l3.386,9.733c-1.547,1.289-2.972,2.715-4.258,4.263l-9.569-3.687l-3.837,6.646l7.797,6.729
			c-0.688,1.866-1.212,3.813-1.556,5.823l-10.126,1.593v7.675l10.124,1.934c0.34,2.008,0.867,3.957,1.556,5.822l-7.965,6.438
			l3.837,6.649l9.732-3.396c1.29,1.545,2.716,2.971,4.262,4.262l-3.687,9.57l6.646,3.832l6.73-7.797
			c1.863,0.688,3.812,1.213,5.819,1.557l1.601,10.127h7.67l1.931-10.125c2.013-0.342,3.957-0.867,5.829-1.557l6.438,7.973
			l6.644-3.84l-3.388-9.736c1.547-1.285,2.972-2.713,4.259-4.256l9.567,3.684l3.84-6.646l-7.801-6.73
			c0.688-1.867,1.212-3.813,1.56-5.824L226.005,188.082z M183.268,206.628c-12.394,0-22.44-10.047-22.44-22.446
			c0-12.396,10.05-22.44,22.44-22.44c12.396,0,22.443,10.047,22.443,22.44C205.711,196.582,195.664,206.628,183.268,206.628z" style="fill:#FFFFFF;"></path>
		<path d="M188.246,228.227h-10.192l-1.636-10.348c-1.366-0.279-2.717-0.641-4.035-1.082l-6.873,7.962
			l-8.832-5.093l3.769-9.782c-1.041-0.925-2.029-1.914-2.952-2.955l-9.941,3.469l-5.098-8.835l8.139-6.579
			c-0.442-1.326-0.803-2.679-1.078-4.04l-10.336-1.975v-10.197l10.347-1.628c0.278-1.366,0.641-2.718,1.081-4.038l-7.963-6.872
			l5.099-8.833l9.779,3.768c0.922-1.041,1.911-2.03,2.954-2.954l-3.458-9.94l8.824-5.099l6.58,8.145
			c1.318-0.439,2.672-0.801,4.045-1.079l1.971-10.337h10.194l1.63,10.345c1.37,0.281,2.723,0.645,4.04,1.085l6.874-7.965
			l8.826,5.101l-3.76,9.777c1.036,0.922,2.023,1.912,2.949,2.957l9.941-3.464l5.099,8.831l-8.142,6.58
			c0.444,1.337,0.806,2.691,1.079,4.047l10.335,1.97v10.198l-10.344,1.621c-0.28,1.368-0.644,2.72-1.083,4.038l7.967,6.874
			l-5.103,8.831l-9.777-3.765c-0.928,1.045-1.916,2.032-2.953,2.949l3.459,9.941l-8.828,5.104l-6.58-8.148
			c-1.328,0.441-2.682,0.803-4.046,1.078L188.246,228.227z M180.616,225.227h5.147l1.894-9.93l1.027-0.174
			c1.882-0.32,3.753-0.819,5.562-1.485l1.01-0.372l6.308,7.811l4.459-2.576l-3.322-9.548l0.8-0.664
			c1.462-1.215,2.83-2.582,4.066-4.063l0.688-0.825l9.374,3.609l2.577-4.462l-7.647-6.598l0.359-0.976
			c0.659-1.792,1.16-3.663,1.488-5.562l0.184-1.06l9.916-1.554v-5.149l-9.929-1.893l-0.174-1.029
			c-0.313-1.861-0.812-3.733-1.484-5.562l-0.37-1.008l7.804-6.308l-2.575-4.46l-9.543,3.324l-0.665-0.797
			c-1.234-1.481-2.603-2.851-4.065-4.072l-0.824-0.688l3.604-9.374l-4.457-2.575l-6.599,7.646l-0.975-0.359
			c-1.79-0.66-3.662-1.161-5.562-1.491l-1.059-0.183l-1.562-9.917h-5.147l-1.893,9.924l-1.024,0.177
			c-1.904,0.327-3.776,0.828-5.563,1.488l-1.01,0.373l-6.309-7.81l-4.455,2.575l3.319,9.542l-0.798,0.665
			c-1.474,1.229-2.842,2.598-4.064,4.069l-0.688,0.828l-9.377-3.612l-2.575,4.46l7.644,6.598l-0.359,0.976
			c-0.661,1.796-1.161,3.666-1.484,5.558l-0.182,1.062l-9.923,1.561v5.152l9.929,1.896l0.174,1.028
			c0.318,1.879,0.817,3.747,1.484,5.553l0.373,1.01l-7.806,6.309l2.576,4.464l9.54-3.33l0.665,0.797
			c1.229,1.473,2.599,2.843,4.072,4.072l0.824,0.688l-3.611,9.375l4.459,2.571l6.6-7.646l0.976,0.36
			c1.793,0.661,3.661,1.161,5.553,1.485l1.061,0.182L180.616,225.227z M183.268,208.128c-13.201,0-23.94-10.742-23.94-23.946
			c0-13.201,10.739-23.94,23.94-23.94c13.202,0,23.943,10.739,23.943,23.94C207.211,197.386,196.47,208.128,183.268,208.128z
			 M183.268,163.241c-11.547,0-20.94,9.394-20.94,20.94c0,11.55,9.394,20.946,20.94,20.946c11.548,0,20.943-9.396,20.943-20.946
			C204.211,172.635,194.816,163.241,183.268,163.241z" style="fill:#CCCCDE;"></path>
	</g>
	<g>
		<circle r="10.117" cy="184.072" cx="183.343" style="fill:#DBDBED;"></circle>
		<path d="M183.343,195.689c-6.405,0-11.617-5.212-11.617-11.617s5.212-11.617,11.617-11.617
			s11.617,5.212,11.617,11.617S189.748,195.689,183.343,195.689z M183.343,175.455c-4.752,0-8.617,3.865-8.617,8.617
			s3.865,8.617,8.617,8.617s8.617-3.865,8.617-8.617S188.095,175.455,183.343,175.455z" style="fill:#CCCCDE;"></path>
	</g>
</g>
<g>
	<g>
		<path d="M117.271,61.018c0-6.961-10.553-12.896-10.553-24.375c0-10.758,8.721-19.479,19.479-19.479
			c10.76,0,19.479,8.722,19.479,19.479c0,11.223-10.75,14.451-10.888,23.937" style="fill:#FFF8BD;"></path>
		<path d="M117.771,61.018h-1c0-2.888-1.948-5.634-4.205-8.814c-2.976-4.194-6.348-8.948-6.348-15.561
			c0-11.017,8.963-19.979,19.979-19.979s19.979,8.962,19.979,19.979c0,6.048-2.989,9.788-5.88,13.405
			c-2.543,3.182-4.944,6.188-5.008,10.539l-1-0.015c0.068-4.693,2.574-7.829,5.228-11.149c2.782-3.482,5.66-7.083,5.66-12.781
			c0-10.465-8.514-18.979-18.979-18.979c-10.465,0-18.979,8.514-18.979,18.979c0,6.294,3.274,10.91,6.164,14.982
			C115.737,54.944,117.771,57.811,117.771,61.018z" style="fill:#CCCCDE;"></path>
	</g>
	<path d="M134.745,59.846c0,0,0,3.213,0,5.877c0,4.928-4.927,6.91-8.476,6.91l0,0
		c-3.545,0-9.142-1.81-9.142-6.91c0-2.664,0-5.877,0-5.877" style="fill:#F0F0FF;"></path>
	<path d="M136.251,59.867l-3-0.043c0.072-5.051,2.826-8.374,5.489-11.587
		c2.804-3.384,5.453-6.581,5.453-11.912c0-9.914-8.065-17.979-17.979-17.979c-9.914,0-17.979,8.065-17.979,17.979
		c0,5.95,2.982,9.875,5.867,13.67c2.337,3.076,4.545,5.981,4.545,9.534h-3c0-2.542-1.823-4.941-3.934-7.719
		c-2.886-3.798-6.479-8.525-6.479-15.485c0-11.568,9.411-20.979,20.979-20.979c11.567,0,20.979,9.411,20.979,20.979
		c0,6.413-3.264,10.352-6.144,13.827C138.505,53.222,136.308,55.874,136.251,59.867z" style="fill:#CCCCDE;"></path>
	<path d="M126.292,73.814c-4.28,0-10.646-2.239-10.646-8.408v-5.877h3v5.877c0,4.436,5.52,5.408,7.646,5.408
		c2.802,0,6.971-1.44,6.971-5.408v-5.877h3v5.877C136.263,70.867,131.126,73.814,126.292,73.814z" style="fill:#CCCCDE;"></path>
	<rect height="3" width="17.643" style="fill:#CCCCDE;" y="58.014" x="117.12"></rect>
	<rect height="8.465" width="3" style="fill:#CCCCDE;" x="124.713"></rect>
	
		<rect height="3" width="8.464" style="fill:#CCCCDE;" transform="matrix(0.5 0.866 -0.866 0.5 62.5596 -91.4817)" y="6.94" x="106.277"></rect>
	
		<rect height="3" width="8.465" style="fill:#CCCCDE;" transform="matrix(0.8661 0.4998 -0.4998 0.8661 23.2221 -46.8222)" y="18.437" x="94.78"></rect>
	<rect height="3" width="8.463" style="fill:#CCCCDE;" y="34.141" x="90.573"></rect>
	
		<rect height="8.464" width="3" style="fill:#CCCCDE;" transform="matrix(0.5001 0.866 -0.866 0.5001 93.9656 -60.0755)" y="47.113" x="97.514"></rect>
	
		<rect height="3" width="8.464" style="fill:#CCCCDE;" transform="matrix(0.866 0.5001 -0.5001 0.866 46.2373 -69.8379)" y="49.846" x="149.182"></rect>
	<rect height="3" width="8.466" style="fill:#CCCCDE;" y="34.141" x="153.391"></rect>
	
		<rect height="8.464" width="3" style="fill:#CCCCDE;" transform="matrix(0.4999 0.8661 -0.8661 0.4999 93.9864 -122.8977)" y="15.705" x="151.914"></rect>
	
		<rect height="8.465" width="2.999" style="fill:#CCCCDE;" transform="matrix(0.8661 0.4998 -0.4998 0.8661 23.2161 -69.8024)" y="4.206" x="140.417"></rect>
</g>
<g>
	<path d="M83.365,50.89c0-0.126,0.011-0.248,0.011-0.375c0-13.185-11.631-23.877-25.985-23.877
		c-12.35,0-22.686,7.926-25.321,18.542c-0.407-0.028-0.814-0.048-1.229-0.048c-8.539,0-15.458,6.36-15.458,14.202
		c0,1.68,0.323,3.295,0.908,4.79c-2.396,3.109-3.811,6.912-3.811,11.011c0,10.398,9.048,18.848,20.306,19.072v0.011h39.921
		c13.684,0,24.776-10.195,24.776-22.773C97.483,62.379,91.713,54.553,83.365,50.89z" style="fill:#FFFFFF;"></path>
	<path d="M72.706,95.718H32.785c-0.073,0-0.146-0.005-0.216-0.016c-11.921-0.33-21.589-9.521-21.589-20.567
		c0-4.033,1.251-7.908,3.628-11.258c-0.482-1.472-0.726-2.997-0.726-4.542c0-8.658,7.607-15.702,16.958-15.702
		c0.033,0,0.066,0,0.099,0c3.312-10.95,14.006-18.495,26.451-18.495c14.944,0,27.142,11.069,27.478,24.794
		c8.607,4.161,14.115,12.504,14.115,21.513C98.983,84.829,87.195,95.718,72.706,95.718z M32.966,92.718h39.741
		c12.834,0,23.276-9.543,23.276-21.273c0-8.128-5.189-15.658-13.221-19.181c-0.545-0.239-0.897-0.778-0.897-1.374
		c0-0.084,0.003-0.168,0.007-0.251l0.004-0.124c0-12.339-10.984-22.377-24.485-22.377c-11.325,0-21.362,7.319-23.866,17.404
		c-0.175,0.707-0.833,1.184-1.56,1.135c-0.373-0.026-0.746-0.045-1.125-0.045c-7.696,0-13.958,5.698-13.958,12.702
		c0,1.45,0.271,2.878,0.805,4.244c0.192,0.49,0.112,1.045-0.209,1.462C15.19,68.009,13.98,71.5,13.98,75.135
		c0,9.483,8.45,17.366,18.835,17.573C32.866,92.708,32.916,92.712,32.966,92.718z" style="fill:#CCCCDE;"></path>
</g>
<g id="Layer_2">
	<g>
		<g>
			<path d="M122.258,177.496c0,2.75-2.25,5-5,5H16.912c-2.75,0-5-2.25-5-5v-63.563c0-2.75,2.25-5,5-5H117.26
				c2.75,0,5,2.25,5,5L122.258,177.496L122.258,177.496z" style="fill:#FFFFFF;"></path>
			<path d="M117.258,183.996H16.912c-3.584,0-6.5-2.916-6.5-6.5v-63.563c0-3.584,2.916-6.5,6.5-6.5H117.26
				c3.584,0,6.5,2.916,6.5,6.5l-0.002,63.563C123.758,181.08,120.842,183.996,117.258,183.996z M16.912,110.433
				c-1.93,0-3.5,1.57-3.5,3.5v63.563c0,1.93,1.57,3.5,3.5,3.5h100.346c1.93,0,3.5-1.57,3.5-3.5l0.002-63.563
				c0-1.93-1.57-3.5-3.5-3.5H16.912z" style="fill:#CCCCDE;"></path>
		</g>
		<g>
			<rect height="60.146" width="99.755" style="fill:#D3E3F5;" y="114.584" x="16.912"></rect>
			<path d="M116.667,176.23H16.912c-0.829,0-1.5-0.672-1.5-1.5v-60.146c0-0.829,0.671-1.5,1.5-1.5h99.755
				c0.829,0,1.5,0.671,1.5,1.5v60.146C118.167,175.559,117.496,176.23,116.667,176.23z M18.412,173.23h96.755v-57.146H18.412V173.23
				z" style="fill:#CCCCDE;"></path>
		</g>
		<g>
			<path d="M128.827,182.496c0,0,0-1.239,0,2.13c0,3.372-2.955,6.131-6.567,6.131H13.225
				c-3.612,0-6.565-2.759-6.565-6.131c0-3.369,0-2.13,0-2.13" style="fill:#FFFFFF;"></path>
			<path d="M122.256,192.257H13.223c-4.447,0-8.065-3.423-8.065-7.631v-2.353c0-0.828,0.671-1.5,1.5-1.5
				c0.289,0,0.558,0.081,0.787,0.223h120.593c0.229-0.142,0.499-0.223,0.787-0.223c0.828,0,1.5,0.672,1.5,1.5v2.353
				C130.323,188.834,126.704,192.257,122.256,192.257z M8.157,183.996v0.63c0,2.554,2.272,4.631,5.065,4.631h109.033
				c2.794,0,5.067-2.077,5.067-4.631v-0.63H8.157z" style="fill:#CCCCDE;"></path>
		</g>
	</g>
	<g>
		<g>
			<g>
				<path d="M234.278,124.512c0,2.75-2.25,5-5,5h-48c-2.75,0-5-2.25-5-5v-84c0-2.75,2.25-5,5-5h48
					c2.75,0,5,2.25,5,5V124.512z" style="fill:#DAE0F5;"></path>
				<path d="M229.278,131.012h-48c-3.584,0-6.5-2.916-6.5-6.5v-84c0-3.584,2.916-6.5,6.5-6.5h48
					c3.584,0,6.5,2.916,6.5,6.5v84C235.778,128.096,232.862,131.012,229.278,131.012z M181.278,37.012c-1.93,0-3.5,1.57-3.5,3.5v84
					c0,1.93,1.57,3.5,3.5,3.5h48c1.93,0,3.5-1.57,3.5-3.5v-84c0-1.93-1.57-3.5-3.5-3.5H181.278z" style="fill:#CCCCDE;"></path>
			</g>
			<g>
				<path d="M234.278,124.512c0,2.75-2.25,5-5,5h-48c-2.75,0-5-2.25-5-5v-84c0-2.75,2.25-5,5-5h48
					c2.75,0,5,2.25,5,5V124.512z" style="fill:#DAE0F5;"></path>
				<path d="M229.278,131.012h-48c-3.584,0-6.5-2.916-6.5-6.5v-84c0-3.584,2.916-6.5,6.5-6.5h48
					c3.584,0,6.5,2.916,6.5,6.5v84C235.778,128.096,232.862,131.012,229.278,131.012z M181.278,37.012c-1.93,0-3.5,1.57-3.5,3.5v84
					c0,1.93,1.57,3.5,3.5,3.5h48c1.93,0,3.5-1.57,3.5-3.5v-84c0-1.93-1.57-3.5-3.5-3.5H181.278z" style="fill:#CCCCDE;"></path>
			</g>
		</g>
		<path d="M211.778,43.512h-13c-0.828,0-1.5-0.671-1.5-1.5s0.672-1.5,1.5-1.5h13c0.828,0,1.5,0.671,1.5,1.5
			S212.606,43.512,211.778,43.512z" style="fill:#CCCCDE;"></path>
	</g>
</g>
<g id="Layer_4">
	<g>
		<path d="M102.675,202.529h-3.272C99.403,202.529,100.884,202.852,102.675,202.529z M152.154,193.479
			v-11.103h-43.268v10.668c0,6.992-3.469,8.994-6.211,9.483h6.211v2.963h43.268v-2.963h9.483
			C152.962,202.529,152.205,195.332,152.154,193.479z" style="fill:#FFFFFF;"></path>
		<path d="M153.654,206.99h-46.268v-2.963h-4.571c-0.577,0.097-1.177,0.146-1.784,0.146c0,0,0,0,0,0
			c-1.099,0-1.863-0.159-1.947-0.178l0.319-2.966h3.124c3.225-0.63,4.86-3.316,4.86-7.985v-12.168h46.268v12.603
			c0.063,2.24,0.968,7.548,7.979,7.549l-0.001,3h-7.978V206.99z M110.386,203.99h40.268v-2.963h2.91
			c-1.969-2.027-2.834-4.816-2.909-7.507l-0.001-9.645h-40.268v9.168c0,3.821-0.971,6.334-2.29,7.983h2.29V203.99z M161.637,204.027
			v-0.132V204.027l-0.004-3v1.5l0.004-1.5V204.027z" style="fill:#6E6E96;"></path>
	</g>
	<g>
		<rect height="5.928" width="62.235" style="fill:#F2F2F2;" y="202.529" x="99.403"></rect>
		<path d="M161.638,209.957H99.403c-0.829,0-1.5-0.672-1.5-1.5v-5.928c0-0.828,0.671-1.5,1.5-1.5h62.235
			c0.828,0,1.5,0.672,1.5,1.5v5.928C163.138,209.285,162.466,209.957,161.638,209.957z M100.903,206.957h59.235v-2.928h-59.235
			V206.957z" style="fill:#6E6E96;"></path>
	</g>
	<g>
		<path d="M54.653,166.375V70.947c0-6.521,5.334-11.854,11.854-11.854h128.026
			c6.52,0,11.854,5.334,11.854,11.854v95.428" style="fill:#BBC0D9;"></path>
	</g>
	<rect height="81.078" width="133.672" style="fill:#A3ACD9;" y="67.998" x="63.247"></rect>
	<g>
		<path d="M206.388,156.891v13.631c0,6.521-5.335,11.854-11.854,11.854H66.507
			c-6.521,0-11.854-5.336-11.854-11.854v-13.631H206.388z" style="fill:#FFFFFF;"></path>
	</g>
	<rect height="5.448" width="133.672" style="opacity:0.51;fill:#6E6E96;enable-background:new    ;" y="67.998" x="63.247"></rect>
	<rect height="75.63" width="49.667" style="opacity:0.51;fill:#6E6E96;enable-background:new    ;" y="73.446" x="102.154"></rect>
	<rect height="75.63" width="40.333" style="opacity:0.51;fill:#6E6E96;enable-background:new    ;" y="73.446" x="155.154"></rect>
	<rect height="3.666" width="94.667" style="fill:#A3ACD9;" y="144.947" x="100.821"></rect>
	<rect height="3.668" width="59.333" style="fill:#A3ACD9;" y="125.445" x="95.821"></rect>
	<rect height="1" width="49.667" style="fill:#A3ACD9;" y="78.279" x="102.154"></rect>
	<rect height="5.333" width="14.167" style="fill:#A3ACD9;" y="73.446" x="101.154"></rect>
	<rect height="5.333" width="40.333" style="fill:#A3ACD9;" y="73.446" x="155.154"></rect>
	<rect height="1" width="19" style="fill:#CCCCDE;" y="79.279" x="71.487"></rect>
	<rect height="1" width="19.834" style="fill:#CCCCDE;" y="84.113" x="76.32"></rect>
	<rect height="1" width="15.084" style="fill:#CCCCDE;" y="89.279" x="76.32"></rect>
	<path d="M194.033,57.946H66.007c-6.521,0-11.854,5.334-11.854,11.854v5c0-6.52,5.334-11.854,11.854-11.854
		h128.026c6.52,0,11.854,5.334,11.854,11.854v-5C205.888,63.28,200.553,57.946,194.033,57.946z" style="fill:#D5DBF7;"></path>
	<rect height="1" width="6.64" style="fill:#CCCCDE;" y="94.612" x="76.32"></rect>
	<g>
		<rect height="1" width="6.5" style="fill:#CCCCDE;" y="83.196" x="112.237"></rect>
		<rect height="1" width="11.25" style="fill:#FFFF9C;" y="83.196" x="123.487"></rect>
		<rect height="1" width="12.5" style="fill:#CCCCDE;" y="86.196" x="112.237"></rect>
		<rect height="1" width="5.5" style="fill:#FFFF9C;" y="86.196" x="128.737"></rect>
		<rect height="1" width="7.75" style="fill:#CCCCDE;" y="89.696" x="112.237"></rect>
		<rect height="1" width="3" style="fill:#FFFF9C;" y="89.696" x="124.237"></rect>
		<rect height="1" width="10" style="fill:#CCCCDE;" y="92.946" x="112.237"></rect>
		<rect height="1" width="9.75" style="fill:#CCCCDE;" y="95.946" x="117.737"></rect>
		<rect height="1" width="3.25" style="fill:#FFFF9C;" y="95.946" x="131.487"></rect>
		<rect height="1" width="12.75" style="fill:#FFFF9C;" y="95.946" x="136.237"></rect>
		<rect height="1" width="2.25" style="fill:#CCCCDE;" y="99.696" x="112.237"></rect>
		<rect height="1" width="5.875" style="fill:#CCCCDE;" y="102.946" x="112.237"></rect>
		<rect height="1" width="8.813" style="fill:#CCCCDE;" y="106.196" x="112.237"></rect>
		<rect height="1" width="2.75" style="fill:#FFFF9C;" y="106.196" x="125.987"></rect>
		<rect height="1" width="10.5" style="fill:#CCCCDE;" y="110.196" x="112.237"></rect>
		<rect height="1" width="8.25" style="fill:#CCCCDE;" y="113.446" x="115.737"></rect>
		<rect height="1" width="3.25" style="fill:#CCCCDE;" y="113.446" x="125.987"></rect>
		<rect height="1" width="3" style="fill:#FFFF9C;" y="113.446" x="132.737"></rect>
		<rect height="1" width="12.25" style="fill:#CCCCDE;" y="117.196" x="115.737"></rect>
		<rect height="1" width="2" style="fill:#FFFF9C;" y="117.196" x="132.737"></rect>
		<rect height="1" width="2.5" style="fill:#CCCCDE;" y="120.695" x="112.237"></rect>
	</g>
	<g>
		<rect height="1" width="0.75" style="fill:#CCCCDE;" y="86.196" x="105.737"></rect>
		<rect height="1" width="0.75" style="fill:#CCCCDE;" y="89.696" x="105.737"></rect>
		<rect height="1" width="0.75" style="fill:#CCCCDE;" y="92.821" x="105.737"></rect>
		<rect height="1" width="0.75" style="fill:#CCCCDE;" y="95.863" x="105.737"></rect>
		<rect height="1" width="0.75" style="fill:#CCCCDE;" y="99.696" x="105.737"></rect>
		<rect height="1" width="0.75" style="fill:#CCCCDE;" y="102.946" x="105.737"></rect>
		<rect height="1" width="0.75" style="fill:#CCCCDE;" y="106.196" x="105.737"></rect>
		<rect height="1" width="0.666" style="fill:#CCCCDE;" y="110.196" x="105.821"></rect>
		<rect height="1" width="0.666" style="fill:#CCCCDE;" y="113.446" x="105.821"></rect>
		<rect height="1" width="0.666" style="fill:#CCCCDE;" y="117.196" x="105.821"></rect>
		<rect height="1" width="0.666" style="fill:#CCCCDE;" y="120.695" x="105.821"></rect>
		<rect height="1" width="0.75" style="fill:#CCCCDE;" y="83.196" x="105.737"></rect>
	</g>
	<rect height="43.666" width="0.25" style="fill:#5FEAFF;" y="81.779" x="109.362"></rect>
	<g>
		<rect height="1" width="6.266" style="fill:#A1FFD2;" y="82.779" x="157.904"></rect>
		<rect height="1" width="10.842" style="fill:#CCCCDE;" y="82.779" x="168.746"></rect>
		<rect height="1" width="12.048" style="fill:#FCBAFF;" y="85.779" x="157.904"></rect>
		<rect height="1" width="5.3" style="fill:#CCCCDE;" y="85.779" x="173.806"></rect>
		<rect height="1" width="7.47" style="fill:#CCCCDE;" y="89.279" x="157.904"></rect>
		<rect height="1" width="2.891" style="fill:#FCBAFF;" y="89.279" x="169.469"></rect>
		<rect height="1" width="9.639" style="fill:#CCCCDE;" y="92.529" x="157.904"></rect>
		<rect height="1" width="9.396" style="fill:#CCCCDE;" y="95.529" x="163.205"></rect>
		<rect height="1" width="3.132" style="fill:#FCBAFF;" y="95.529" x="176.456"></rect>
		<rect height="1" width="12.286" style="fill:#CCCCDE;" y="95.529" x="181.034"></rect>
		<rect height="1" width="2.169" style="fill:#CCCCDE;" y="99.279" x="157.904"></rect>
		<rect height="1" width="5.662" style="fill:#CCCCDE;" y="102.529" x="157.904"></rect>
		<rect height="1" width="8.493" style="fill:#CCCCDE;" y="105.779" x="157.904"></rect>
		<rect height="1" width="2.651" style="fill:#CCCCDE;" y="105.779" x="171.155"></rect>
		<rect height="1" width="10.119" style="fill:#A1FFD2;" y="109.779" x="157.904"></rect>
		<rect height="1" width="7.952" style="fill:#CCCCDE;" y="113.029" x="161.277"></rect>
		<rect height="1" width="3.134" style="fill:#CCCCDE;" y="113.029" x="171.155"></rect>
		<rect height="1" width="2.891" style="fill:#CCCCDE;" y="113.029" x="177.661"></rect>
		<rect height="1" width="11.807" style="fill:#FCBAFF;" y="116.779" x="161.277"></rect>
		<rect height="1" width="1.927" style="fill:#CCCCDE;" y="116.779" x="177.661"></rect>
		<rect height="1" width="2.409" style="fill:#CCCCDE;" y="120.279" x="157.904"></rect>
	</g>
	<path d="M196.919,150.576H63.247c-0.829,0-1.5-0.672-1.5-1.5V67.998c0-0.829,0.671-1.5,1.5-1.5h133.672
		c0.828,0,1.5,0.671,1.5,1.5v81.078C198.419,149.904,197.747,150.576,196.919,150.576z M64.747,147.576h130.672V69.498H64.747
		V147.576z" style="fill:#6E6E96;"></path>
	<rect height="75.63" width="0.5" style="fill:#6E6E96;" y="73.446" x="69.571"></rect>
	<g>
		<path d="M194.534,183.876H66.507c-7.364,0-13.354-5.991-13.354-13.354v-15.131h154.735v15.131
			C207.888,177.885,201.898,183.876,194.534,183.876z M56.153,158.391v12.131c0,5.71,4.645,10.354,10.354,10.354h128.027
			c5.709,0,10.354-4.645,10.354-10.354v-12.131H56.153z" style="fill:#6E6E96;"></path>
	</g>
	<g>
		<path d="M207.887,166.375h-3V70.947c0-5.709-4.645-10.354-10.354-10.354H66.507
			c-5.709,0-10.354,4.645-10.354,10.354v95.428h-3V70.947c0-7.364,5.991-13.354,13.354-13.354h128.026
			c7.363,0,13.354,5.991,13.354,13.354V166.375z" style="fill:#6E6E96;"></path>
	</g>
	<path d="M194.533,176.628H66.507
		c-6.521,0-11.854-5.336-11.854-11.854v5.748c0,6.521,5.334,11.854,11.854,11.854h128.026c6.52,0,11.854-5.336,11.854-11.854v-5.748
		C206.388,171.292,201.053,176.628,194.533,176.628z" style="opacity:0.15;fill:#6E6E96;enable-background:new    ;"></path>
	<rect height="4.748" width="151.734" style="opacity:0.15;fill:#6E6E96;enable-background:new    ;" y="152.143" x="54.653"></rect>
	<rect height="7.567" width="43.268" style="opacity:0.15;fill:#6E6E96;enable-background:new    ;" y="182.376" x="108.886"></rect>
	<rect height="5.928" width="17.65" style="opacity:0.15;fill:#6E6E96;enable-background:new    ;" y="202.529" x="143.987"></rect>
	<path d="M134.987,170.445h-10c-0.829,0-1.5-0.672-1.5-1.5s0.671-1.5,1.5-1.5h10c0.828,0,1.5,0.672,1.5,1.5
		S135.815,170.445,134.987,170.445z" style="fill:#6E6E96;"></path>
	<polygon points="63.247,100.946 90.747,73.446 131.987,73.446 
		63.867,141.566" style="opacity:0.17;fill:#FFFFFF;enable-background:new    ;"></polygon>
	<polygon points="151.821,73.446 75.84,149.428 87.487,149.428 
		163.469,73.446" style="opacity:0.2;fill:#FFFFFF;enable-background:new    ;"></polygon>
</g>
<rect height="3" width="6.667" style="fill:#CCCCDE;" y="206.957" x="86.488"></rect>
<rect height="3" width="6" style="fill:#CCCCDE;" y="206.957" x="73.821"></rect>
</svg>
